<?xml version="1.0" encoding="UTF-8"?><svg id="a" xmlns="http://www.w3.org/2000/svg" viewBox="0 0 700 555.89"><path d="M481.25,78.75c-2.33,0-4.55,.92-6.19,2.56s-2.56,3.87-2.56,6.19v96.25c0,4.83,3.92,8.75,8.75,8.75h105c4.84,0,8.75-3.92,8.75-8.75V113.75c0-4.83-3.91-8.75-8.75-8.75h-52.5v-17.5c0-4.83-3.92-8.75-8.75-8.75h-17.5V43.75c0-4.83-3.92-8.75-8.75-8.75H236.25c-4.84,0-8.75,3.92-8.75,8.75v61.41c-60.93,1.6-122.5,19.8-122.5,52.34v253.75c0,32.54,61.57,50.74,122.5,52.34v52.66c0,4.83,3.91,8.75,8.75,8.75H498.75c4.83,0,8.75-3.92,8.75-8.75v-43.75h78.75c4.84,0,8.75-3.92,8.75-8.75v-70c0-4.83-3.91-8.75-8.75-8.75h-52.5v-17.5c0-4.83-3.92-8.75-8.75-8.75h-43.75c-2.33,0-4.55,.92-6.19,2.56s-2.56,3.87-2.56,6.19v96.25c0,4.83,3.92,8.75,8.75,8.75h8.75v35H245v-43.91c60.92-1.6,122.5-19.8,122.5-52.34v-122.5h105v35c0,4.83,3.92,8.75,8.75,8.75h105c4.84,0,8.75-3.92,8.75-8.75v-70c0-4.83-3.91-8.75-8.75-8.75h-52.5v-17.5c0-4.83-3.92-8.75-8.75-8.75h-43.75c-2.33,0-4.55,.92-6.19,2.56s-2.56,3.87-2.56,6.19v43.75h-105v-113.75c0-32.54-61.58-50.74-122.5-52.34V52.5h245v26.25h-8.75Zm35,297.5v17.5c0,4.83,3.91,8.75,8.75,8.75h52.5v52.5h-87.5v-78.75h26.25Zm0-140v17.5c0,4.83,3.91,8.75,8.75,8.75h52.5v52.5h-87.5v-78.75h26.25Zm-166.25,87.5c0,14.27-44.31,35-113.75,35s-113.75-20.73-113.75-35v-60.31c24.21,16.58,69.92,25.31,113.75,25.31s89.53-8.73,113.75-25.31v60.31Zm0-87.5c0,14.27-44.31,35-113.75,35s-113.75-20.73-113.75-35v-51.56c24.21,16.58,69.92,25.31,113.75,25.31s89.53-8.73,113.75-25.31v51.56Zm-113.75,210c-69.44,0-113.75-20.73-113.75-35v-60.31c24.21,16.58,69.92,25.31,113.75,25.31s89.53-8.73,113.75-25.31v60.31c0,14.27-44.31,35-113.75,35Zm113.75-288.75c0,14.27-44.31,35-113.75,35s-113.75-20.73-113.75-35,40.65-33.18,105-34.83v34.83c0,4.83,3.91,8.75,8.75,8.75s8.75-3.92,8.75-8.75v-34.83c64.35,1.65,105,21.17,105,34.83Zm175-35h52.5v52.5h-87.5V96.25h26.25v17.5c0,4.83,3.91,8.75,8.75,8.75Z"/></svg>