<?xml version="1.0" encoding="utf-8"?>
<!-- Generator: Adobe Illustrator 26.2.1, SVG Export Plug-In . SVG Version: 6.00 Build 0)  -->
<svg version="1.1" id="Layer_1" xmlns="http://www.w3.org/2000/svg" xmlns:xlink="http://www.w3.org/1999/xlink" x="0px" y="0px"
	 viewBox="0 0 700 557.9" style="enable-background:new 0 0 700 557.9;" xml:space="preserve">
<symbol  id="a" viewBox="-6.4 -6.3 12.8 12.6">
	<path d="M6.4,0V1h-8.9c0.1,0.9,0.4,1.6,1,2C-1,3.5-0.2,3.7,0.8,3.7c0.8,0,1.6-0.1,2.5-0.4C4.1,3.1,5,2.8,5.9,2.3v3
		C5,5.6,4,5.8,3.1,6C2.2,6.2,1.3,6.3,0.4,6.3c-2.2,0-3.8-0.5-5-1.6C-5.8,3.5-6.4,2-6.4,0c0-1.9,0.6-3.5,1.8-4.6
		c1.2-1.1,2.8-1.7,4.9-1.7c1.9,0,3.4,0.6,4.5,1.7C5.9-3.5,6.4-1.9,6.4,0L6.4,0z M2.5-1.3c0-0.7-0.2-1.3-0.6-1.8
		c-0.4-0.4-1-0.7-1.7-0.7c-0.7,0-1.3,0.2-1.8,0.6c-0.5,0.4-0.7,1-0.9,1.8L2.5-1.3z"/>
</symbol>
<symbol  id="b" viewBox="-4.8 -7.7 9.7 15.4">
	<path d="M0.9-7.7v3.4h3.9v2.7H0.9v5.1c0,0.6,0.1,0.9,0.3,1.1c0.2,0.2,0.7,0.3,1.3,0.3h2v2.7H1.2c-1.5,0-2.6-0.3-3.2-0.9
		C-2.6,6.1-2.9,5-2.9,3.5v-5.1h-1.9v-2.7h1.9v-3.4L0.9-7.7z"/>
</symbol>
<symbol  id="c" viewBox="-4.4 -6.1 8.9 12.3">
	<path d="M4.4-2.6c-0.3-0.2-0.7-0.3-1-0.3C3.1-3,2.8-3,2.4-3c-1,0-1.7,0.3-2.3,1c-0.5,0.6-0.8,1.5-0.8,2.7v5.5h-3.8v-12h3.8v2
		c0.5-0.8,1.1-1.3,1.7-1.7c0.6-0.4,1.4-0.5,2.3-0.5c0.1,0,0.3,0,0.4,0c0.1,0,0.4,0,0.7,0.1L4.4-2.6z"/>
</symbol>
<symbol  id="d" viewBox="-6.6 -6.3 13.2 12.6">
	<path d="M0-3.5c-0.8,0-1.5,0.3-1.9,0.9C-2.4-2-2.6-1.1-2.6,0c0,1.1,0.2,2,0.7,2.6C-1.5,3.2-0.8,3.5,0,3.5c0.8,0,1.5-0.3,1.9-0.9
		C2.4,2,2.6,1.1,2.6,0c0-1.1-0.2-2-0.7-2.6C1.5-3.2,0.8-3.5,0-3.5z M0-6.3c2.1,0,3.7,0.6,4.8,1.7C6-3.5,6.6-2,6.6,0S6,3.5,4.8,4.6
		C3.7,5.7,2.1,6.3,0,6.3c-2.1,0-3.7-0.6-4.8-1.7C-6,3.5-6.6,2-6.6,0S-6-3.5-4.8-4.6C-3.7-5.7-2-6.3,0-6.3z"/>
</symbol>
<symbol  id="e" viewBox="-6.6 -8 13.1 16">
	<path d="M-6.6-8h6.8c2,0,3.6,0.5,4.7,1.4C6-5.7,6.6-4.4,6.6-2.8c0,1.7-0.5,3-1.6,3.9C3.8,2,2.3,2.4,0.3,2.4h-2.7V8h-4.1V-8z
		 M-2.5-5v4.5h2.3c0.8,0,1.4-0.2,1.8-0.6c0.4-0.4,0.7-0.9,0.7-1.7c0-0.7-0.2-1.3-0.7-1.6C1.2-4.8,0.6-5-0.2-5L-2.5-5z"/>
</symbol>
<symbol  id="f" viewBox="-5.7 -8 11.3 16">
	<path d="M-5.7-8h4.1V4.9h7.2V8H-5.7L-5.7-8z"/>
</symbol>
<symbol  id="g" viewBox="-5.7 -8 11.3 16">
	<path d="M-5.7-8H5.4v3.1h-7v3H5v3.1h-6.6v3.7h7.2V8H-5.7L-5.7-8z"/>
</symbol>
<symbol  id="h" viewBox="-6.8 -8.3 13.6 16.5">
	<path d="M6.8,7.1C6,7.5,5.2,7.8,4.4,8C3.6,8.2,2.7,8.3,1.9,8.3c-2.7,0-4.8-0.7-6.3-2.2C-6,4.6-6.8,2.6-6.8,0c0-2.6,0.8-4.6,2.3-6
		c1.6-1.5,3.7-2.2,6.3-2.2c0.9,0,1.7,0.1,2.5,0.3C5.2-7.8,6-7.5,6.8-7.1v3.3C6-4.3,5.3-4.7,4.5-4.9C3.8-5.2,3-5.3,2.2-5.3
		c-1.5,0-2.6,0.5-3.5,1.4C-2.1-2.9-2.5-1.6-2.5,0c0,1.6,0.4,2.9,1.2,3.9c0.8,0.9,2,1.4,3.5,1.4c0.8,0,1.6-0.1,2.3-0.4
		C5.3,4.7,6,4.3,6.8,3.8V7.1z"/>
</symbol>
<symbol  id="i" viewBox="-11.4 -8 22.8 16">
	<path d="M-11.4-8h3.9l2.8,11.6L-2-8h4L4.7,3.6L7.5-8h3.9L7.6,8H2.9L0-4.1L-2.9,8h-4.8L-11.4-8z"/>
</symbol>
<symbol  id="j" viewBox="-6.8 -8.3 13.6 16.7">
	<path d="M-6.8-8.3H-3l3.2,8.1L3-8.3h3.8l-5,13.1C1.3,6.1,0.7,7,0,7.5c-0.7,0.5-1.6,0.8-2.7,0.8h-2.2V5.8h1.2c0.6,0,1.1-0.1,1.4-0.3
		C-2,5.3-1.7,5-1.6,4.4l0.1-0.3L-6.8-8.3z"/>
</symbol>
<symbol  id="k" viewBox="-6.4 -8.5 12.8 16.9">
	<path d="M-0.1,5.7c0.8,0,1.4-0.3,1.9-0.9c0.4-0.6,0.6-1.5,0.6-2.6c0-1.1-0.2-2-0.6-2.6C1.4-1,0.8-1.3-0.1-1.3
		c-0.8,0-1.5,0.3-1.9,0.9c-0.4,0.6-0.7,1.5-0.7,2.6c0,1.1,0.2,2,0.7,2.6C-1.5,5.4-0.9,5.7-0.1,5.7L-0.1,5.7z M-2.6-2.1
		c0.5-0.7,1.1-1.2,1.8-1.5c0.6-0.3,1.4-0.5,2.2-0.5C2.8-4.1,4-3.5,5-2.3c0.9,1.2,1.4,2.7,1.4,4.5S5.9,5.5,5,6.7
		C4,7.9,2.8,8.5,1.4,8.5C0.5,8.5-0.2,8.3-0.9,8c-0.6-0.3-1.2-0.8-1.8-1.5v1.7h-3.8V-8.5h3.8L-2.6-2.1z"/>
</symbol>
<symbol  id="l" viewBox="-6.4 -8.5 12.8 16.9">
	<path d="M2.6-2.1v-6.4h3.9V8.2H2.6V6.4C2,7.1,1.5,7.7,0.8,8C0.2,8.3-0.5,8.5-1.4,8.5c-1.5,0-2.7-0.6-3.6-1.8
		C-5.9,5.5-6.4,4-6.4,2.2S-5.9-1.2-5-2.3c0.9-1.2,2.2-1.8,3.6-1.8c0.8,0,1.6,0.2,2.2,0.5C1.5-3.3,2-2.8,2.6-2.1L2.6-2.1z M0,5.7
		c0.8,0,1.4-0.3,1.9-0.9c0.4-0.6,0.6-1.5,0.6-2.6c0-1.1-0.2-2-0.6-2.6C1.5-1,0.9-1.3,0-1.3c-0.8,0-1.4,0.3-1.9,0.9
		C-2.2,0.2-2.5,1-2.5,2.2c0,1.1,0.2,2,0.6,2.6C-1.4,5.4-0.8,5.7,0,5.7z"/>
</symbol>
<symbol  id="m" viewBox="-6.1 -6.3 12.1 12.6">
	<path d="M0.2,0.6c-0.8,0-1.4,0.1-1.8,0.4C-2,1.3-2.2,1.7-2.2,2.2C-2.2,2.7-2,3-1.7,3.3c0.3,0.3,0.8,0.4,1.4,0.4
		C0.4,3.7,1,3.5,1.5,3c0.5-0.5,0.7-1.2,0.7-2V0.6L0.2,0.6z M6.1-0.9V6H2.2V4.2C1.7,4.9,1.1,5.4,0.5,5.8C-0.2,6.1-1,6.3-1.9,6.3
		c-1.2,0-2.2-0.4-3-1.1c-0.8-0.7-1.2-1.7-1.2-2.8C-6.1,1-5.6,0-4.6-0.7c1-0.7,2.5-1,4.6-1h2.2V-2c0-0.6-0.2-1-0.7-1.3
		C1-3.6,0.2-3.7-0.8-3.7c-0.8,0-1.6,0.1-2.3,0.2c-0.7,0.2-1.4,0.4-2,0.7v-2.9C-4.2-5.9-3.4-6-2.5-6.1c0.8-0.1,1.6-0.2,2.5-0.2
		c2.2,0,3.7,0.4,4.7,1.3C5.6-4.2,6.1-2.8,6.1-0.9L6.1-0.9z"/>
</symbol>
<symbol  id="n" viewBox="-5.3 -6.3 10.6 12.6">
	<path d="M5.3-5.6v3.1c-0.5-0.4-1-0.6-1.6-0.8C3.2-3.5,2.7-3.5,2.1-3.5C1-3.5,0.2-3.2-0.4-2.6S-1.3-1.1-1.3,0c0,1.1,0.3,2,0.9,2.6
		S1,3.5,2.1,3.5c0.6,0,1.2-0.1,1.7-0.3c0.5-0.2,1-0.4,1.5-0.8v3.1C4.7,5.8,4.1,6,3.5,6.1C2.9,6.2,2.2,6.3,1.6,6.3
		c-2.2,0-3.8-0.6-5.1-1.7C-4.7,3.5-5.3,2-5.3,0s0.6-3.5,1.8-4.6c1.2-1.1,2.9-1.7,5.1-1.7c0.6,0,1.2,0.1,1.8,0.2
		C4.1-6,4.7-5.8,5.3-5.6L5.3-5.6z"/>
</symbol>
<symbol  id="o" viewBox="-3.2 -10.7 6.4 21.3">
	<path d="M-0.6-6h3.8V5.7c0,1.6-0.4,2.8-1.2,3.7c-0.8,0.8-1.9,1.3-3.3,1.3h-1.9V8.2h0.7C-1.8,8.2-1.3,8-1,7.7c0.3-0.3,0.4-1,0.4-1.9
		L-0.6-6z M-0.6-10.7h3.8v3.1h-3.8L-0.6-10.7z"/>
</symbol>
<symbol  id="p" viewBox="-6 -6.1 12 12.3">
	<path d="M6-1.2v7.3H2.2V0.5c0-1,0-1.7-0.1-2.1C2-2,2-2.3,1.9-2.5C1.7-2.7,1.5-2.9,1.2-3C1-3.2,0.7-3.2,0.4-3.2
		c-0.8,0-1.4,0.3-1.9,0.9C-2-1.7-2.2-0.8-2.2,0.2v5.9H-6v-12h3.8v1.8C-1.6-4.8-1-5.3-0.4-5.6C0.3-6,1-6.1,1.8-6.1
		c1.4,0,2.4,0.4,3.1,1.3C5.6-4,6-2.8,6-1.2L6-1.2z"/>
</symbol>
<symbol  id="q" viewBox="-6 -6.1 12 12.3">
	<path d="M-6,1.2v-7.3h3.8v1.2c0,0.6,0,1.5,0,2.4v2c0,1,0,1.7,0.1,2.1C-2.1,2-2,2.3-1.9,2.5C-1.7,2.7-1.5,2.9-1.2,3
		C-1,3.2-0.7,3.2-0.4,3.2c0.8,0,1.4-0.3,1.9-0.9C2,1.7,2.2,0.9,2.2-0.2v-5.9H6v12H2.2V4.1C1.6,4.8,1,5.3,0.4,5.6
		C-0.3,6-1,6.1-1.8,6.1c-1.4,0-2.4-0.4-3.2-1.3C-5.7,4-6,2.8-6,1.2L-6,1.2z"/>
</symbol>
<symbol  id="r" viewBox="-7.1 -8 14.3 16">
	<path d="M-7.1-8h4.6L3.3,3V-8h3.9V8H2.5L-3.3-3V8h-3.9L-7.1-8z"/>
</symbol>
<symbol  id="s" viewBox="-6 -8.3 12 16.6">
	<path d="M6,1v7.3H2.2V2.8c0-1.1,0-1.8-0.1-2.2C2,0.2,2-0.1,1.9-0.3C1.7-0.5,1.5-0.7,1.2-0.8C1-1,0.7-1.1,0.4-1.1
		c-0.8,0-1.4,0.3-1.9,0.9C-2,0.5-2.2,1.3-2.2,2.4v5.9H-6V-8.3h3.8v6.4C-1.6-2.6-1-3.1-0.4-3.4C0.3-3.8,1-3.9,1.8-3.9
		c1.4,0,2.4,0.4,3.1,1.3C5.6-1.8,6-0.6,6,1L6,1z"/>
</symbol>
<symbol  id="t" viewBox="-9.6 -6.1 19.3 12.3">
	<path d="M1.5-3.8C2-4.6,2.5-5.2,3.2-5.5c0.7-0.4,1.4-0.6,2.2-0.6c1.4,0,2.4,0.4,3.1,1.3C9.3-4,9.6-2.8,9.6-1.2v7.3H5.8v-6.2
		c0-0.1,0-0.2,0-0.3v-0.4c0-0.8-0.1-1.5-0.4-1.8C5.2-3.1,4.8-3.2,4.2-3.2c-0.7,0-1.3,0.3-1.7,0.9C2.1-1.7,1.9-0.9,1.9,0.3v5.9h-3.8
		v-6.2c0-1.3-0.1-2.2-0.3-2.6c-0.2-0.4-0.6-0.6-1.2-0.6c-0.7,0-1.3,0.3-1.7,0.9c-0.4,0.6-0.6,1.5-0.6,2.6v5.9h-3.8v-12h3.8v1.8
		c0.5-0.7,1-1.2,1.6-1.5c0.6-0.3,1.3-0.5,2-0.5c0.8,0,1.6,0.2,2.2,0.6C0.7-5.1,1.2-4.6,1.5-3.8L1.5-3.8z"/>
</symbol>
<symbol  id="u" viewBox="-4.6 -8.3 9.3 16.6">
	<path d="M4.6-8.3v2.5H2.5C2-5.8,1.6-5.7,1.4-5.5C1.2-5.3,1.1-5,1.1-4.5v0.8h3.3v2.7H1.1v9.2h-3.8v-9.2h-1.9v-2.7h1.9v-0.8
		c0-1.3,0.4-2.3,1.1-2.9C-0.9-8,0.2-8.3,1.7-8.3L4.6-8.3z"/>
</symbol>
<symbol  id="v" viewBox="-6.3 -8.3 12.6 16.5">
	<path d="M5.3-7.5v3.4C4.4-4.5,3.5-4.8,2.7-5C1.9-5.2,1.1-5.3,0.3-5.3c-1,0-1.7,0.1-2.2,0.4c-0.5,0.3-0.7,0.7-0.7,1.2
		c0,0.4,0.2,0.8,0.5,1C-1.8-2.4-1.2-2.2-0.4-2l1.8,0.3c1.8,0.4,3,0.9,3.8,1.6c0.8,0.7,1.1,1.8,1.1,3.1c0,1.8-0.5,3.1-1.6,3.9
		C3.7,7.8,2.1,8.3,0,8.3c-1,0-2-0.1-3-0.3c-1-0.2-2-0.5-3.1-0.8V3.7c1,0.5,2,0.9,3,1.2c1,0.3,1.9,0.4,2.8,0.4c0.9,0,1.6-0.1,2.1-0.4
		c0.5-0.3,0.7-0.7,0.7-1.3c0-0.5-0.2-0.9-0.5-1.1c-0.3-0.3-1-0.5-1.9-0.7l-1.6-0.4C-3.3,1-4.4,0.4-5.2-0.3c-0.7-0.7-1.1-1.8-1.1-3
		c0-1.6,0.5-2.8,1.5-3.7c1-0.9,2.5-1.3,4.4-1.3c0.9,0,1.8,0.1,2.7,0.2C3.3-7.9,4.3-7.7,5.3-7.5L5.3-7.5z"/>
</symbol>
<symbol  id="w" viewBox="-8.2 -8.3 16.4 16.5">
	<path d="M0-5.3c-1.3,0-2.2,0.5-2.9,1.4C-3.6-3-4-1.7-4,0c0,1.7,0.3,3,1,3.9C-2.2,4.8-1.3,5.3,0,5.3c1.3,0,2.2-0.5,2.9-1.4
		C3.6,3,4,1.7,4,0c0-1.7-0.3-3-1-3.9C2.2-4.8,1.3-5.3,0-5.3z M0-8.3c2.6,0,4.6,0.7,6,2.2C7.5-4.6,8.2-2.6,8.2,0
		c0,2.6-0.7,4.6-2.2,6.1C4.6,7.5,2.6,8.3,0,8.3s-4.6-0.7-6-2.2C-7.5,4.6-8.2,2.6-8.2,0c0-2.6,0.7-4.6,2.2-6.1
		C-4.6-7.5-2.6-8.3,0-8.3z"/>
</symbol>
<symbol  id="x" viewBox="-7.1 -8 14.3 16">
	<path d="M-7.1-8H-3v6.1H3V-8h4.1V8H3V1.2H-3V8h-4.1V-8z"/>
</symbol>
<symbol  id="y" viewBox="-7.3 -8 14.7 16">
	<path d="M-7.3-8H7.3v3.1H2.1V8H-2V-4.9h-5.3L-7.3-8z"/>
</symbol>
<symbol  id="z" viewBox="-6.6 -8 13.1 16">
	<path d="M-0.2-1.8c0.7,0,1.1-0.1,1.5-0.4c0.3-0.3,0.5-0.7,0.5-1.3c0-0.6-0.2-1-0.5-1.3C1-5,0.5-5.2-0.2-5.2h-2.3v3.4L-0.2-1.8z
		 M0,5.2c0.8,0,1.4-0.2,1.9-0.5c0.4-0.4,0.6-0.9,0.6-1.6c0-0.7-0.2-1.2-0.6-1.5C1.4,1.2,0.8,1,0,1h-2.4v4.2L0,5.2z M3.8-0.6
		c0.9,0.2,1.6,0.7,2,1.4c0.5,0.7,0.7,1.5,0.7,2.5C6.6,4.9,6,6.1,5,6.9C4,7.6,2.4,8,0.2,8h-6.8V-8h6.2c2.2,0,3.8,0.3,4.8,1
		c1,0.7,1.5,1.7,1.5,3.2c0,0.8-0.2,1.4-0.5,2C5-1.2,4.5-0.8,3.8-0.6L3.8-0.6z"/>
</symbol>
<g>
	<path d="M567.6,345c-5.4-2.8-11.5-4.1-17.6-3.6c-6.1,0.4-12,2.5-16.9,6.1l-73.7,56.4c-7.4-8.9-23-12.5-40.3-16.5l0,0
		c-31.1-6.1-61.1-16.9-89-31.9c-40.4-22.4-72.9-21.1-95.9-13.4c-2.1-5.4-5.7-10-10.4-13.2s-10.3-5-16.1-5.1h-85.2
		c-4.8,0-8.8,3.9-8.8,8.8s3.9,8.8,8.8,8.8h43.8v157.5H78.7c-4.8,0-8.8,3.9-8.8,8.8s3.9,8.8,8.8,8.8h128.9c6.1-0.1,12-2.1,16.9-5.7
		c4.9-3.7,8.5-8.8,10.3-14.6l30.3-9.8c4.1-1.3,8.4-1.1,12.3,0.7l93,43c13.5,6.3,29.3,5.1,41.7-3.1c0.2-0.1,0.3-0.2,0.5-0.4
		l158.2-120.8h0c10.2-7,16-18.8,15.4-31.1S578.5,350.9,567.6,345L567.6,345z M218.8,486.9c0.2,6.3-4.8,11.6-11.1,11.8h-23.9V341.2
		h23.9c6.3,0.2,11.3,5.5,11.1,11.8V486.9z M561,391c-0.2,0.1-0.3,0.2-0.5,0.4L402.3,512.2h0c-7.3,4.7-16.6,5.4-24.5,1.7l-93-43
		c-7.9-3.7-16.8-4.2-25.1-1.5l-23.5,7.6V359.5c19.2-7.3,47.9-9.6,85.3,11.2c29.3,15.8,60.9,27.2,93.6,33.6
		c26.7,6.1,31.9,8.5,31,14.2c-1.5,7.9-6.8,14.6-14.2,17.8c-21.1,10.8-57.6,5.3-97.8-14.8c-2.1-1-4.5-1.2-6.7-0.5s-4,2.3-5.1,4.4
		c-1,2.1-1.2,4.5-0.5,6.7c0.7,2.2,2.3,4,4.4,5.1c29.2,14.6,56.5,22.1,79.4,22.1c11.8,0.3,23.6-2.2,34.2-7.4
		c11.7-5.5,20.3-16.2,23.1-28.9l80.3-61.5c2.3-1.6,5.1-2.6,8-2.8c2.9-0.2,5.7,0.4,8.3,1.7c2.7,1.4,5,3.5,6.6,6.1
		c1.6,2.6,2.5,5.6,2.6,8.6c0.2,3.1-0.4,6.2-1.8,8.9C565.6,386.9,563.5,389.3,561,391L561,391z"/>
	<path d="M621.2,192.5h-12.9L570.2,80.9c7.7-6,12-15.4,11.6-25.1c-0.4-9.8-5.3-18.8-13.4-24.2c-8.1-5.5-18.3-6.8-27.5-3.5
		c-9.2,3.3-16.3,10.7-19,20.1h-68.2c-2.5-8.5-8.6-15.5-16.7-19.1c-8.1-3.7-17.3-3.7-25.4,0c-8.1,3.7-14.1,10.6-16.7,19.1h-68.2
		c-2.8-9.4-9.9-16.8-19-20.1c-9.2-3.3-19.4-2-27.5,3.5c-8.1,5.5-13.1,14.5-13.4,24.2c-0.3,9.8,4,19.1,11.6,25.1l-38.2,111.6h-12.9
		c-4.8,0-8.8,3.9-8.8,8.8c0,28.1,15,54.1,39.4,68.2s54.4,14.1,78.8,0c24.4-14.1,39.4-40.1,39.4-68.2c0-4.8-3.9-8.8-8.8-8.8h-12.9
		L316.5,80.9c4.9-3.9,8.6-9.2,10.4-15.3H395c3,9.9,10.7,17.6,20.6,20.6v167.5H385c-4.6,0-9.1,1.9-12.4,5.1
		c-3.3,3.3-5.1,7.7-5.1,12.4v17.5h-4.4c-4.6,0-9.1,1.9-12.4,5.1c-3.3,3.3-5.1,7.7-5.1,12.4v26.2c0,4.8,3.9,8.8,8.8,8.8
		s8.8-3.9,8.8-8.8v-26.2h122.5v26.2c0,4.8,3.9,8.8,8.8,8.8s8.8-3.9,8.8-8.8v-26.2c0-4.6-1.9-9.1-5.1-12.4c-3.3-3.3-7.7-5.1-12.4-5.1
		h-4.4v-17.5c0-4.6-1.9-9.1-5.1-12.4c-3.3-3.3-7.7-5.1-12.4-5.1h-30.6V86.2c9.9-3,17.6-10.7,20.6-20.6h68.2
		c1.8,6,5.4,11.4,10.4,15.3l-38.2,111.6h-12.9c-4.8,0-8.8,3.9-8.8,8.8c0,28.1,15,54.1,39.4,68.2c24.4,14.1,54.4,14.1,78.7,0
		c24.4-14.1,39.4-40.1,39.4-68.2C630,196.4,626.1,192.5,621.2,192.5L621.2,192.5z M297.5,43.8c5.3,0,10.1,3.2,12.1,8.1
		c2,4.9,0.9,10.6-2.8,14.3c-3.8,3.8-9.4,4.9-14.3,2.8c-4.9-2-8.1-6.8-8.1-12.1C284.4,49.6,290.3,43.8,297.5,43.8L297.5,43.8z
		 M358.1,210c-2.8,19.6-15,36.6-32.6,45.7c-17.6,9.1-38.5,9.1-56.1,0c-17.6-9.1-29.7-26.1-32.6-45.7H358.1z M336.1,192.5h-77.3
		l36-105.1c0.9,0.1,1.8,0.1,2.7,0.1s1.8-0.1,2.7-0.1L336.1,192.5z M463.7,271.2v17.5H385v-17.5H463.7z M424.4,70
		c-5.3,0-10.1-3.2-12.1-8.1c-2-4.9-0.9-10.6,2.8-14.3s9.4-4.9,14.3-2.8c4.9,2,8.1,6.8,8.1,12.1C437.5,64.1,431.6,70,424.4,70
		L424.4,70z M551.3,43.8c5.3,0,10.1,3.2,12.1,8.1c2,4.9,0.9,10.6-2.8,14.3c-3.8,3.8-9.4,4.9-14.3,2.8c-4.9-2-8.1-6.8-8.1-12.1
		C538.1,49.6,544,43.8,551.3,43.8L551.3,43.8z M548.6,87.4c0.9,0.1,1.8,0.1,2.7,0.1s1.8-0.1,2.7-0.1l36,105.1h-77.3L548.6,87.4z
		 M551.3,262.5c-14.7,0-28.9-5.3-40.1-15c-11.1-9.6-18.4-23-20.5-37.5h121.2h0c-2.1,14.6-9.4,27.9-20.5,37.5
		C580.2,257.2,566,262.5,551.3,262.5L551.3,262.5z"/>
	
		<use xlink:href="#h"  width="13.6" height="16.5" x="-6.8" y="-8.3" transform="matrix(1 0 0 1 77.8747 617.664)" style="overflow:visible;"/>
	
		<use xlink:href="#c"  width="8.9" height="12.3" x="-4.4" y="-6.1" transform="matrix(1 0 0 1 92.3362 619.4999)" style="overflow:visible;"/>
	
		<use xlink:href="#a"  width="12.8" height="12.6" x="-6.4" y="-6.3" transform="matrix(1 0 0 1 104.1989 619.6563)" style="overflow:visible;"/>
	
		<use xlink:href="#m"  width="12.1" height="12.6" x="-6.1" y="-6.3" transform="matrix(1 0 0 1 118.6719 619.6563)" style="overflow:visible;"/>
	
		<use xlink:href="#b"  width="9.7" height="15.4" x="-4.8" y="-7.7" transform="matrix(1 0 0 1 131.5547 617.9457)" style="overflow:visible;"/>
	<g>
		<defs>
			<rect id="SVGID_1_" x="136.9" y="625.6" width="700" height="700"/>
		</defs>
		<clipPath id="SVGID_00000067234899364365479700000008088559606285436561_">
			<use xlink:href="#SVGID_1_"  style="overflow:visible;"/>
		</clipPath>
		<g style="clip-path:url(#SVGID_00000067234899364365479700000008088559606285436561_);">
			
				<use xlink:href="#a"  width="12.8" height="12.6" x="-6.4" y="-6.3" transform="matrix(1 0 0 1 144.2536 619.6563)" style="overflow:visible;"/>
		</g>
	</g>
	
		<use xlink:href="#l"  width="12.8" height="16.9" x="-6.4" y="-8.5" transform="matrix(1 0 0 1 159.1368 617.4686)" style="overflow:visible;"/>
	
		<use xlink:href="#k"  width="12.8" height="16.9" x="-6.4" y="-8.5" transform="matrix(1 0 0 1 183.2656 617.4686)" style="overflow:visible;"/>
	
		<use xlink:href="#j"  width="13.6" height="16.7" x="-6.8" y="-8.3" transform="matrix(1 0 0 1 197.7266 621.9999)" style="overflow:visible;"/>
	
		<use xlink:href="#i"  width="22.8" height="16" x="-11.4" y="-8" transform="matrix(1 0 0 1 224.586 617.6485)" style="overflow:visible;"/>
	
		<use xlink:href="#g"  width="11.3" height="16" x="-5.7" y="-8" transform="matrix(1 0 0 1 244.3478 617.6486)" style="overflow:visible;"/>
	
		<use xlink:href="#z"  width="13.1" height="16" x="-6.6" y="-8" transform="matrix(1 0 0 1 260.1914 617.6485)" style="overflow:visible;"/>
	
		<use xlink:href="#y"  width="14.7" height="16" x="-7.3" y="-8" transform="matrix(1 0 0 1 275.7385 617.6487)" style="overflow:visible;"/>
	<g>
		<defs>
			<rect id="SVGID_00000080920527769606407390000012175643745919185055_" x="283.2" y="625.6" width="700" height="700"/>
		</defs>
		<clipPath id="SVGID_00000163031393717253031690000000966561740816990124_">
			<use xlink:href="#SVGID_00000080920527769606407390000012175643745919185055_"  style="overflow:visible;"/>
		</clipPath>
		<g style="clip-path:url(#SVGID_00000163031393717253031690000000966561740816990124_);">
			
				<use xlink:href="#g"  width="11.3" height="16" x="-5.7" y="-8" transform="matrix(1 0 0 1 290.8868 617.6486)" style="overflow:visible;"/>
		</g>
	</g>
	<g>
		<defs>
			<rect id="SVGID_00000106131523501655023550000004225979536949300105_" x="298.1" y="625.6" width="700" height="700"/>
		</defs>
		<clipPath id="SVGID_00000178204553584785055630000001479971392806989223_">
			<use xlink:href="#SVGID_00000106131523501655023550000004225979536949300105_"  style="overflow:visible;"/>
		</clipPath>
		<g style="clip-path:url(#SVGID_00000178204553584785055630000001479971392806989223_);">
			
				<use xlink:href="#h"  width="13.6" height="16.5" x="-6.8" y="-8.3" transform="matrix(1 0 0 1 306.0232 617.664)" style="overflow:visible;"/>
		</g>
	</g>
	
		<use xlink:href="#x"  width="14.3" height="16" x="-7.1" y="-8" transform="matrix(1 0 0 1 323.3594 617.6485)" style="overflow:visible;"/>
	
		<use xlink:href="#w"  width="16.4" height="16.5" x="-8.2" y="-8.3" transform="matrix(1 0 0 1 341.8086 617.664)" style="overflow:visible;"/>
	
		<use xlink:href="#e"  width="13.1" height="16" x="-6.6" y="-8" transform="matrix(1 0 0 1 359.6836 617.6486)" style="overflow:visible;"/>
	
		<use xlink:href="#v"  width="12.6" height="16.5" x="-6.3" y="-8.3" transform="matrix(1 0 0 1 374.9995 617.6636)" style="overflow:visible;"/>
	
		<use xlink:href="#f"  width="11.3" height="16" x="-5.7" y="-8" transform="matrix(1 0 0 1 398.1875 617.6487)" style="overflow:visible;"/>
	<g>
		<defs>
			<rect id="SVGID_00000000198239301838289560000012901409208233480366_" x="404.4" y="625.6" width="700" height="700"/>
		</defs>
		<clipPath id="SVGID_00000093173369812859404560000011915094272727129733_">
			<use xlink:href="#SVGID_00000000198239301838289560000012901409208233480366_"  style="overflow:visible;"/>
		</clipPath>
		<g style="clip-path:url(#SVGID_00000093173369812859404560000011915094272727129733_);">
			
				<use xlink:href="#f"  width="11.3" height="16" x="-5.7" y="-8" transform="matrix(1 0 0 1 412.1289 617.6487)" style="overflow:visible;"/>
		</g>
	</g>
	<g>
		<defs>
			<rect id="SVGID_00000132086299038655638190000003643389395805159851_" x="418.4" y="625.6" width="700" height="700"/>
		</defs>
		<clipPath id="SVGID_00000163068035103418534990000012519949646933035660_">
			<use xlink:href="#SVGID_00000132086299038655638190000003643389395805159851_"  style="overflow:visible;"/>
		</clipPath>
		<g style="clip-path:url(#SVGID_00000163068035103418534990000012519949646933035660_);">
			
				<use xlink:href="#e"  width="13.1" height="16" x="-6.6" y="-8" transform="matrix(1 0 0 1 426.9648 617.6486)" style="overflow:visible;"/>
		</g>
	</g>
	
		<use xlink:href="#u"  width="9.3" height="16.6" x="-4.6" y="-8.3" transform="matrix(1 0 0 1 75.0625 639.1875)" style="overflow:visible;"/>
	<g>
		<defs>
			<rect id="SVGID_00000018957649857272743920000017012067239296133543_" x="79.5" y="647.5" width="700" height="700"/>
		</defs>
		<clipPath id="SVGID_00000047774379167439558460000007127563719932002470_">
			<use xlink:href="#SVGID_00000018957649857272743920000017012067239296133543_"  style="overflow:visible;"/>
		</clipPath>
		<g style="clip-path:url(#SVGID_00000047774379167439558460000007127563719932002470_);">
			
				<use xlink:href="#c"  width="8.9" height="12.3" x="-4.4" y="-6.1" transform="matrix(1 0 0 1 85.7972 641.3749)" style="overflow:visible;"/>
		</g>
	</g>
	
		<use xlink:href="#d"  width="13.2" height="12.6" x="-6.6" y="-6.3" transform="matrix(1 0 0 1 97.8202 641.5312)" style="overflow:visible;"/>
	
		<use xlink:href="#t"  width="19.3" height="12.3" x="-9.6" y="-6.1" transform="matrix(1 0 0 1 116.7696 641.3748)" style="overflow:visible;"/>
	<g>
		<defs>
			<rect id="SVGID_00000067216479086363945760000012557098715427749786_" x="135.7" y="647.5" width="700" height="700"/>
		</defs>
		<clipPath id="SVGID_00000081649019791351752900000005105878329516482954_">
			<use xlink:href="#SVGID_00000067216479086363945760000012557098715427749786_"  style="overflow:visible;"/>
		</clipPath>
		<g style="clip-path:url(#SVGID_00000081649019791351752900000005105878329516482954_);">
			
				<use xlink:href="#b"  width="9.7" height="15.4" x="-4.8" y="-7.7" transform="matrix(1 0 0 1 140.8594 639.8207)" style="overflow:visible;"/>
		</g>
	</g>
	
		<use xlink:href="#s"  width="12" height="16.6" x="-6" y="-8.3" transform="matrix(1 0 0 1 154.0504 639.1875)" style="overflow:visible;"/>
	<g>
		<defs>
			<rect id="SVGID_00000080906048910492277470000014289904976071631516_" x="161.8" y="647.5" width="700" height="700"/>
		</defs>
		<clipPath id="SVGID_00000020392715462628309460000013644467551698417567_">
			<use xlink:href="#SVGID_00000080906048910492277470000014289904976071631516_"  style="overflow:visible;"/>
		</clipPath>
		<g style="clip-path:url(#SVGID_00000020392715462628309460000013644467551698417567_);">
			
				<use xlink:href="#a"  width="12.8" height="12.6" x="-6.4" y="-6.3" transform="matrix(1 0 0 1 169.1325 641.5313)" style="overflow:visible;"/>
		</g>
	</g>
	
		<use xlink:href="#r"  width="14.3" height="16" x="-7.1" y="-8" transform="matrix(1 0 0 1 193.3788 639.5235)" style="overflow:visible;"/>
	<g>
		<defs>
			<rect id="SVGID_00000161592246123180335280000007806983841596016824_" x="202.5" y="647.5" width="700" height="700"/>
		</defs>
		<clipPath id="SVGID_00000152952971819371715860000016562206492660522385_">
			<use xlink:href="#SVGID_00000161592246123180335280000007806983841596016824_"  style="overflow:visible;"/>
		</clipPath>
		<g style="clip-path:url(#SVGID_00000152952971819371715860000016562206492660522385_);">
			
				<use xlink:href="#d"  width="13.2" height="12.6" x="-6.6" y="-6.3" transform="matrix(1 0 0 1 210.0468 641.5312)" style="overflow:visible;"/>
		</g>
	</g>
	
		<use xlink:href="#q"  width="12" height="12.3" x="-6" y="-6.1" transform="matrix(1 0 0 1 225.2773 641.6721)" style="overflow:visible;"/>
	
		<use xlink:href="#p"  width="12" height="12.3" x="-6" y="-6.1" transform="matrix(1 0 0 1 240.984 641.3749)" style="overflow:visible;"/>
	<g>
		<defs>
			<rect id="SVGID_00000024684193424431605930000013207786180062332809_" x="256.3" y="647.5" width="700" height="700"/>
		</defs>
		<clipPath id="SVGID_00000074405341483986852240000014474776430791496070_">
			<use xlink:href="#SVGID_00000024684193424431605930000013207786180062332809_"  style="overflow:visible;"/>
		</clipPath>
		<g style="clip-path:url(#SVGID_00000074405341483986852240000014474776430791496070_);">
			
				<use xlink:href="#e"  width="13.1" height="16" x="-6.6" y="-8" transform="matrix(1 0 0 1 264.8984 639.5236)" style="overflow:visible;"/>
		</g>
	</g>
	<g>
		<defs>
			<rect id="SVGID_00000073683974473574130780000013196828186297085312_" x="272.4" y="647.5" width="700" height="700"/>
		</defs>
		<clipPath id="SVGID_00000047773270645610024670000000122095316895466141_">
			<use xlink:href="#SVGID_00000073683974473574130780000013196828186297085312_"  style="overflow:visible;"/>
		</clipPath>
		<g style="clip-path:url(#SVGID_00000047773270645610024670000000122095316895466141_);">
			
				<use xlink:href="#c"  width="8.9" height="12.3" x="-4.4" y="-6.1" transform="matrix(1 0 0 1 278.637 641.3749)" style="overflow:visible;"/>
		</g>
	</g>
	<g>
		<defs>
			<rect id="SVGID_00000153704633282754593870000016745507199021200015_" x="283.1" y="647.5" width="700" height="700"/>
		</defs>
		<clipPath id="SVGID_00000151543702665891105720000018061538178033293193_">
			<use xlink:href="#SVGID_00000153704633282754593870000016745507199021200015_"  style="overflow:visible;"/>
		</clipPath>
		<g style="clip-path:url(#SVGID_00000151543702665891105720000018061538178033293193_);">
			
				<use xlink:href="#d"  width="13.2" height="12.6" x="-6.6" y="-6.3" transform="matrix(1 0 0 1 290.6562 641.5312)" style="overflow:visible;"/>
		</g>
	</g>
	
		<use xlink:href="#o"  width="6.4" height="21.3" x="-3.2" y="-10.7" transform="matrix(1 0 0 1 300.6407 641.5466)" style="overflow:visible;"/>
	<g>
		<defs>
			<rect id="SVGID_00000085247473792904871040000008068929643109383344_" x="305.7" y="647.5" width="700" height="700"/>
		</defs>
		<clipPath id="SVGID_00000139989636850943334480000004464228571021743787_">
			<use xlink:href="#SVGID_00000085247473792904871040000008068929643109383344_"  style="overflow:visible;"/>
		</clipPath>
		<g style="clip-path:url(#SVGID_00000139989636850943334480000004464228571021743787_);">
			
				<use xlink:href="#a"  width="12.8" height="12.6" x="-6.4" y="-6.3" transform="matrix(1 0 0 1 313.027 641.5313)" style="overflow:visible;"/>
		</g>
	</g>
	
		<use xlink:href="#n"  width="10.6" height="12.6" x="-5.3" y="-6.3" transform="matrix(1 0 0 1 326.7227 641.5311)" style="overflow:visible;"/>
	<g>
		<defs>
			<rect id="SVGID_00000161621613196050031930000004870522460275104445_" x="333.5" y="647.5" width="700" height="700"/>
		</defs>
		<clipPath id="SVGID_00000121973025651639925440000005503920206662420644_">
			<use xlink:href="#SVGID_00000161621613196050031930000004870522460275104445_"  style="overflow:visible;"/>
		</clipPath>
		<g style="clip-path:url(#SVGID_00000121973025651639925440000005503920206662420644_);">
			
				<use xlink:href="#b"  width="9.7" height="15.4" x="-4.8" y="-7.7" transform="matrix(1 0 0 1 338.5899 639.8207)" style="overflow:visible;"/>
		</g>
	</g>
</g>
</svg>
