<?xml version="1.0" encoding="UTF-8"?><svg id="q" xmlns="http://www.w3.org/2000/svg" xmlns:xlink="http://www.w3.org/1999/xlink" viewBox="0 0 1325.63 1356.25"><defs><style>.u{fill:none;}.v{clip-path:url(#t);}.w{clip-path:url(#s);}.x{clip-path:url(#r);}</style><symbol id="a" viewBox="0 0 25.69 25.12"><path d="M25.69,12.66v-2.19H7.8c.19-1.79,.83-3.14,1.94-4.03,1.11-.9,2.67-1.34,4.67-1.34,1.6,0,3.25,.23,4.94,.7,1.69,.48,3.42,1.2,5.2,2.17V2.08c-1.8-.69-3.61-1.2-5.42-1.55-1.81-.35-3.62-.53-5.42-.53C9.37,0,6,1.1,3.59,3.3,1.2,5.5,0,8.59,0,12.56s1.18,6.97,3.53,9.2c2.36,2.24,5.61,3.36,9.73,3.36,3.76,0,6.77-1.14,9.03-3.41,2.26-2.26,3.39-5.28,3.39-9.06h0Zm-7.86,2.53c0,1.46-.43,2.63-1.28,3.52-.84,.89-1.95,1.34-3.31,1.34-1.49,0-2.7-.42-3.62-1.25-.92-.84-1.49-2.04-1.72-3.61h9.94Z"/></symbol><symbol id="b" viewBox="0 0 33.42 31.89"><path d="M23.16,5.81H10.3L8.27,0H0L11.81,31.89h9.8L33.42,0h-8.27l-2,5.81Zm-10.81,5.92h8.73l-4.36,12.69-4.38-12.69Z"/></symbol><symbol id="c" viewBox="0 0 27.14 33.09"><path d="M27.14,2.37c-1.51-.78-3.09-1.37-4.73-1.77-1.64-.41-3.34-.61-5.11-.61C11.98,0,7.77,1.48,4.66,4.45,1.55,7.42,0,11.45,0,16.55s1.55,9.12,4.66,12.09c3.11,2.97,7.33,4.45,12.64,4.45,1.77,0,3.47-.2,5.11-.59,1.64-.4,3.22-.99,4.73-1.78v-6.59c-1.53,1.04-3.04,1.8-4.52,2.28-1.48,.49-3.04,.73-4.67,.73-2.94,0-5.25-.95-6.92-2.83-1.68-1.88-2.52-4.46-2.52-7.77s.84-5.88,2.52-7.77c1.68-1.88,3.98-2.81,6.92-2.81,1.63,0,3.19,.24,4.67,.72,1.48,.49,2.98,1.25,4.52,2.3V2.37Z"/></symbol><symbol id="d" viewBox="0 0 28.8 31.89"><path d="M11.69,17.75c1.72,0,2.95,.32,3.7,.95,.75,.64,1.12,1.7,1.12,3.17s-.38,2.48-1.12,3.11c-.75,.63-1.98,.95-3.7,.95h-3.47v-8.19h3.47Zm-3.47-5.69V0H0V31.89H12.56c4.2,0,7.27-.7,9.23-2.11,1.96-1.41,2.94-3.64,2.94-6.69,0-2.11-.51-3.84-1.53-5.19-1.01-1.36-2.54-2.36-4.59-3,1.12-.25,2.13-.83,3.02-1.73,.89-.91,1.8-2.28,2.7-4.11L28.8,0h-8.77l-3.88,7.92c-.79,1.59-1.59,2.68-2.39,3.27-.8,.58-1.88,.88-3.22,.88h-2.33Z"/></symbol><symbol id="e" viewBox="0 0 27.2 33.36"><path d="M0,33.36H7.66l6.42-16.23,5.47,16.23h7.66L17.14,7.17c-1.01-2.66-2.2-4.52-3.55-5.58-1.34-1.06-3.12-1.59-5.33-1.59H3.84V5.02h2.39c1.3,0,2.24,.21,2.83,.62,.59,.41,1.05,1.15,1.39,2.22l.2,.66L0,33.36Z"/></symbol><symbol id="f" viewBox="0 0 25.69 33.86"><path d="M12.73,5.56c1.63,0,2.88,.6,3.75,1.8,.86,1.2,1.3,2.93,1.3,5.2s-.43,4.02-1.3,5.22c-.87,1.2-2.12,1.8-3.75,1.8s-2.89-.61-3.77-1.81c-.88-1.2-1.31-2.93-1.31-5.2s.44-4,1.31-5.2c.88-1.2,2.13-1.8,3.77-1.8h0Zm-5.08,15.48c1.05,1.39,2.22,2.42,3.5,3.08,1.28,.66,2.75,1,4.42,1,2.95,0,5.37-1.17,7.27-3.52,1.89-2.34,2.84-5.36,2.84-9.05s-.95-6.7-2.84-9.05c-1.9-2.34-4.32-3.52-7.27-3.52-1.67,0-3.14,.34-4.42,1s-2.45,1.69-3.5,3.08V.62H0V33.86H7.66v-12.81Z"/></symbol><symbol id="g" viewBox="0 0 25.67 33.86"><path d="M17.98,21.05v12.81h7.69V.63h-7.69v3.45c-1.05-1.41-2.21-2.44-3.48-3.09-1.27-.66-2.74-.98-4.41-.98C7.14,0,4.72,1.17,2.83,3.52,.94,5.86,0,8.88,0,12.56s.94,6.7,2.83,9.05c1.89,2.34,4.32,3.52,7.27,3.52,1.66,0,3.12-.34,4.39-1,1.28-.66,2.45-1.68,3.5-3.08h0ZM12.94,5.56c1.64,0,2.89,.6,3.75,1.8,.86,1.2,1.3,2.93,1.3,5.2s-.43,4.02-1.3,5.22c-.86,1.2-2.11,1.8-3.75,1.8s-2.87-.6-3.73-1.8c-.86-1.2-1.28-2.94-1.28-5.22s.43-4.01,1.28-5.2c.86-1.2,2.11-1.8,3.73-1.8Z"/></symbol><symbol id="h" viewBox="0 0 19.33 30.72"><path d="M11.45,30.72v-6.8h7.88v-5.47h-7.88V8.31c0-1.12,.22-1.87,.66-2.27,.44-.39,1.31-.58,2.62-.58h3.94V0h-6.56c-3.02,0-5.16,.63-6.42,1.89-1.26,1.26-1.89,3.4-1.89,6.42v10.14H0v5.47H3.8v6.8h7.66Z"/></symbol><symbol id="i" viewBox="0 0 24.2 25.12"><path d="M12.52,11.39c-1.59,0-2.79-.27-3.59-.81-.8-.54-1.2-1.34-1.2-2.39,0-.97,.32-1.73,.97-2.28,.64-.54,1.55-.81,2.7-.81,1.44,0,2.64,.52,3.62,1.55,.99,1.03,1.48,2.32,1.48,3.88v.88h-3.98Zm11.69,2.89V.62h-7.7v3.55c-1.03-1.45-2.19-2.51-3.47-3.17s-2.84-1-4.67-1C5.88,0,3.86,.72,2.31,2.17,.77,3.62,0,5.49,0,7.8c0,2.81,.96,4.87,2.89,6.17,1.94,1.31,4.97,1.97,9.09,1.97h4.52v.61c0,1.21-.48,2.09-1.44,2.66-.95,.56-2.44,.84-4.47,.84-1.64,0-3.16-.17-4.56-.5-1.41-.32-2.72-.81-3.94-1.47v5.83c1.64,.41,3.29,.71,4.94,.91,1.66,.21,3.3,.31,4.95,.31,4.32,0,7.44-.86,9.34-2.56,1.91-1.7,2.88-4.46,2.88-8.28h0Z"/></symbol><symbol id="j" viewBox="0 0 17.78 24.5"><path d="M17.78,17.41c-.68,.31-1.35,.54-2.02,.69-.66,.16-1.32,.23-1.98,.23-1.97,0-3.48-.63-4.55-1.89-1.05-1.26-1.58-3.07-1.58-5.42V0H0V23.92H7.66v-3.92c.98,1.56,2.1,2.7,3.38,3.42,1.28,.72,2.81,1.08,4.59,1.08,.25,0,.52-.01,.83-.03,.3-.02,.73-.07,1.3-.14l.03-6.92Z"/></symbol><symbol id="k" viewBox="0 0 8.22 31.89"><path d="M0,31.89H8.22V0H0V31.89Z"/></symbol><symbol id="l" viewBox="0 0 45.59 31.89"><path d="M0,31.89H7.89L13.41,8.72l5.47,23.17h7.92l5.47-23.17,5.52,23.17h7.81L38.08,0h-9.48l-5.8,24.25L17.08,0H7.59L0,31.89Z"/></symbol><symbol id="m" viewBox="0 0 30.02 31.89"><path d="M8.22,25.67V6.22h2.95c3.36,0,5.93,.83,7.7,2.5,1.77,1.66,2.66,4.09,2.66,7.27s-.89,5.55-2.66,7.2c-1.76,1.66-4.33,2.48-7.7,2.48h-2.95ZM0,31.89H8.67c4.84,0,8.45-.34,10.81-1.03,2.38-.69,4.41-1.86,6.11-3.52,1.49-1.44,2.6-3.1,3.33-4.98,.73-1.88,1.09-4,1.09-6.38s-.37-4.56-1.09-6.45c-.73-1.89-1.84-3.55-3.33-4.98-1.71-1.65-3.76-2.82-6.16-3.52-2.4-.69-5.98-1.03-10.77-1.03H0V31.89Z"/></symbol><symbol id="n" viewBox="0 0 29.39 31.89"><path d="M0,31.89H29.39v-6.22h-10.58V0H10.59V25.67H0v6.22Z"/></symbol><symbol id="o" viewBox="0 0 35.48 31.89"><path d="M0,31.89H10.47l7.27-17.06,7.3,17.06h10.45V0h-7.78V23.33L20.36,6.12h-5.22L7.8,23.33V0H0V31.89Z"/></symbol><symbol id="p" viewBox="0 0 28.58 31.89"><path d="M0,31.89H8.22v-12.16h12.14v12.16h8.22V0h-8.22V13.52H8.22V0H0V31.89Z"/></symbol><clipPath id="r"><rect class="u" x="131.62" y="656.25" width="700" height="700"/></clipPath><clipPath id="s"><rect class="u" x="430.61" y="656.25" width="700" height="700"/></clipPath><clipPath id="t"><rect class="u" x="625.63" y="656.25" width="700" height="700"/></clipPath></defs><path d="M409.08,43.75c-2.33,0-4.55,.92-6.19,2.56s-2.56,3.87-2.56,6.19v96.25c0,4.83,3.92,8.75,8.75,8.75h105c4.84,0,8.75-3.92,8.75-8.75V78.75c0-4.83-3.91-8.75-8.75-8.75h-52.5v-17.5c0-4.83-3.92-8.75-8.75-8.75h-17.5V8.75c0-4.83-3.92-8.75-8.75-8.75H164.08c-4.84,0-8.75,3.92-8.75,8.75v61.41c-60.93,1.6-122.5,19.8-122.5,52.34v253.75c0,32.54,61.57,50.74,122.5,52.34v52.66c0,4.83,3.91,8.75,8.75,8.75H426.58c4.83,0,8.75-3.92,8.75-8.75v-43.75h78.75c4.84,0,8.75-3.92,8.75-8.75v-70c0-4.83-3.91-8.75-8.75-8.75h-52.5v-17.5c0-4.83-3.92-8.75-8.75-8.75h-43.75c-2.33,0-4.55,.92-6.19,2.56s-2.56,3.87-2.56,6.19v96.25c0,4.83,3.92,8.75,8.75,8.75h8.75v35H172.83v-43.91c60.92-1.6,122.5-19.8,122.5-52.34v-122.5h105v35c0,4.83,3.92,8.75,8.75,8.75h105c4.84,0,8.75-3.92,8.75-8.75v-70c0-4.83-3.91-8.75-8.75-8.75h-52.5v-17.5c0-4.83-3.92-8.75-8.75-8.75h-43.75c-2.33,0-4.55,.92-6.19,2.56s-2.56,3.87-2.56,6.19v43.75h-105V122.5c0-32.54-61.58-50.74-122.5-52.34V17.5h245v26.25h-8.75Zm35,297.5v17.5c0,4.83,3.91,8.75,8.75,8.75h52.5v52.5h-87.5v-78.75h26.25Zm0-140v17.5c0,4.83,3.91,8.75,8.75,8.75h52.5v52.5h-87.5v-78.75h26.25Zm-166.25,87.5c0,14.27-44.31,35-113.75,35s-113.75-20.73-113.75-35v-60.31c24.21,16.58,69.92,25.31,113.75,25.31s89.53-8.73,113.75-25.31v60.31Zm0-87.5c0,14.27-44.31,35-113.75,35s-113.75-20.73-113.75-35v-51.56c24.21,16.58,69.92,25.31,113.75,25.31s89.53-8.73,113.75-25.31v51.56Zm-113.75,210c-69.44,0-113.75-20.73-113.75-35v-60.31c24.21,16.58,69.92,25.31,113.75,25.31s89.53-8.73,113.75-25.31v60.31c0,14.27-44.31,35-113.75,35ZM277.83,122.5c0,14.27-44.31,35-113.75,35s-113.75-20.73-113.75-35,40.65-33.18,105-34.83v34.83c0,4.83,3.91,8.75,8.75,8.75s8.75-3.92,8.75-8.75v-34.83c64.35,1.65,105,21.17,105,34.83Zm175-35h52.5v52.5h-87.5V61.25h26.25v17.5c0,4.83,3.91,8.75,8.75,8.75Z"/><use width="27.14" height="33.09" transform="translate(0 656.87) scale(1 -1)" xlink:href="#c"/><use width="17.78" height="24.5" transform="translate(33.61 656.25) scale(1 -1)" xlink:href="#j"/><use width="25.69" height="25.12" transform="translate(53.39 656.88) scale(1 -1)" xlink:href="#a"/><use width="24.2" height="25.12" transform="translate(83.06 656.87) scale(1 -1)" xlink:href="#i"/><use width="19.33" height="30.72" transform="translate(111.29 656.25) scale(1 -1)" xlink:href="#h"/><g class="x"><use width="25.69" height="25.12" transform="translate(133.5 656.88) scale(1 -1)" xlink:href="#a"/></g><use width="25.67" height="33.86" transform="translate(163.26 656.88) scale(1 -1)" xlink:href="#g"/><use width="25.69" height="33.86" transform="translate(211.51 656.88) scale(1 -1)" xlink:href="#f"/><use width="27.2" height="33.36" transform="translate(239.69 665.69) scale(1 -1)" xlink:href="#e"/><use width="28.8" height="31.89" transform="translate(286.92 656.25) scale(1 -1)" xlink:href="#d"/><use width="33.42" height="31.89" transform="translate(316.82 656.25) scale(1 -1)" xlink:href="#b"/><use width="28.58" height="31.89" transform="translate(354.47 656.25) scale(1 -1)" xlink:href="#p"/><use width="35.48" height="31.89" transform="translate(391.09 656.25) scale(1 -1)" xlink:href="#o"/><g class="w"><use width="33.42" height="31.89" transform="translate(430.83 656.25) scale(1 -1)" xlink:href="#b"/></g><use width="29.39" height="31.89" transform="translate(464.68 656.25) scale(1 -1)" xlink:href="#n"/><use width="30.02" height="31.89" transform="translate(513.55 656.25) scale(1 -1)" xlink:href="#m"/><use width="45.59" height="31.89" transform="translate(547.15 656.25) scale(1 -1)" xlink:href="#l"/><use width="8.22" height="31.89" transform="translate(598.13 656.25) scale(1 -1)" xlink:href="#k"/><g class="v"><use width="27.14" height="33.09" transform="translate(627.8 656.87) scale(1 -1)" xlink:href="#c"/></g></svg>