<?xml version="1.0" encoding="utf-8"?>
<!-- Generator: Adobe Illustrator 26.2.1, SVG Export Plug-In . SVG Version: 6.00 Build 0)  -->
<svg version="1.1" id="Layer_1" xmlns="http://www.w3.org/2000/svg" xmlns:xlink="http://www.w3.org/1999/xlink" x="0px" y="0px"
	 viewBox="0 0 700 565.9" style="enable-background:new 0 0 700 565.9;" xml:space="preserve">
<symbol  id="a" viewBox="-12.4 -12.2 24.9 24.4">
	<path d="M12.4-0.1V2H-4.9C-4.7,3.8-4.1,5.1-3,6c1.1,0.9,2.6,1.3,4.5,1.3c1.6,0,3.2-0.2,4.8-0.7c1.6-0.5,3.3-1.2,5-2.1v5.7
		c-1.8,0.7-3.5,1.2-5.3,1.5c-1.8,0.3-3.5,0.5-5.3,0.5c-4.2,0-7.5-1.1-9.8-3.2c-2.3-2.1-3.5-5.1-3.5-9c0-3.8,1.1-6.8,3.4-8.9
		c2.3-2.2,5.4-3.3,9.4-3.3c3.6,0,6.6,1.1,8.8,3.3C11.4-6.7,12.4-3.7,12.4-0.1L12.4-0.1z M4.8-2.5c0-1.4-0.4-2.5-1.2-3.4
		C2.8-6.8,1.7-7.2,0.4-7.2c-1.4,0-2.6,0.4-3.5,1.2c-0.9,0.8-1.5,2-1.7,3.5L4.8-2.5z"/>
</symbol>
<symbol  id="b" viewBox="-9.4 -14.9 18.7 29.8">
	<path d="M1.7-14.9v6.6h7.7V-3H1.7v9.8c0,1.1,0.2,1.8,0.6,2.2c0.4,0.4,1.3,0.6,2.6,0.6h3.8v5.3H2.4c-2.9,0-5-0.6-6.2-1.8
		c-1.2-1.2-1.8-3.3-1.8-6.2V-3h-3.7v-5.3h3.7v-6.6H1.7z"/>
</symbol>
<symbol  id="c" viewBox="-8.6 -11.9 17.2 23.8">
	<path d="M8.6-5C8-5.3,7.3-5.5,6.7-5.7C6-5.8,5.4-5.9,4.7-5.9c-1.9,0-3.4,0.6-4.4,1.8c-1,1.2-1.5,3-1.5,5.2v10.7h-7.4v-23.2h7.4v3.8
		c0.9-1.5,2-2.6,3.3-3.3c1.2-0.7,2.7-1,4.5-1c0.2,0,0.5,0,0.8,0c0.3,0,0.7,0.1,1.3,0.1L8.6-5z"/>
</symbol>
<symbol  id="d" viewBox="-3.7 -16.1 7.4 32.2">
	<path d="M-3.7-7.1h7.4v23.2h-7.4V-7.1z M-3.7-16.1h7.4v6h-7.4V-16.1z"/>
</symbol>
<symbol  id="e" viewBox="-13.2 -16 26.3 32.1">
	<path d="M13.2,13.7c-1.5,0.8-3,1.3-4.6,1.7C7,15.8,5.3,16,3.6,16c-5.2,0-9.2-1.4-12.2-4.3c-3-2.9-4.5-6.8-4.5-11.7
		s1.5-8.8,4.5-11.7c3-2.9,7.1-4.3,12.2-4.3c1.7,0,3.4,0.2,5,0.6c1.6,0.4,3.1,1,4.6,1.7v6.4c-1.5-1-2.9-1.8-4.4-2.2s-2.9-0.7-4.5-0.7
		c-2.8,0-5.1,0.9-6.7,2.7C-4.1-5.7-4.9-3.2-4.9,0c0,3.2,0.8,5.7,2.4,7.5c1.6,1.8,3.9,2.7,6.7,2.7c1.6,0,3.1-0.2,4.5-0.7
		c1.4-0.5,2.9-1.2,4.4-2.2V13.7z"/>
</symbol>
<symbol  id="f" viewBox="-14.6 -15.5 29.1 30.9">
	<path d="M-6.6-9.4V9.4h2.9C-0.5,9.4,2,8.6,3.7,7c1.7-1.6,2.6-4,2.6-7c0-3.1-0.9-5.4-2.6-7C2-8.6-0.4-9.4-3.7-9.4L-6.6-9.4z
		 M-14.6-15.5h8.4c4.7,0,8.2,0.3,10.5,1c2.3,0.7,4.3,1.8,5.9,3.4c1.5,1.4,2.5,3,3.2,4.8c0.7,1.8,1.1,3.9,1.1,6.2
		c0,2.3-0.4,4.4-1.1,6.2c-0.7,1.8-1.8,3.4-3.2,4.8c-1.7,1.6-3.6,2.7-6,3.4c-2.3,0.7-5.8,1-10.4,1h-8.4L-14.6-15.5z"/>
</symbol>
<symbol  id="g" viewBox="-13.2 -16.2 26.4 32.4">
	<path d="M-13.2-16.2h7.4L0.5-0.4l5.3-15.8h7.4L3.4,9.2c-1,2.6-2.1,4.4-3.4,5.4c-1.3,1-3,1.5-5.2,1.5h-4.3v-4.9h2.3
		c1.3,0,2.2-0.2,2.7-0.6c0.6-0.4,1-1.1,1.3-2.2l0.2-0.6L-13.2-16.2z"/>
</symbol>
<symbol  id="h" viewBox="-12.4 -16.4 24.9 32.8">
	<path d="M-0.1,11c1.6,0,2.8-0.6,3.6-1.7c0.8-1.2,1.2-2.9,1.2-5.1c0-2.2-0.4-3.9-1.2-5C2.7-2,1.5-2.6-0.1-2.6
		c-1.6,0-2.8,0.6-3.7,1.8C-4.6,0.4-5,2-5,4.2c0,2.2,0.4,3.9,1.3,5C-2.9,10.5-1.7,11-0.1,11z M-5-4c1-1.4,2.1-2.4,3.4-3
		c1.2-0.6,2.7-1,4.3-1c2.9,0,5.2,1.1,7,3.4c1.8,2.3,2.8,5.2,2.8,8.8c0,3.6-0.9,6.5-2.8,8.8c-1.8,2.3-4.2,3.4-7,3.4
		c-1.6,0-3-0.3-4.3-1c-1.2-0.6-2.4-1.6-3.4-3v3.4h-7.4v-32.2H-5V-4z"/>
</symbol>
<symbol  id="i" viewBox="-12.4 -16.4 24.9 32.8">
	<path d="M5-4v-12.4h7.5v32.2H5v-3.4c-1,1.4-2.1,2.4-3.4,3c-1.2,0.6-2.7,1-4.3,1c-2.9,0-5.2-1.1-7-3.4c-1.8-2.3-2.8-5.2-2.8-8.8
		c0-3.6,0.9-6.5,2.8-8.8c1.8-2.3,4.2-3.4,7-3.4c1.6,0,3,0.3,4.2,1C2.8-6.3,4-5.3,5-4L5-4z M0.1,11c1.6,0,2.8-0.6,3.6-1.7
		C4.6,8.1,5,6.5,5,4.2c0-2.2-0.4-3.9-1.2-5C2.9-2,1.7-2.6,0.1-2.6c-1.6,0-2.8,0.6-3.6,1.8c-0.8,1.2-1.2,2.8-1.2,5
		c0,2.2,0.4,3.9,1.2,5.1C-2.7,10.5-1.5,11,0.1,11z"/>
</symbol>
<symbol  id="j" viewBox="-11.7 -12.2 23.5 24.4">
	<path d="M0.4,1.1c-1.6,0-2.7,0.3-3.5,0.8c-0.8,0.5-1.2,1.3-1.2,2.3c0,0.9,0.3,1.7,0.9,2.2C-2.7,7-1.8,7.3-0.7,7.3
		c1.4,0,2.6-0.5,3.5-1.5c1-1,1.4-2.3,1.4-3.8V1.1L0.4,1.1z M11.7-1.6v13.2H4.2V8.1c-1,1.4-2.1,2.4-3.4,3.1c-1.2,0.6-2.8,1-4.5,1
		c-2.4,0-4.4-0.7-5.9-2.1c-1.5-1.4-2.2-3.2-2.2-5.5c0-2.7,0.9-4.7,2.8-6c1.9-1.3,4.8-1.9,8.8-1.9h4.4v-0.6c0-1.2-0.5-2-1.4-2.6
		C1.9-7,0.5-7.2-1.5-7.2c-1.6,0-3.1,0.2-4.4,0.5C-7.3-6.4-8.5-6-9.7-5.3V-11c1.6-0.4,3.2-0.7,4.8-0.9c1.6-0.2,3.2-0.3,4.8-0.3
		c4.2,0,7.2,0.8,9.1,2.5C10.8-8,11.7-5.4,11.7-1.6L11.7-1.6z"/>
</symbol>
<symbol  id="k" viewBox="-6.2 -20.7 12.4 41.4">
	<path d="M-1.2-11.7h7.4v22.8c0,3.1-0.8,5.5-2.3,7.1c-1.5,1.6-3.7,2.5-6.5,2.5h-3.7v-4.9h1.3c1.4,0,2.4-0.3,2.9-1
		c0.5-0.6,0.8-1.9,0.8-3.8L-1.2-11.7z M-1.2-20.7h7.4v6h-7.4V-20.7z"/>
</symbol>
<symbol  id="l" viewBox="-12.7 -15.5 25.5 30.9">
	<path d="M-12.7-15.5H0.5c3.9,0,7,0.9,9.1,2.6c2.1,1.7,3.2,4.2,3.2,7.5c0,3.2-1.1,5.8-3.2,7.5C7.5,3.9,4.4,4.7,0.5,4.7h-5.2v10.7h-8
		L-12.7-15.5z M-4.7-9.7v8.6h4.4c1.5,0,2.7-0.4,3.6-1.1S4.5-4,4.5-5.4c0-1.4-0.4-2.4-1.3-3.2c-0.8-0.8-2-1.1-3.6-1.1H-4.7z"/>
</symbol>
<symbol  id="m" viewBox="-13.9 -15.5 27.7 30.9">
	<path d="M-13.9-15.5H-5L6.3,5.7v-21.2h7.6v30.9H5L-6.3-5.8v21.2h-7.6V-15.5z"/>
</symbol>
<symbol  id="n" viewBox="-11.7 -16.1 23.3 32.2">
	<path d="M11.7,2v14.1H4.2V5.4c0-2,0-3.4-0.1-4.2C4,0.4,3.8-0.2,3.6-0.5C3.3-1,2.9-1.4,2.4-1.6C1.9-1.9,1.4-2.1,0.7-2.1
		c-1.6,0-2.8,0.6-3.7,1.8c-0.9,1.2-1.3,2.9-1.3,5v11.4h-7.4v-32.2h7.4v12.4C-3.1-5-1.9-6-0.7-6.7c1.3-0.6,2.6-1,4.2-1
		c2.7,0,4.7,0.8,6.1,2.5C11-3.5,11.7-1.1,11.7,2L11.7,2z"/>
</symbol>
<symbol  id="o" viewBox="-9 -16.1 18 32.2">
	<path d="M9-16.1v4.9H4.9c-1.1,0-1.8,0.2-2.2,0.6c-0.4,0.4-0.6,1-0.6,2v1.6h6.3v5.3H2.1v17.9h-7.4V-1.8H-9v-5.3h3.7v-1.6
		c0-2.5,0.7-4.4,2.1-5.6c1.4-1.2,3.6-1.8,6.5-1.8L9-16.1z"/>
</symbol>
<symbol  id="p" viewBox="-3.7 -16.1 7.4 32.2">
	<path d="M-3.7-16.1h7.4v32.2h-7.4V-16.1z"/>
</symbol>
<symbol  id="q" viewBox="-10.2 -12.2 20.5 24.4">
	<path d="M10.2-10.9v6c-1-0.7-2-1.2-3-1.5C6.2-6.7,5.1-6.9,4-6.9C2-6.9,0.4-6.3-0.8-5.1C-1.9-3.8-2.5-2.2-2.5,0
		c0,2.2,0.6,3.9,1.7,5.1C0.4,6.3,2,6.9,4,6.9c1.2,0,2.3-0.2,3.3-0.5c1-0.3,2-0.9,2.9-1.5v6.1c-1.2,0.4-2.4,0.7-3.5,1
		c-1.2,0.2-2.4,0.3-3.6,0.3c-4.2,0-7.5-1.1-9.8-3.2c-2.4-2.1-3.5-5.1-3.5-9c0-3.8,1.2-6.8,3.5-9c2.4-2.2,5.6-3.2,9.8-3.2
		c1.2,0,2.4,0.1,3.6,0.3C7.9-11.6,9.1-11.3,10.2-10.9L10.2-10.9z"/>
</symbol>
<symbol  id="r" viewBox="-11.7 -11.9 23.3 23.8">
	<path d="M11.7-2.2v14.1H4.2V1.1c0-2,0-3.4-0.1-4.1C4-3.8,3.8-4.4,3.6-4.8C3.3-5.2,2.9-5.6,2.4-5.9C1.9-6.2,1.4-6.3,0.7-6.3
		c-1.6,0-2.8,0.6-3.7,1.8c-0.9,1.2-1.3,2.9-1.3,5v11.4h-7.4v-23.2h7.4v3.4c1.1-1.4,2.3-2.4,3.5-3c1.3-0.6,2.6-1,4.2-1
		c2.7,0,4.7,0.8,6.1,2.5C11-7.8,11.7-5.4,11.7-2.2L11.7-2.2z"/>
</symbol>
<symbol  id="s" viewBox="-12.4 -16.4 24.9 32.9">
	<path d="M5,3.3c-1,1.4-2.1,2.4-3.4,3C0.4,7-1,7.3-2.6,7.3c-2.8,0-5.2-1.1-7-3.3c-1.8-2.2-2.8-5.1-2.8-8.5c0-3.5,0.9-6.3,2.8-8.5
		c1.9-2.2,4.2-3.3,7-3.3c1.6,0,3,0.3,4.3,1c1.2,0.6,2.4,1.6,3.4,3v-3.4h7.5V4.9c0,3.7-1.2,6.6-3.5,8.5c-2.4,2-5.8,3-10.2,3
		c-1.4,0-2.9-0.1-4.2-0.3c-1.4-0.2-2.7-0.6-4.1-1V9.3c1.3,0.8,2.6,1.3,3.8,1.7c1.2,0.4,2.5,0.5,3.8,0.5c2.4,0,4.2-0.5,5.3-1.6
		C4.4,8.9,5,7.2,5,4.9L5,3.3z M0.1-11.1c-1.5,0-2.7,0.6-3.6,1.7c-0.9,1.1-1.3,2.7-1.3,4.8c0,2.1,0.4,3.8,1.2,4.8
		c0.8,1.1,2,1.6,3.6,1.6c1.6,0,2.8-0.6,3.6-1.7C4.6-0.9,5-2.5,5-4.6S4.6-8.3,3.7-9.4C2.9-10.5,1.7-11.1,0.1-11.1L0.1-11.1z"/>
</symbol>
<symbol  id="t" viewBox="-10.5 -12.2 21 24.4">
	<path d="M9-10.9v5.6C7.4-5.9,5.9-6.4,4.4-6.7C2.9-7.1,1.5-7.2,0.2-7.2c-1.4,0-2.5,0.2-3.1,0.5c-0.7,0.4-1,0.9-1,1.6
		C-4-4.5-3.7-4-3.2-3.7C-2.7-3.4-1.8-3.2-0.4-3l1.3,0.2c3.8,0.5,6.4,1.3,7.7,2.4c1.3,1.1,2,2.8,2,5.2c0,2.5-0.9,4.3-2.7,5.6
		c-1.8,1.2-4.5,1.9-8.2,1.9c-1.5,0-3.1-0.1-4.8-0.4c-1.6-0.2-3.3-0.6-5-1.1V5.1c1.5,0.7,3,1.3,4.5,1.6c1.6,0.4,3.1,0.5,4.7,0.5
		c1.4,0,2.5-0.2,3.3-0.6c0.7-0.4,1.1-1,1.1-1.8c0-0.7-0.3-1.1-0.8-1.5c-0.5-0.3-1.5-0.6-3-0.8l-1.3-0.2c-3.3-0.4-5.6-1.2-6.9-2.3
		c-1.3-1.1-2-2.8-2-5.1c0-2.5,0.8-4.3,2.5-5.5c1.7-1.2,4.3-1.8,7.7-1.8c1.4,0,2.8,0.1,4.3,0.3C5.6-11.7,7.2-11.3,9-10.9L9-10.9z"/>
</symbol>
<g>
	<path d="M576.7,8.5H123.3c-24.7,0-44.8,20.1-44.8,44.8v362c0,24.7,20.1,44.8,44.8,44.8h157v75.1h-24.6c-4.6,0-8.2,3.6-8.2,8.2
		c0,4.6,3.6,8.1,8.2,8.1h188.6c4.6,0,8.2-3.6,8.2-8.2c0-4.6-3.6-8.2-8.2-8.2h-24.6V460h157.1c24.7,0,44.8-20.1,44.8-44.8V53.3
		C621.5,28.6,601.4,8.5,576.7,8.5L576.7,8.5z M123.3,24.9h453.5c15.6,0,28.3,12.7,28.3,28.3v330.2H94.9V53.3
		C94.9,37.7,107.7,24.9,123.3,24.9L123.3,24.9z M403.2,535.1H296.8V460h106.4V535.1z M605.1,415.3c0,15.6-12.7,28.3-28.3,28.3
		l-453.4,0c-15.6,0-28.3-12.7-28.3-28.3V400h510.1V415.3z"/>
	<path d="M141.4,342.5h417c4.6,0,8.2-3.6,8.2-8.2V69.7c0-4.6-3.6-8.2-8.2-8.2h-417c-4.6,0-8.2,3.6-8.2,8.2v264.5
		C133.2,338.7,136.9,342.5,141.4,342.5z M149.7,78h400.5v248H149.7V78z"/>
	<path d="M321.1,430h58c4.6,0,8.2-3.6,8.2-8.2s-3.6-8.2-8.2-8.2h-58c-4.6,0-8.2,3.6-8.2,8.2S316.5,430,321.1,430z"/>
	<path d="M445.7,170.3c-2.6,2.6-5.6,5-8.7,7.1l-62.6-62.6c2.1-3.1,4.4-5.9,7.1-8.7c3.2-3.2,3.2-8.4,0-11.6c-3.2-3.2-8.4-3.2-11.6,0
		c-5.5,5.5-9.8,11.6-13.6,18.2c0,0.1-0.1,0.1-0.1,0.2c-16,28.3-16.4,63-15.4,80c-16.9-1-51.7-0.5-80.1,15.4c-0.1,0-0.2,0.1-0.3,0.1
		c-6.4,3.6-12.6,8.1-18.1,13.5c-3.2,3.2-3.2,8.4,0,11.6c3.2,3.2,8.4,3.2,11.6,0c2.6-2.6,5.6-5,8.7-7.1l62.6,62.6
		c-2.1,3.1-4.4,5.9-7.1,8.7c-3.2,3.2-3.2,8.4,0,11.6c1.6,1.6,3.7,2.4,5.9,2.4s4.2-0.8,5.9-2.4c5.5-5.5,9.8-11.6,13.6-18.2
		c0-0.1,0.1-0.1,0.1-0.2c16-28.3,16.4-63,15.4-80c3.1,0.2,6.8,0.3,11,0.3c23.8,0,62.3-4.4,87.3-29.4c3.2-3.2,3.2-8.4,0-11.6
		C454.1,167.1,448.9,167.1,445.7,170.3L445.7,170.3z M422,185.6c-4.3,1.8-8.8,3.3-13.3,4.5l-47-47c1.2-4.5,2.6-8.9,4.5-13.3
		L422,185.6z M342.4,209.5c0.5,6.9,0.8,18.5-0.7,31.6l-31-31C323.9,208.6,335.5,209,342.4,209.5L342.4,209.5z M277.8,218.2
		c4.3-1.8,8.8-3.3,13.3-4.5l47,47c-1.2,4.5-2.6,8.9-4.5,13.3L277.8,218.2z M357.5,194.5c-0.5-6.9-0.8-18.5,0.7-31.6l31,31
		C376,195.2,364.3,194.9,357.5,194.5L357.5,194.5z"/>
	<path d="M187.5,125.1h89.6c4.6,0,8.2-3.6,8.2-8.2c0-4.6-3.6-8.2-8.2-8.2h-89.6c-4.6,0-8.2,3.6-8.2,8.2
		C179.3,121.4,183,125.1,187.5,125.1L187.5,125.1z"/>
	<path d="M257,167.4c4.6,0,8.2-3.6,8.2-8.2s-3.6-8.2-8.2-8.2h-13.8c-4.6,0-8.2,3.6-8.2,8.2s3.6,8.2,8.2,8.2H257z"/>
	<path d="M218.5,150.9h-31c-4.6,0-8.2,3.6-8.2,8.2s3.6,8.2,8.2,8.2h31c4.6,0,8.2-3.6,8.2-8.2C226.7,154.7,223,150.9,218.5,150.9z"/>
	
		<use xlink:href="#e"  width="26.3" height="32.1" x="-13.2" y="-16" transform="matrix(1 0 0 1 85.2657 671.8279)" style="overflow:visible;"/>
	
		<use xlink:href="#c"  width="17.2" height="23.8" x="-8.6" y="-11.9" transform="matrix(1 0 0 1 113.3127 675.3912)" style="overflow:visible;"/>
	
		<use xlink:href="#a"  width="24.9" height="24.4" x="-12.4" y="-12.2" transform="matrix(1 0 0 1 136.3325 675.6879)" style="overflow:visible;"/>
	
		<use xlink:href="#j"  width="23.5" height="24.4" x="-11.7" y="-12.2" transform="matrix(1 0 0 1 164.3907 675.6866)" style="overflow:visible;"/>
	
		<use xlink:href="#b"  width="18.7" height="29.8" x="-9.4" y="-14.9" transform="matrix(1 0 0 1 189.3942 672.3831)" style="overflow:visible;"/>
	<g>
		<defs>
			<rect id="SVGID_1_" x="199.7" y="687.3" width="700" height="700"/>
		</defs>
		<clipPath id="SVGID_00000057856843053795894190000012406528574415976072_">
			<use xlink:href="#SVGID_1_"  style="overflow:visible;"/>
		</clipPath>
		<g style="clip-path:url(#SVGID_00000057856843053795894190000012406528574415976072_);">
			
				<use xlink:href="#a"  width="24.9" height="24.4" x="-12.4" y="-12.2" transform="matrix(1 0 0 1 214.0122 675.6879)" style="overflow:visible;"/>
		</g>
	</g>
	
		<use xlink:href="#i"  width="24.9" height="32.8" x="-12.4" y="-16.4" transform="matrix(1 0 0 1 242.8635 671.4523)" style="overflow:visible;"/>
	
		<use xlink:href="#h"  width="24.9" height="32.8" x="-12.4" y="-16.4" transform="matrix(1 0 0 1 289.6559 671.4529)" style="overflow:visible;"/>
	
		<use xlink:href="#g"  width="26.4" height="32.4" x="-13.2" y="-16.2" transform="matrix(1 0 0 1 317.7188 680.25)" style="overflow:visible;"/>
	
		<use xlink:href="#f"  width="29.1" height="30.9" x="-14.6" y="-15.5" transform="matrix(1 0 0 1 364.8864 671.8121)" style="overflow:visible;"/>
	<g>
		<defs>
			<rect id="SVGID_00000147191742034844447860000002460947417270788741_" x="381.7" y="687.3" width="700" height="700"/>
		</defs>
		<clipPath id="SVGID_00000154387394079281045990000016006234391054854580_">
			<use xlink:href="#SVGID_00000147191742034844447860000002460947417270788741_"  style="overflow:visible;"/>
		</clipPath>
		<g style="clip-path:url(#SVGID_00000154387394079281045990000016006234391054854580_);">
			
				<use xlink:href="#a"  width="24.9" height="24.4" x="-12.4" y="-12.2" transform="matrix(1 0 0 1 395.9301 675.6879)" style="overflow:visible;"/>
		</g>
	</g>
	
		<use xlink:href="#t"  width="21" height="24.4" x="-10.5" y="-12.2" transform="matrix(1 0 0 1 423.1489 675.6871)" style="overflow:visible;"/>
	
		<use xlink:href="#d"  width="7.4" height="32.2" x="-3.7" y="-16.1" transform="matrix(1 0 0 1 442.9531 671.1563)" style="overflow:visible;"/>
	
		<use xlink:href="#s"  width="24.9" height="32.9" x="-12.4" y="-16.4" transform="matrix(1 0 0 1 464.5745 679.9921)" style="overflow:visible;"/>
	
		<use xlink:href="#r"  width="23.3" height="23.8" x="-11.7" y="-11.9" transform="matrix(1 0 0 1 495.8169 675.391)" style="overflow:visible;"/>
	<g>
		<defs>
			<rect id="SVGID_00000183251375207199093320000007747655675525240709_" x="525.6" y="687.3" width="700" height="700"/>
		</defs>
		<clipPath id="SVGID_00000033365320798220650390000014407908328410679729_">
			<use xlink:href="#SVGID_00000183251375207199093320000007747655675525240709_"  style="overflow:visible;"/>
		</clipPath>
		<g style="clip-path:url(#SVGID_00000033365320798220650390000014407908328410679729_);">
			
				<use xlink:href="#e"  width="26.3" height="32.1" x="-13.2" y="-16" transform="matrix(1 0 0 1 540.8282 671.8279)" style="overflow:visible;"/>
		</g>
	</g>
	<g>
		<defs>
			<rect id="SVGID_00000122697980298154588810000013193030716975342001_" x="556.7" y="687.3" width="700" height="700"/>
		</defs>
		<clipPath id="SVGID_00000111173123601793099830000006045553868476156062_">
			<use xlink:href="#SVGID_00000122697980298154588810000013193030716975342001_"  style="overflow:visible;"/>
		</clipPath>
		<g style="clip-path:url(#SVGID_00000111173123601793099830000006045553868476156062_);">
			
				<use xlink:href="#d"  width="7.4" height="32.2" x="-3.7" y="-16.1" transform="matrix(1 0 0 1 563.9727 671.1563)" style="overflow:visible;"/>
		</g>
	</g>
	<g>
		<defs>
			<rect id="SVGID_00000140700167789249809380000014039247698067838893_" x="571.2" y="687.3" width="700" height="700"/>
		</defs>
		<clipPath id="SVGID_00000103250442279275459550000008635017585315291051_">
			<use xlink:href="#SVGID_00000140700167789249809380000014039247698067838893_"  style="overflow:visible;"/>
		</clipPath>
		<g style="clip-path:url(#SVGID_00000103250442279275459550000008635017585315291051_);">
			
				<use xlink:href="#c"  width="17.2" height="23.8" x="-8.6" y="-11.9" transform="matrix(1 0 0 1 583.4182 675.3912)" style="overflow:visible;"/>
		</g>
	</g>
	
		<use xlink:href="#q"  width="20.5" height="24.4" x="-10.2" y="-12.2" transform="matrix(1 0 0 1 604.23 675.6874)" style="overflow:visible;"/>
	
		<use xlink:href="#p"  width="7.4" height="32.2" x="-3.7" y="-16.1" transform="matrix(1 0 0 1 624.582 671.1564)" style="overflow:visible;"/>
	<g>
		<defs>
			<rect id="SVGID_00000152960358607648332210000016911246607127695523_" x="631.9" y="687.3" width="700" height="700"/>
		</defs>
		<clipPath id="SVGID_00000111193013838400837150000011656136731537682093_">
			<use xlink:href="#SVGID_00000152960358607648332210000016911246607127695523_"  style="overflow:visible;"/>
		</clipPath>
		<g style="clip-path:url(#SVGID_00000111193013838400837150000011656136731537682093_);">
			
				<use xlink:href="#a"  width="24.9" height="24.4" x="-12.4" y="-12.2" transform="matrix(1 0 0 1 646.1255 675.6879)" style="overflow:visible;"/>
		</g>
	</g>
	
		<use xlink:href="#o"  width="18" height="32.2" x="-9" y="-16.1" transform="matrix(1 0 0 1 79.8202 713.5787)" style="overflow:visible;"/>
	<g>
		<defs>
			<rect id="SVGID_00000060008442675971117430000018110851788137398929_" x="197.5" y="729.7" width="700" height="700"/>
		</defs>
		<clipPath id="SVGID_00000181068037199875278440000014639302156656671115_">
			<use xlink:href="#SVGID_00000060008442675971117430000018110851788137398929_"  style="overflow:visible;"/>
		</clipPath>
		<g style="clip-path:url(#SVGID_00000181068037199875278440000014639302156656671115_);">
			
				<use xlink:href="#b"  width="18.7" height="29.8" x="-9.4" y="-14.9" transform="matrix(1 0 0 1 207.4372 714.8049)" style="overflow:visible;"/>
		</g>
	</g>
	
		<use xlink:href="#n"  width="23.3" height="32.2" x="-11.7" y="-16.1" transform="matrix(1 0 0 1 233.0083 713.5781)" style="overflow:visible;"/>
	
		<use xlink:href="#m"  width="27.7" height="30.9" x="-13.9" y="-15.5" transform="matrix(1 0 0 1 309.2773 714.2343)" style="overflow:visible;"/>
	
		<use xlink:href="#l"  width="25.5" height="30.9" x="-12.7" y="-15.5" transform="matrix(1 0 0 1 447.9683 714.2341)" style="overflow:visible;"/>
	
		<use xlink:href="#k"  width="12.4" height="41.4" x="-6.2" y="-20.7" transform="matrix(1 0 0 1 517.3008 718.1562)" style="overflow:visible;"/>
	<g>
		<defs>
			<rect id="SVGID_00000162342093830842222580000009066062146411399846_" x="581" y="729.7" width="700" height="700"/>
		</defs>
		<clipPath id="SVGID_00000158743612742101344170000018041413547764517517_">
			<use xlink:href="#SVGID_00000162342093830842222580000009066062146411399846_"  style="overflow:visible;"/>
		</clipPath>
		<g style="clip-path:url(#SVGID_00000158743612742101344170000018041413547764517517_);">
			
				<use xlink:href="#b"  width="18.7" height="29.8" x="-9.4" y="-14.9" transform="matrix(1 0 0 1 590.9138 714.8049)" style="overflow:visible;"/>
		</g>
	</g>
</g>
</svg>
