<?xml version="1.0" encoding="UTF-8"?>
<svg width="700pt" height="700pt" version="1.1" viewBox="0 0 700 700" xmlns="http://www.w3.org/2000/svg">
 <path d="m261.92 26.25c-4.832 0.019531-8.7344 3.9531-8.7148 8.7852v45.016l-45.082-0.003906c-4.832 0.019531-8.7344 3.9531-8.7188 8.7852v45.031h-45.031c-0.29688-0.011719-0.58984-0.011719-0.88672 0-4.4844 0.44141-7.8984 4.2148-7.8984 8.7188v382.44-0.003906c0.007812 2.3242 0.93359 4.5508 2.582 6.1875 1.6484 1.6406 3.8789 2.5547 6.2031 2.5469h283.76c4.8125-0.019531 8.7031-3.9219 8.7148-8.7344v-45.016h45.016v0.003906c2.332 0.007813 4.5703-0.91406 6.2188-2.5664 1.6523-1.6484 2.5742-3.8867 2.5625-6.2188v-45.016h45.035c4.8047-0.019531 8.6953-3.9102 8.7148-8.7148v-293.52c0.050781-0.79688-0.007812-1.5938-0.17188-2.375-0.058594-0.28906-0.13281-0.57422-0.22266-0.85547-0.17188-0.54297-0.39453-1.0703-0.66797-1.5703-0.003906-0.011719-0.007812-0.023438-0.015625-0.035157-0.003906-0.003906-0.011718-0.011718-0.015625-0.015624-0.13672-0.24609-0.28516-0.48438-0.44531-0.71875-0.16406-0.24219-0.34375-0.47656-0.53125-0.69922-0.14062-0.17188-0.28906-0.33594-0.44141-0.49609l-88.371-88.371h-0.003907c-1.6406-1.6523-3.8711-2.582-6.2031-2.582zm8.7344 17.5h177.94v79.586c-0.019532 4.832 3.8828 8.7656 8.7148 8.7852h79.586v276.58h-266.24v-319.27c0.023437-0.36719 0.023437-0.73828 0-1.1094zm195.44 12.406 58.465 58.445h-58.465zm-249.19 41.41h36.297v319.92c0.019531 4.8047 3.9102 8.6953 8.7148 8.7148h221.23v36.301h-44.281 0.003907c-0.48828-0.042968-0.98047-0.042968-1.4688 0h-220.5zm-53.801 53.801h36.301v319.85h-0.003906c-0.015625 4.832 3.8867 8.7656 8.7188 8.7852h221.23v36.297h-266.24zm155.25 48.434-0.003906-0.003906c-0.011718 0.007813-0.019531 0.011719-0.03125 0.015625-4.7539 0.35156-8.3555 4.4375-8.1094 9.1953 0.24609 4.7578 4.25 8.4492 9.0156 8.3047h103.73c2.3516 0.054688 4.6289-0.84375 6.3125-2.4922 1.6836-1.6445 2.6328-3.9023 2.6328-6.2578 0-2.3516-0.94922-4.6094-2.6328-6.2539-1.6836-1.6484-3.9609-2.5469-6.3125-2.4961h-103.74c-0.28906-0.019531-0.57812-0.023438-0.87109-0.015625zm0.87109 59.625-0.003906-0.003906c-2.3516-0.050781-4.6289 0.84766-6.3125 2.4961-1.6836 1.6445-2.6328 3.9023-2.6328 6.2539 0 2.3555 0.94922 4.6133 2.6328 6.2578 1.6836 1.6484 3.9609 2.5469 6.3125 2.4922h169.16c2.3555 0.054687 4.6328-0.84375 6.3164-2.4922 1.6836-1.6445 2.6328-3.9023 2.6328-6.2578 0-2.3516-0.94922-4.6094-2.6328-6.2539-1.6836-1.6484-3.9609-2.5469-6.3164-2.4961zm-0.90625 59.676c-4.8359 0.25391-8.5508 4.375-8.3008 9.2109s4.3711 8.5508 9.2031 8.3047h169.16c2.3242 0.003906 4.5547-0.91797 6.1992-2.5625 1.6445-1.6406 2.5703-3.8711 2.5703-6.1953s-0.92578-4.5508-2.5703-6.1953c-1.6445-1.6445-3.875-2.5664-6.1992-2.5625h-169.16c-0.30078-0.015624-0.60156-0.015624-0.90234 0z"/>
</svg>
