<?xml version="1.0" encoding="utf-8"?>
<!-- Generator: Adobe Illustrator 26.2.1, SVG Export Plug-In . SVG Version: 6.00 Build 0)  -->
<svg version="1.1" id="Layer_1" xmlns="http://www.w3.org/2000/svg" xmlns:xlink="http://www.w3.org/1999/xlink" x="0px" y="0px"
	 viewBox="0 0 700 571.9" style="enable-background:new 0 0 700 571.9;" xml:space="preserve">
<symbol  id="a" viewBox="-8.8 -8.4 17.5 16.8">
	<path d="M0-4.7c-1.1,0-2,0.4-2.6,1.2s-0.9,2-0.9,3.5c0,1.5,0.3,2.7,0.9,3.5S-1.1,4.7,0,4.7c1.1,0,1.9-0.4,2.5-1.2
		c0.6-0.8,0.9-2,0.9-3.5c0-1.5-0.3-2.7-0.9-3.5C2-4.3,1.1-4.7,0-4.7z M0-8.4c2.7,0,4.9,0.7,6.4,2.2C8-4.7,8.8-2.6,8.8,0
		c0,2.6-0.8,4.7-2.3,6.2C4.9,7.6,2.8,8.4,0,8.4c-2.8,0-4.9-0.7-6.5-2.2C-8,4.7-8.8,2.6-8.8,0c0-2.6,0.8-4.7,2.3-6.1
		C-4.9-7.6-2.7-8.4,0-8.4z"/>
</symbol>
<symbol  id="b" viewBox="-8.6 -8.4 17.1 16.8">
	<path d="M8.6,0v1.5H-3.4c0.1,1.2,0.6,2.1,1.3,2.7C-1.3,4.7-0.3,5,1,5c1.1,0,2.2-0.2,3.3-0.5c1.1-0.3,2.3-0.8,3.5-1.5V7
		C6.6,7.5,5.4,7.8,4.2,8C3,8.3,1.8,8.4,0.6,8.4c-2.9,0-5.1-0.7-6.8-2.2C-7.8,4.7-8.6,2.7-8.6,0c0-2.6,0.8-4.6,2.4-6.1
		c1.6-1.5,3.7-2.2,6.5-2.2c2.5,0,4.5,0.8,6,2.3C7.8-4.6,8.6-2.6,8.6,0L8.6,0z M3.3-1.7c0-1-0.3-1.8-0.9-2.3C1.9-4.7,1.2-5,0.3-5
		c-1,0-1.8,0.3-2.4,0.8c-0.6,0.6-1,1.4-1.1,2.4L3.3-1.7z"/>
</symbol>
<symbol  id="c" viewBox="-5.9 -8.2 11.8 16.3">
	<path d="M5.9-3.4C5.5-3.6,5-3.8,4.6-3.9C4.2-4,3.7-4,3.3-4C2-4,0.9-3.6,0.2-2.8c-0.7,0.8-1.1,2-1.1,3.6v7.3h-5.1v-16h5.1v2.6
		C-0.2-6.2,0.6-7,1.4-7.5c0.9-0.5,1.9-0.7,3.1-0.7c0.2,0,0.4,0,0.6,0c0.2,0,0.5,0,0.9,0.1L5.9-3.4z"/>
</symbol>
<symbol  id="d" viewBox="-6.4 -10.2 12.9 20.5">
	<path d="M1.2-10.2v4.5h5.3v3.6H1.2v6.8c0,0.7,0.1,1.2,0.4,1.5c0.3,0.3,0.9,0.4,1.8,0.4H6v3.6H1.6c-2,0-3.5-0.4-4.3-1.2
		c-0.8-0.8-1.2-2.3-1.2-4.3v-6.8h-2.5v-3.6h2.5v-4.5L1.2-10.2z"/>
</symbol>
<symbol  id="e" viewBox="-12.8 -8.2 25.7 16.3">
	<path d="M2-5.1c0.6-1,1.4-1.7,2.3-2.3c0.9-0.5,1.9-0.8,2.9-0.8c1.8,0,3.2,0.6,4.2,1.7c1,1.1,1.4,2.8,1.4,4.9v9.7H7.7v-8.3v-0.4
		c0-0.1,0-0.3,0-0.6c0-1.1-0.2-2-0.5-2.5C6.9-4.1,6.4-4.3,5.6-4.3c-1,0-1.7,0.4-2.2,1.2C2.8-2.3,2.6-1.2,2.6,0.3v7.8h-5.1v-8.3
		C-2.6-1.9-2.7-3-3-3.5c-0.3-0.5-0.8-0.8-1.6-0.8c-1,0-1.7,0.4-2.3,1.2c-0.5,0.8-0.8,1.9-0.8,3.4v7.8h-5.1v-16h5.1v2.3
		c0.6-0.9,1.3-1.6,2.2-2c0.8-0.5,1.7-0.7,2.7-0.7c1.1,0,2.1,0.3,2.9,0.8S1.5-6.1,2-5.1L2-5.1z"/>
</symbol>
<symbol  id="f" viewBox="-8 -8.2 16 16.3">
	<path d="M8-1.5v9.7H2.9V0.7c0-1.4,0-2.3-0.1-2.8C2.7-2.6,2.6-3,2.5-3.3C2.3-3.6,2-3.9,1.7-4C1.3-4.2,0.9-4.3,0.5-4.3
		c-1.1,0-1.9,0.4-2.5,1.2c-0.6,0.8-0.9,1.9-0.9,3.4v7.8H-8v-16h5.1v2.3c0.8-0.9,1.6-1.6,2.5-2c0.9-0.4,1.8-0.7,2.9-0.7
		c1.8,0,3.2,0.6,4.2,1.7C7.5-5.3,8-3.7,8-1.5L8-1.5z"/>
</symbol>
<symbol  id="g" viewBox="-8 -8.2 16 16.4">
	<path d="M-8,1.6v-9.8h5.1v1.6c0,0.9,0,2,0,3.3c0,1.3,0,2.2,0,2.6c0,1.3,0,2.2,0.1,2.8c0.1,0.6,0.2,1,0.3,1.2
		C-2.3,3.6-2,3.9-1.7,4.1c0.3,0.2,0.7,0.3,1.2,0.3c1.1,0,1.9-0.4,2.5-1.2c0.6-0.8,0.9-1.9,0.9-3.4v-7.9H8v16H2.9V5.5
		C2.1,6.4,1.3,7.1,0.5,7.5C-0.4,8-1.3,8.2-2.4,8.2c-1.8,0-3.3-0.6-4.2-1.7C-7.5,5.4-8,3.7-8,1.6L-8,1.6z"/>
</symbol>
<symbol  id="h" viewBox="-8.8 -10.6 17.5 21.3">
	<path d="M-8.8-10.6h9.1c2.7,0,4.8,0.6,6.2,1.8C8-7.6,8.8-5.9,8.8-3.7c0,2.2-0.7,3.9-2.2,5.2C5.1,2.7,3.1,3.3,0.4,3.3h-3.6v7.4h-5.5
		V-10.6z M-3.3-6.7v5.9h3c1.1,0,1.9-0.3,2.5-0.8C2.8-2,3.1-2.7,3.1-3.7c0-0.9-0.3-1.7-0.9-2.2C1.7-6.4,0.8-6.7-0.2-6.7L-3.3-6.7z"/>
</symbol>
<symbol  id="i" viewBox="-7.6 -10.6 15.1 21.3">
	<path d="M-7.6-10.6H7.2v4.1h-9.3v4h8.8v4.1h-8.8v4.9h9.6v4.1H-7.6L-7.6-10.6z"/>
</symbol>
<symbol  id="j" viewBox="-9.1 -11.1 18.1 22.3">
	<path d="M-9.1-11.1H-4L0.3-0.3L4-11.1h5.1L2.4,6.3c-0.7,1.8-1.5,3-2.4,3.7c-0.9,0.7-2.1,1.1-3.5,1.1h-3V7.8h1.6
		C-4,7.8-3.4,7.6-3,7.4c0.4-0.3,0.7-0.8,0.9-1.5L-2,5.4L-9.1-11.1z"/>
</symbol>
<symbol  id="k" viewBox="-8.6 -11.3 17.1 22.6">
	<path d="M-0.1,7.6c1.1,0,1.9-0.4,2.5-1.2c0.6-0.8,0.9-2,0.9-3.5c0-1.5-0.3-2.7-0.9-3.5C1.8-1.4,1-1.8-0.1-1.8S-2-1.4-2.6-0.6
		c-0.6,0.8-0.9,2-0.9,3.5c0,1.5,0.3,2.7,0.9,3.5C-2,7.2-1.2,7.6-0.1,7.6z M-3.5-2.8c0.7-0.9,1.5-1.6,2.3-2c0.9-0.4,1.8-0.7,2.9-0.7
		c2,0,3.6,0.8,4.8,2.3c1.3,1.6,1.9,3.6,1.9,6c0,2.5-0.6,4.5-1.9,6c-1.3,1.6-2.9,2.3-4.8,2.3c-1.1,0-2.1-0.2-2.9-0.7
		C-2,10.2-2.8,9.5-3.5,8.6v2.3h-5.1v-22.2h5.1L-3.5-2.8z"/>
</symbol>
<symbol  id="l" viewBox="-8.6 -11.3 17.1 22.6">
	<path d="M3.4-2.7v-8.5h5.1v22.2H3.4V8.6C2.7,9.5,2,10.2,1.1,10.6c-0.8,0.4-1.8,0.6-2.9,0.6c-2,0-3.6-0.8-4.8-2.3
		c-1.3-1.6-1.9-3.6-1.9-6c0-2.5,0.6-4.5,1.9-6c1.3-1.6,2.9-2.3,4.8-2.3c1.1,0,2.1,0.2,2.9,0.7C1.9-4.4,2.7-3.7,3.4-2.7L3.4-2.7z
		 M0.1,7.6c1.1,0,1.9-0.4,2.5-1.2c0.6-0.8,0.9-2,0.9-3.5c0-1.5-0.3-2.7-0.9-3.5C2-1.4,1.2-1.8,0.1-1.8c-1.1,0-1.9,0.4-2.5,1.2
		c-0.6,0.8-0.9,2-0.9,3.5c0,1.5,0.3,2.7,0.9,3.5C-1.9,7.2-1,7.6,0.1,7.6z"/>
</symbol>
<symbol  id="m" viewBox="-8.1 -8.4 16.1 16.7">
	<path d="M0.3,0.8c-1.1,0-1.9,0.2-2.4,0.5c-0.5,0.4-0.8,0.9-0.8,1.6c0,0.6,0.2,1.2,0.6,1.5C-1.9,4.8-1.2,5-0.5,5c1,0,1.8-0.3,2.4-1
		s1-1.5,1-2.6V0.8L0.3,0.8z M8.1-1.1V8H2.9V5.6c-0.7,1-1.5,1.7-2.3,2.1c-0.9,0.4-1.9,0.7-3.1,0.7c-1.7,0-3-0.5-4-1.4
		c-1-1-1.5-2.2-1.5-3.8c0-1.9,0.6-3.2,1.9-4.1c1.3-0.9,3.3-1.3,6.1-1.3h3v-0.4c0-0.8-0.3-1.4-1-1.8C1.3-4.8,0.3-5-1-5
		c-1.1,0-2.1,0.1-3,0.3c-0.9,0.2-1.8,0.5-2.6,1v-3.9C-5.6-7.8-4.5-8-3.4-8.2c1.1-0.1,2.2-0.2,3.3-0.2c2.9,0,4.9,0.6,6.2,1.7
		C7.4-5.5,8.1-3.7,8.1-1.1L8.1-1.1z"/>
</symbol>
<symbol  id="n" viewBox="-7 -8.4 14.1 16.8">
	<path d="M7-7.5v4.2C6.3-3.8,5.6-4.1,5-4.4C4.3-4.6,3.5-4.7,2.8-4.7c-1.4,0-2.5,0.4-3.3,1.2c-0.8,0.8-1.2,2-1.2,3.5
		c0,1.5,0.4,2.7,1.2,3.5c0.8,0.8,1.9,1.2,3.3,1.2c0.8,0,1.6-0.1,2.3-0.4c0.7-0.2,1.4-0.6,2-1v4.2C6.2,7.8,5.4,8,4.6,8.2
		C3.8,8.3,3,8.4,2.1,8.4c-2.9,0-5.1-0.7-6.8-2.2C-6.2,4.7-7,2.6-7,0c0-2.6,0.8-4.7,2.4-6.2C-3-7.6-0.7-8.4,2.1-8.4
		c0.8,0,1.7,0.1,2.5,0.2C5.4-8,6.2-7.8,7-7.5L7-7.5z"/>
</symbol>
<symbol  id="o" viewBox="-4.3 -14.2 8.5 28.5">
	<path d="M-0.8-8h5.1V7.6c0,2.1-0.5,3.8-1.5,4.9c-1,1.1-2.5,1.7-4.5,1.7h-2.5v-3.3h0.9c1,0,1.6-0.2,2-0.7C-1,9.8-0.8,8.9-0.8,7.6
		L-0.8-8z M-0.8-14.2h5.1v4.2h-5.1L-0.8-14.2z"/>
</symbol>
<symbol  id="p" viewBox="-9.5 -10.6 19.1 21.3">
	<path d="M-9.5-10.6h6.1L4.3,3.9v-14.6h5.2v21.3H3.4L-4.3-4v14.6h-5.2V-10.6z"/>
</symbol>
<symbol  id="q" viewBox="-8 -11.1 16 22.2">
	<path d="M8,1.4v9.7H2.9V3.7c0-1.4,0-2.4-0.1-2.9C2.7,0.3,2.6-0.1,2.5-0.4C2.3-0.7,2-0.9,1.7-1.1C1.3-1.3,0.9-1.4,0.5-1.4
		C-0.6-1.4-1.4-1-2-0.2c-0.6,0.8-0.9,1.9-0.9,3.4v7.8H-8v-22.2h5.1v8.5c0.8-0.9,1.6-1.6,2.5-2C0.4-5,1.3-5.3,2.4-5.3
		c1.8,0,3.2,0.6,4.2,1.7C7.5-2.4,8-0.8,8,1.4L8,1.4z"/>
</symbol>
<symbol  id="r" viewBox="-6.2 -11.1 12.4 22.2">
	<path d="M6.2-11.1v3.3H3.4c-0.7,0-1.2,0.1-1.5,0.4C1.6-7.1,1.4-6.6,1.4-6v1.1h4.4v3.6H1.4v12.3h-5.1V-1.2h-2.5v-3.6h2.5V-6
		c0-1.7,0.5-3,1.5-3.8c1-0.8,2.5-1.2,4.5-1.2L6.2-11.1z"/>
</symbol>
<symbol  id="s" viewBox="-8.8 -11.1 17.5 22.2">
	<path d="M-8.7-11.1h5.1V1l5.9-5.9h5.9L0.3,2.5l8.4,8.6H2.6l-6.2-6.7v6.7h-5.1L-8.7-11.1z"/>
</symbol>
<symbol  id="t" viewBox="-9 -11 18.1 22.1">
	<path d="M9,9.5C8,10,7,10.4,5.9,10.6C4.8,10.9,3.7,11,2.5,11c-3.5,0-6.4-1-8.4-3C-8,6.1-9,3.4-9,0C-9-3.4-8-6.1-6-8.1
		c2.1-2,4.9-3,8.4-3c1.2,0,2.3,0.1,3.4,0.4C7-10.4,8-10,9-9.4V-5C8-5.7,7-6.2,6-6.6C5.1-6.9,4-7,2.9-7C1-7-0.6-6.4-1.7-5.2
		c-1.1,1.2-1.7,3-1.7,5.2c0,2.2,0.6,3.9,1.7,5.2C-0.6,6.4,1,7.1,2.9,7.1C4,7.1,5.1,6.9,6,6.6c1-0.3,2-0.8,3-1.5V9.5z"/>
</symbol>
<g>
	<path d="M180.6,150.4h228.1c4.7,0,8.6,3.8,8.6,8.6s-3.8,8.6-8.6,8.6l-228.1,0c-4.7,0-8.6-3.8-8.6-8.6
		C172.1,154.2,175.9,150.4,180.6,150.4L180.6,150.4z M294.7,45c-5.7,0-10.4,4.6-10.4,10.4c0,5.7,4.6,10.4,10.4,10.4
		c5.7,0,10.4-4.6,10.4-10.4C305,49.7,300.4,45,294.7,45z M588.1,337.4c6.7,14.4,15,32.2,7.6,45.1c-7.4,12.9-27.1,14.6-42.8,16
		c-3.7,0.3-8.6,0.8-11.1,1.3c-0.9,2.3-2.2,7.1-3.2,10.7c-4.1,15.3-9.2,34.3-23.2,39.4c-2.4,0.9-4.9,1.3-7.4,1.3
		c-1.5,0-3-0.1-4.4-0.4v62.9c0,17.4-14.2,31.6-31.6,31.6l-354.5,0c-17.4,0-31.6-14.2-31.6-31.6V90.1c0-17.4,14.2-31.6,31.6-31.6
		h80.1l0-5.4c0-4.7,3.8-8.6,8.6-8.6h44.3c7.1-17.9,24.5-29.9,44.3-29.9s37.1,12,44.3,29.9h44.4c4.7,0,8.6,3.8,8.6,8.6v5.4h80.1
		c17.4,0,31.6,14.2,31.6,31.6v99c0.5,0.6,0.9,1.2,1.3,1.6c2.5-0.3,7.2-1.6,10.9-2.6c15.3-4.1,34.3-9.2,45.7,0.4
		c11.4,9.6,9.7,29.2,8.3,45c-0.3,3.7-0.7,8.6-0.7,11.1c2.1,1.3,6.6,3.4,10,5c14.3,6.7,32.2,15,34.8,29.7
		c2.6,14.6-11.3,28.6-22.5,39.8c-2.6,2.7-6.1,6.1-7.7,8.1C584.4,329.6,586.5,334,588.1,337.4L588.1,337.4z M391.9,75.7v14.9h71.1
		c4.7,0,8.6,3.8,8.6,8.6v55.4c5.5,2.3,10.4,6.7,14.9,11.7V90.1c0-8-6.5-14.5-14.5-14.5L391.9,75.7L391.9,75.7z M214.6,104.5h160.1
		V61.8l-42,0c-4,0-7.4-2.7-8.3-6.6c-3.3-13.8-15.5-23.4-29.7-23.4c-14.2,0-26.4,9.6-29.7,23.4c-0.9,3.8-4.4,6.6-8.3,6.6h-42
		L214.6,104.5z M206.1,121.6c-4.7,0-8.6-3.8-8.6-8.6v-5.4H135v388.4h319.4v-62.1c-0.3,0.2-0.5,0.4-0.8,0.5
		c-11.7,8.2-25.9,18.1-38.8,16.3c-1.6,1.6-3.7,2.5-6.1,2.5H180.6c-4.7,0-8.6-3.8-8.6-8.6s3.8-8.6,8.6-8.6h215.8
		c-4.2-7.8-6.8-17.4-9.1-25.9c-1-3.6-2.2-8.4-3.2-10.7c-2.5-0.5-7.3-1-11.1-1.3c-5.8-0.5-12.2-1.1-18.3-2.2l-174.1,0
		c-4.7,0-8.6-3.8-8.6-8.6s3.8-8.6,8.6-8.6h148.1c-4.3-12,2.4-27.3,8.3-40.1H180.7c-4.7,0-8.6-3.8-8.6-8.6s3.8-8.6,8.6-8.6h156.8
		c-1-1-2-2-2.9-2.9c-10.5-10.5-23.5-23.5-22.8-37.2H180.7c-4.7,0-8.6-3.8-8.6-8.6s3.8-8.6,8.6-8.6l140.3,0
		c7.1-6.4,17.1-11.1,25.9-15.1c3.4-1.6,7.8-3.7,10-5c0.1-2.5-0.3-7.4-0.7-11.1c-0.2-2.8-0.5-5.8-0.7-8.8H180.7
		c-4.7,0-8.6-3.8-8.6-8.6s3.8-8.6,8.6-8.6h175c0.9-7.6,3.4-14.5,8.8-19c11.4-9.6,30.4-4.5,45.7-0.4c3.6,1,8.4,2.2,10.9,2.6
		c1.7-1.9,4.5-5.9,6.7-9c7.3-10.3,15.9-22.7,26.7-27.3v-46.8h-62.5v5.4c0,4.7-3.8,8.6-8.6,8.6L206.1,121.6L206.1,121.6z
		 M486.4,443.9c-4.9-2.9-9.7-6.2-14.2-9.3c-0.2-0.2-0.5-0.4-0.8-0.5v70.6c0,4.7-3.8,8.6-8.6,8.6l-336.5,0c-4.7,0-8.6-3.8-8.6-8.6
		l0-405.5c0-4.7,3.8-8.6,8.6-8.6h71.1V75.7h-80.1c-8,0-14.5,6.5-14.5,14.5v423.6c0,8,6.5,14.5,14.5,14.5H472c8,0,14.5-6.5,14.5-14.5
		L486.4,443.9z M572.6,344.6c-4.3-9.1-7.1-15.2-6.1-20.5c0.9-5.3,5.6-10,12.8-17.2c6.6-6.6,18.8-18.8,17.8-24.7
		c-1-5.9-16.7-13.2-25.2-17.1c-9.1-4.3-15.2-7.1-17.9-11.8s-2.1-11.3-1.3-21.4c0.8-9.3,2.3-26.5-2.3-30.4c-4.6-3.8-21.3,0.6-30.3,3
		c-9.7,2.6-16.2,4.3-21.2,2.5c-5.1-1.8-8.9-7.3-14.7-15.5c-5.3-7.6-15.3-21.8-21.2-21.8c-6,0-15.9,14.2-21.2,21.8
		c-5.8,8.3-9.6,13.7-14.7,15.6c-5.1,1.8-11.5,0.1-21.2-2.5c-9-2.4-25.7-6.9-30.3-3c-4.6,3.8-3.1,21.1-2.3,30.4
		c0.9,10,1.4,16.7-1.3,21.4c-2.7,4.7-8.7,7.5-17.9,11.8c-6.6,3.1-17.7,8.3-22.7,13.2c-0.3,0.5-0.7,0.9-1.1,1.3
		c-0.7,0.9-1.2,1.8-1.3,2.7c-1,5.9,11.2,18.1,17.8,24.7c7.1,7.1,11.8,11.8,12.8,17.2c0.5,2.7,0,5.5-1.1,8.9c0,0,0,0.1,0,0.1
		c-1.1,3.3-2.9,7-5,11.5c-3.9,8.4-11.2,24.1-8.3,29.3c3,5.2,20.2,6.7,29.5,7.5c10,0.9,16.7,1.5,20.8,4.9s5.9,9.9,8.5,19.6
		c2.4,9,6.9,25.7,12.5,27.8c5.6,2,19.8-7.9,27.4-13.2c8.3-5.8,13.7-9.6,19.1-9.6s10.9,3.8,19.1,9.6c7.6,5.3,21.8,15.3,27.4,13.2
		c5.6-2,10.1-18.8,12.5-27.8c2.6-9.7,4.3-16.2,8.5-19.6c4.1-3.5,10.8-4.1,20.8-4.9c9.3-0.8,26.5-2.3,29.5-7.5
		C583.8,368.8,576.5,353.1,572.6,344.6L572.6,344.6z M549.3,301.9c0,47.6-38.8,86.4-86.4,86.4s-86.4-38.8-86.4-86.4
		s38.8-86.4,86.4-86.4S549.3,254.3,549.3,301.9z M532.2,301.9c0-38.2-31.1-69.3-69.3-69.3c-38.2,0-69.3,31.1-69.3,69.3
		s31.1,69.3,69.3,69.3C501.1,371.2,532.2,340.1,532.2,301.9z M498.1,256.3c5.7,0,11.1,2.2,15.2,6.3c4.1,4.1,6.3,9.5,6.3,15.2
		c0,5.8-2.2,11.2-6.3,15.2c-9.6,9.7-32.4,32.9-47.7,48.2c-4.1,4.1-9.5,6.3-15.2,6.3s-11.2-2.2-15.2-6.3l-22.6-22.6
		c-4.1-4.1-6.3-9.5-6.3-15.2c0-5.8,2.2-11.2,6.3-15.2c4.1-4.1,9.5-6.3,15.2-6.3c5.8,0,11.2,2.2,15.2,6.3l7.3,7.3l32.5-32.8
		C486.9,258.6,492.3,256.3,498.1,256.3L498.1,256.3L498.1,256.3z M501.2,274.7c-0.8-0.8-1.9-1.3-3.1-1.3h0c-1.2,0-2.3,0.5-3.1,1.3
		l-38.5,38.9c-1.6,1.6-3.8,2.5-6.1,2.5h0c-2.3,0-4.4-0.9-6.1-2.5L431,300.3c-0.8-0.8-2-1.3-3.1-1.3c-1.2,0-2.3,0.5-3.1,1.3
		c-0.8,0.8-1.3,2-1.3,3.1c0,1.2,0.5,2.3,1.3,3.1l22.6,22.6c1.7,1.7,4.6,1.7,6.3,0c15.3-15.3,38.1-38.4,47.7-48.2
		C503,279.2,502.9,276.4,501.2,274.7L501.2,274.7z"/>
	
		<use xlink:href="#t"  width="18.1" height="22.1" x="-9" y="-11" transform="matrix(1 0 0 1 80.5001 636.8749)" style="overflow:visible;"/>
	
		<use xlink:href="#c"  width="11.8" height="16.3" x="-5.9" y="-8.2" transform="matrix(1 0 0 1 99.7814 639.3286)" style="overflow:visible;"/>
	
		<use xlink:href="#b"  width="17.1" height="16.8" x="-8.6" y="-8.4" transform="matrix(1 0 0 1 115.6016 639.5312)" style="overflow:visible;"/>
	
		<use xlink:href="#m"  width="16.1" height="16.7" x="-8.1" y="-8.4" transform="matrix(1 0 0 1 134.8907 639.5313)" style="overflow:visible;"/>
	
		<use xlink:href="#d"  width="12.9" height="20.5" x="-6.4" y="-10.2" transform="matrix(1 0 0 1 152.0898 637.2581)" style="overflow:visible;"/>
	<g>
		<defs>
			<rect id="SVGID_1_" x="159.2" y="647.5" width="700" height="700"/>
		</defs>
		<clipPath id="SVGID_00000054952556400607114420000015142480949143380154_">
			<use xlink:href="#SVGID_1_"  style="overflow:visible;"/>
		</clipPath>
		<g style="clip-path:url(#SVGID_00000054952556400607114420000015142480949143380154_);">
			
				<use xlink:href="#b"  width="17.1" height="16.8" x="-8.6" y="-8.4" transform="matrix(1 0 0 1 169.0078 639.5312)" style="overflow:visible;"/>
		</g>
	</g>
	
		<use xlink:href="#l"  width="17.1" height="22.6" x="-8.6" y="-11.3" transform="matrix(1 0 0 1 188.8517 636.6249)" style="overflow:visible;"/>
	
		<use xlink:href="#k"  width="17.1" height="22.6" x="-8.6" y="-11.3" transform="matrix(1 0 0 1 221.024 636.6252)" style="overflow:visible;"/>
	
		<use xlink:href="#j"  width="18.1" height="22.3" x="-9.1" y="-11.1" transform="matrix(1 0 0 1 240.3087 642.6722)" style="overflow:visible;"/>
	
		<use xlink:href="#i"  width="15.1" height="21.3" x="-7.6" y="-10.6" transform="matrix(1 0 0 1 270.2886 636.8668)" style="overflow:visible;"/>
	
		<use xlink:href="#s"  width="17.5" height="22.2" x="-8.8" y="-11.1" transform="matrix(1 0 0 1 291.1796 636.4219)" style="overflow:visible;"/>
	
		<use xlink:href="#a"  width="17.5" height="16.8" x="-8.8" y="-8.4" transform="matrix(1 0 0 1 309.3907 639.5308)" style="overflow:visible;"/>
	
		<use xlink:href="#h"  width="17.5" height="21.3" x="-8.8" y="-10.6" transform="matrix(1 0 0 1 340.9962 636.8668)" style="overflow:visible;"/>
	
		<use xlink:href="#g"  width="16" height="16.4" x="-8" y="-8.2" transform="matrix(1 0 0 1 361.2382 639.7266)" style="overflow:visible;"/>
	<g>
		<defs>
			<rect id="SVGID_00000043450264805470591040000000270778356709601976_" x="371.7" y="647.5" width="700" height="700"/>
		</defs>
		<clipPath id="SVGID_00000174587503919894016730000013162945497821454010_">
			<use xlink:href="#SVGID_00000043450264805470591040000000270778356709601976_"  style="overflow:visible;"/>
		</clipPath>
		<g style="clip-path:url(#SVGID_00000174587503919894016730000013162945497821454010_);">
			
				<use xlink:href="#c"  width="11.8" height="16.3" x="-5.9" y="-8.2" transform="matrix(1 0 0 1 380.0822 639.3286)" style="overflow:visible;"/>
		</g>
	</g>
	
		<use xlink:href="#f"  width="16" height="16.3" x="-8" y="-8.2" transform="matrix(1 0 0 1 396.5582 639.3282)" style="overflow:visible;"/>
	<g>
		<defs>
			<rect id="SVGID_00000051355466586139649750000010381290152228150168_" x="406.9" y="647.5" width="700" height="700"/>
		</defs>
		<clipPath id="SVGID_00000090285141067933758370000013637871002817344169_">
			<use xlink:href="#SVGID_00000051355466586139649750000010381290152228150168_"  style="overflow:visible;"/>
		</clipPath>
		<g style="clip-path:url(#SVGID_00000090285141067933758370000013637871002817344169_);">
			
				<use xlink:href="#a"  width="17.5" height="16.8" x="-8.8" y="-8.4" transform="matrix(1 0 0 1 416.8712 639.5308)" style="overflow:visible;"/>
		</g>
	</g>
	
		<use xlink:href="#e"  width="25.7" height="16.3" x="-12.8" y="-8.2" transform="matrix(1 0 0 1 442.152 639.3281)" style="overflow:visible;"/>
	<g>
		<defs>
			<rect id="SVGID_00000061459450878949474330000012032116995789358005_" x="457.3" y="647.5" width="700" height="700"/>
		</defs>
		<clipPath id="SVGID_00000177453923297304251600000004649367543106745774_">
			<use xlink:href="#SVGID_00000061459450878949474330000012032116995789358005_"  style="overflow:visible;"/>
		</clipPath>
		<g style="clip-path:url(#SVGID_00000177453923297304251600000004649367543106745774_);">
			
				<use xlink:href="#a"  width="17.5" height="16.8" x="-8.8" y="-8.4" transform="matrix(1 0 0 1 467.3009 639.5308)" style="overflow:visible;"/>
		</g>
	</g>
	
		<use xlink:href="#r"  width="12.4" height="22.2" x="-6.2" y="-11.1" transform="matrix(1 0 0 1 76.7577 665.5899)" style="overflow:visible;"/>
	<g>
		<defs>
			<rect id="SVGID_00000074434964240829469530000000577130821913506479_" x="82.7" y="676.7" width="700" height="700"/>
		</defs>
		<clipPath id="SVGID_00000155124457437368215610000015211857489503242641_">
			<use xlink:href="#SVGID_00000074434964240829469530000000577130821913506479_"  style="overflow:visible;"/>
		</clipPath>
		<g style="clip-path:url(#SVGID_00000155124457437368215610000015211857489503242641_);">
			
				<use xlink:href="#c"  width="11.8" height="16.3" x="-5.9" y="-8.2" transform="matrix(1 0 0 1 91.0627 668.4966)" style="overflow:visible;"/>
		</g>
	</g>
	<g>
		<defs>
			<rect id="SVGID_00000119805013868811626600000008273619179691818928_" x="97.1" y="676.7" width="700" height="700"/>
		</defs>
		<clipPath id="SVGID_00000004508088468529782620000010055864787380567941_">
			<use xlink:href="#SVGID_00000119805013868811626600000008273619179691818928_"  style="overflow:visible;"/>
		</clipPath>
		<g style="clip-path:url(#SVGID_00000004508088468529782620000010055864787380567941_);">
			
				<use xlink:href="#a"  width="17.5" height="16.8" x="-8.8" y="-8.4" transform="matrix(1 0 0 1 107.09 668.6988)" style="overflow:visible;"/>
		</g>
	</g>
	<g>
		<defs>
			<rect id="SVGID_00000155116827884575004200000005502551782142834078_" x="117.1" y="676.7" width="700" height="700"/>
		</defs>
		<clipPath id="SVGID_00000168097652963305397090000013059859803714025898_">
			<use xlink:href="#SVGID_00000155116827884575004200000005502551782142834078_"  style="overflow:visible;"/>
		</clipPath>
		<g style="clip-path:url(#SVGID_00000168097652963305397090000013059859803714025898_);">
			
				<use xlink:href="#e"  width="25.7" height="16.3" x="-12.8" y="-8.2" transform="matrix(1 0 0 1 132.3668 668.496)" style="overflow:visible;"/>
		</g>
	</g>
	<g>
		<defs>
			<rect id="SVGID_00000122678805277572556880000012732241970622969516_" x="157.7" y="676.7" width="700" height="700"/>
		</defs>
		<clipPath id="SVGID_00000034062913921449308600000018032058827424512912_">
			<use xlink:href="#SVGID_00000122678805277572556880000012732241970622969516_"  style="overflow:visible;"/>
		</clipPath>
		<g style="clip-path:url(#SVGID_00000034062913921449308600000018032058827424512912_);">
			
				<use xlink:href="#d"  width="12.9" height="20.5" x="-6.4" y="-10.2" transform="matrix(1 0 0 1 164.4922 666.426)" style="overflow:visible;"/>
		</g>
	</g>
	
		<use xlink:href="#q"  width="16" height="22.2" x="-8" y="-11.1" transform="matrix(1 0 0 1 182.066 665.5901)" style="overflow:visible;"/>
	<g>
		<defs>
			<rect id="SVGID_00000036937971696936312890000008423599567470601629_" x="192.4" y="676.7" width="700" height="700"/>
		</defs>
		<clipPath id="SVGID_00000082353026251254157520000004410185772883603386_">
			<use xlink:href="#SVGID_00000036937971696936312890000008423599567470601629_"  style="overflow:visible;"/>
		</clipPath>
		<g style="clip-path:url(#SVGID_00000082353026251254157520000004410185772883603386_);">
			
				<use xlink:href="#b"  width="17.1" height="16.8" x="-8.6" y="-8.4" transform="matrix(1 0 0 1 202.1758 668.6992)" style="overflow:visible;"/>
		</g>
	</g>
	
		<use xlink:href="#p"  width="19.1" height="21.3" x="-9.5" y="-10.6" transform="matrix(1 0 0 1 234.5039 666.035)" style="overflow:visible;"/>
	<g>
		<defs>
			<rect id="SVGID_00000164493836052999735610000015266708858487391618_" x="246.7" y="676.7" width="700" height="700"/>
		</defs>
		<clipPath id="SVGID_00000038385945478522412820000000044469298959166910_">
			<use xlink:href="#SVGID_00000164493836052999735610000015266708858487391618_"  style="overflow:visible;"/>
		</clipPath>
		<g style="clip-path:url(#SVGID_00000038385945478522412820000000044469298959166910_);">
			
				<use xlink:href="#a"  width="17.5" height="16.8" x="-8.8" y="-8.4" transform="matrix(1 0 0 1 256.7267 668.6988)" style="overflow:visible;"/>
		</g>
	</g>
	<g>
		<defs>
			<rect id="SVGID_00000122683457178984941480000008106647013015849118_" x="266.7" y="676.7" width="700" height="700"/>
		</defs>
		<clipPath id="SVGID_00000149361901934796131860000013396564029738065585_">
			<use xlink:href="#SVGID_00000122683457178984941480000008106647013015849118_"  style="overflow:visible;"/>
		</clipPath>
		<g style="clip-path:url(#SVGID_00000149361901934796131860000013396564029738065585_);">
			
				<use xlink:href="#g"  width="16" height="16.4" x="-8" y="-8.2" transform="matrix(1 0 0 1 277.0429 668.8945)" style="overflow:visible;"/>
		</g>
	</g>
	<g>
		<defs>
			<rect id="SVGID_00000119797948347470627510000005748482325980037043_" x="287.5" y="676.7" width="700" height="700"/>
		</defs>
		<clipPath id="SVGID_00000073682532224160569530000012702116393423519929_">
			<use xlink:href="#SVGID_00000119797948347470627510000005748482325980037043_"  style="overflow:visible;"/>
		</clipPath>
		<g style="clip-path:url(#SVGID_00000073682532224160569530000012702116393423519929_);">
			
				<use xlink:href="#f"  width="16" height="16.3" x="-8" y="-8.2" transform="matrix(1 0 0 1 297.9801 668.4962)" style="overflow:visible;"/>
		</g>
	</g>
	<g>
		<defs>
			<rect id="SVGID_00000111159452431993570540000008719334784209130399_" x="318.4" y="676.7" width="700" height="700"/>
		</defs>
		<clipPath id="SVGID_00000002360011368419757540000015998327976455312318_">
			<use xlink:href="#SVGID_00000111159452431993570540000008719334784209130399_"  style="overflow:visible;"/>
		</clipPath>
		<g style="clip-path:url(#SVGID_00000002360011368419757540000015998327976455312318_);">
			
				<use xlink:href="#h"  width="17.5" height="21.3" x="-8.8" y="-10.6" transform="matrix(1 0 0 1 329.8594 666.0348)" style="overflow:visible;"/>
		</g>
	</g>
	<g>
		<defs>
			<rect id="SVGID_00000131356298883709820100000009629706820734098325_" x="339.8" y="676.7" width="700" height="700"/>
		</defs>
		<clipPath id="SVGID_00000181795143982362292540000006172621101171456640_">
			<use xlink:href="#SVGID_00000131356298883709820100000009629706820734098325_"  style="overflow:visible;"/>
		</clipPath>
		<g style="clip-path:url(#SVGID_00000181795143982362292540000006172621101171456640_);">
			
				<use xlink:href="#c"  width="11.8" height="16.3" x="-5.9" y="-8.2" transform="matrix(1 0 0 1 348.1798 668.4966)" style="overflow:visible;"/>
		</g>
	</g>
	<g>
		<defs>
			<rect id="SVGID_00000182511169206379706700000005190836905310257087_" x="354.2" y="676.7" width="700" height="700"/>
		</defs>
		<clipPath id="SVGID_00000152972601177387433120000016986303985663930519_">
			<use xlink:href="#SVGID_00000182511169206379706700000005190836905310257087_"  style="overflow:visible;"/>
		</clipPath>
		<g style="clip-path:url(#SVGID_00000152972601177387433120000016986303985663930519_);">
			
				<use xlink:href="#a"  width="17.5" height="16.8" x="-8.8" y="-8.4" transform="matrix(1 0 0 1 364.2072 668.6988)" style="overflow:visible;"/>
		</g>
	</g>
	
		<use xlink:href="#o"  width="8.5" height="28.5" x="-4.3" y="-14.2" transform="matrix(1 0 0 1 377.5157 668.7385)" style="overflow:visible;"/>
	<g>
		<defs>
			<rect id="SVGID_00000031915865802743765490000013107848661079945124_" x="384.2" y="676.7" width="700" height="700"/>
		</defs>
		<clipPath id="SVGID_00000043418823319341148340000010209113304261173893_">
			<use xlink:href="#SVGID_00000031915865802743765490000013107848661079945124_"  style="overflow:visible;"/>
		</clipPath>
		<g style="clip-path:url(#SVGID_00000043418823319341148340000010209113304261173893_);">
			
				<use xlink:href="#b"  width="17.1" height="16.8" x="-8.6" y="-8.4" transform="matrix(1 0 0 1 394.0391 668.6992)" style="overflow:visible;"/>
		</g>
	</g>
	
		<use xlink:href="#n"  width="14.1" height="16.8" x="-7" y="-8.4" transform="matrix(1 0 0 1 412.3049 668.6993)" style="overflow:visible;"/>
	<g>
		<defs>
			<rect id="SVGID_00000075861980596195716290000005409946203677191303_" x="421.3" y="676.7" width="700" height="700"/>
		</defs>
		<clipPath id="SVGID_00000134938375168952448320000012462767116602031022_">
			<use xlink:href="#SVGID_00000075861980596195716290000005409946203677191303_"  style="overflow:visible;"/>
		</clipPath>
		<g style="clip-path:url(#SVGID_00000134938375168952448320000012462767116602031022_);">
			
				<use xlink:href="#d"  width="12.9" height="20.5" x="-6.4" y="-10.2" transform="matrix(1 0 0 1 428.1328 666.426)" style="overflow:visible;"/>
		</g>
	</g>
</g>
</svg>
