<?xml version="1.0" encoding="utf-8"?>
<!-- Generator: Adobe Illustrator 26.2.1, SVG Export Plug-In . SVG Version: 6.00 Build 0)  -->
<svg version="1.1" id="Layer_1" xmlns="http://www.w3.org/2000/svg" xmlns:xlink="http://www.w3.org/1999/xlink" x="0px" y="0px"
	 viewBox="0 0 700 585.9" style="enable-background:new 0 0 700 585.9;" xml:space="preserve">
<symbol  id="a" viewBox="-12.8 -12.6 25.7 25.1">
	<path d="M12.8-0.1v2.2H-5c0.2,1.8,0.8,3.1,1.9,4C-2,7-0.4,7.5,1.6,7.5c1.6,0,3.3-0.2,4.9-0.7c1.7-0.5,3.4-1.2,5.2-2.2v5.9
		c-1.8,0.7-3.6,1.2-5.4,1.5c-1.8,0.4-3.6,0.5-5.4,0.5c-4.3,0-7.7-1.1-10.1-3.3C-11.6,7.1-12.8,4-12.8,0c0-3.9,1.2-7,3.5-9.2
		c2.4-2.2,5.6-3.4,9.7-3.4c3.8,0,6.8,1.1,9,3.4C11.7-6.9,12.8-3.9,12.8-0.1L12.8-0.1z M5-2.6c0-1.5-0.4-2.6-1.3-3.5
		C2.9-7,1.8-7.5,0.4-7.5c-1.5,0-2.7,0.4-3.6,1.2c-0.9,0.8-1.5,2-1.7,3.6H5z"/>
</symbol>
<symbol  id="b" viewBox="-13.1 -12.6 26.3 25.1">
	<path d="M0-7.1c-1.7,0-3,0.6-3.9,1.8C-4.7-4-5.2-2.3-5.2,0c0,2.3,0.4,4,1.3,5.3C-3,6.5-1.7,7.1,0,7.1c1.7,0,2.9-0.6,3.8-1.8
		C4.7,4,5.2,2.3,5.2,0c0-2.3-0.4-4-1.3-5.3C3-6.5,1.7-7.1,0-7.1z M0-12.6c4.1,0,7.3,1.1,9.6,3.3s3.5,5.3,3.5,9.2
		c0,3.9-1.2,7-3.5,9.2c-2.3,2.2-5.5,3.3-9.6,3.3c-4.1,0-7.4-1.1-9.7-3.3C-12,7-13.1,3.9-13.1,0c0-3.9,1.2-7,3.5-9.2
		C-7.3-11.5-4.1-12.6,0-12.6z"/>
</symbol>
<symbol  id="c" viewBox="-14.7 -15.9 29.4 31.9">
	<path d="M-14.7-15.9h29.4v6.2H4.1v25.7h-8.2V-9.7h-10.6L-14.7-15.9z"/>
</symbol>
<symbol  id="d" viewBox="-13.6 -16.7 27.2 33.4">
	<path d="M-13.6-16.7h7.7L0.5-0.4l5.5-16.2h7.7L3.5,9.5c-1,2.7-2.2,4.5-3.5,5.6c-1.3,1.1-3.1,1.6-5.3,1.6h-4.4v-5h2.4
		c1.3,0,2.2-0.2,2.8-0.6c0.6-0.4,1.1-1.1,1.4-2.2l0.2-0.7L-13.6-16.7z"/>
</symbol>
<symbol  id="e" viewBox="-12.8 -16.9 25.7 33.9">
	<path d="M-0.1,11.4c1.6,0,2.9-0.6,3.8-1.8c0.9-1.2,1.3-2.9,1.3-5.2c0-2.3-0.4-4-1.3-5.2C2.8-2,1.5-2.6-0.1-2.6
		C-1.7-2.6-3-2-3.9-0.8c-0.9,1.2-1.3,2.9-1.3,5.2c0,2.3,0.4,4,1.3,5.2C-3,10.8-1.7,11.4-0.1,11.4L-0.1,11.4z M-5.2-4.1
		C-4.1-5.5-3-6.5-1.7-7.2c1.3-0.7,2.8-1,4.4-1C5.7-8.2,8.1-7,10-4.7c1.9,2.3,2.8,5.4,2.8,9s-0.9,6.7-2.8,9c-1.9,2.3-4.3,3.5-7.3,3.5
		c-1.7,0-3.1-0.3-4.4-1s-2.4-1.7-3.5-3.1v3.5h-7.7v-33.2h7.7V-4.1z"/>
</symbol>
<symbol  id="f" viewBox="-12.8 -16.9 25.7 33.9">
	<path d="M5.1-4.1v-12.8h7.7v33.2H5.1v-3.5c-1.1,1.4-2.2,2.4-3.5,3.1c-1.3,0.7-2.7,1-4.4,1c-2.9,0-5.4-1.2-7.3-3.5
		c-1.9-2.3-2.8-5.4-2.8-9s0.9-6.7,2.8-9C-8.1-7-5.7-8.2-2.7-8.2c1.7,0,3.1,0.3,4.4,1C2.9-6.5,4.1-5.5,5.1-4.1L5.1-4.1z M0.1,11.4
		c1.6,0,2.9-0.6,3.8-1.8c0.9-1.2,1.3-2.9,1.3-5.2c0-2.3-0.4-4-1.3-5.2C3-2,1.7-2.6,0.1-2.6c-1.6,0-2.9,0.6-3.7,1.8
		c-0.9,1.2-1.3,2.9-1.3,5.2c0,2.3,0.4,4,1.3,5.2C-2.8,10.8-1.5,11.4,0.1,11.4z"/>
</symbol>
<symbol  id="g" viewBox="-9.7 -15.4 19.3 30.7">
	<path d="M1.8-15.4v6.8h7.9v5.5H1.8V7c0,1.1,0.2,1.9,0.7,2.3c0.4,0.4,1.3,0.6,2.6,0.6H9v5.5H2.4c-3,0-5.2-0.6-6.4-1.9
		c-1.3-1.3-1.9-3.4-1.9-6.4V-3.1h-3.8v-5.5h3.8v-6.8L1.8-15.4z"/>
</symbol>
<symbol  id="h" viewBox="-12.1 -12.6 24.2 25.1">
	<path d="M0.4,1.2c-1.6,0-2.8,0.3-3.6,0.8C-4,2.5-4.4,3.3-4.4,4.4c0,1,0.3,1.7,1,2.3c0.6,0.5,1.5,0.8,2.7,0.8c1.4,0,2.6-0.5,3.6-1.5
		c1-1,1.5-2.3,1.5-3.9V1.2L0.4,1.2z M12.1-1.7v13.7H4.4V8.4c-1,1.4-2.2,2.5-3.5,3.2c-1.3,0.7-2.8,1-4.7,1c-2.5,0-4.5-0.7-6-2.2
		c-1.5-1.4-2.3-3.3-2.3-5.6c0-2.8,1-4.9,2.9-6.2c1.9-1.3,5-2,9.1-2h4.5V-4c0-1.2-0.5-2.1-1.4-2.7C2-7.2,0.5-7.5-1.5-7.5
		c-1.6,0-3.2,0.2-4.6,0.5C-7.5-6.7-8.8-6.2-10-5.5v-5.8c1.6-0.4,3.3-0.7,4.9-0.9c1.7-0.2,3.3-0.3,5-0.3c4.3,0,7.4,0.9,9.3,2.6
		C11.1-8.3,12.1-5.5,12.1-1.7L12.1-1.7z"/>
</symbol>
<symbol  id="i" viewBox="-8.9 -12.3 17.8 24.5">
	<path d="M8.9-5.2c-0.7-0.3-1.4-0.5-2-0.7C6.2-6,5.6-6.1,4.9-6.1c-2,0-3.5,0.6-4.5,1.9c-1.1,1.3-1.6,3.1-1.6,5.4v11h-7.7v-23.9h7.7
		v3.9c1-1.6,2.1-2.7,3.4-3.4c1.3-0.7,2.8-1.1,4.6-1.1c0.2,0,0.5,0,0.8,0c0.3,0,0.7,0.1,1.3,0.1L8.9-5.2z"/>
</symbol>
<symbol  id="j" viewBox="-12 -12.3 24.1 24.5">
	<path d="M12-2.3v14.6H4.3V1.1c0-2.1,0-3.5-0.1-4.3C4.1-4,3.9-4.5,3.7-4.9C3.4-5.4,3-5.8,2.5-6.1C2-6.3,1.4-6.5,0.7-6.5
		c-1.6,0-2.9,0.6-3.8,1.8c-0.9,1.2-1.4,2.9-1.4,5.1v11.8H-12v-23.9h7.7v3.5c1.1-1.4,2.4-2.4,3.7-3.1c1.3-0.7,2.7-1,4.3-1
		c2.8,0,4.9,0.9,6.3,2.5C11.3-8,12-5.6,12-2.3L12-2.3z"/>
</symbol>
<symbol  id="k" viewBox="-10.6 -12.6 21.1 25.1">
	<path d="M10.6-11.2V-5c-1-0.7-2.1-1.2-3.1-1.6c-1-0.3-2.1-0.5-3.2-0.5c-2.1,0-3.8,0.6-5,1.9C-2-4-2.6-2.2-2.6,0
		c0,2.2,0.6,4,1.8,5.2c1.2,1.2,2.9,1.9,5,1.9c1.2,0,2.3-0.2,3.4-0.5c1.1-0.4,2.1-0.9,3-1.6v6.3c-1.2,0.4-2.4,0.8-3.6,1
		c-1.2,0.2-2.5,0.3-3.7,0.3c-4.3,0-7.7-1.1-10.1-3.3s-3.7-5.3-3.7-9.2c0-3.9,1.2-7,3.7-9.2c2.4-2.2,5.8-3.3,10.1-3.3
		c1.3,0,2.5,0.1,3.7,0.3S9.4-11.7,10.6-11.2L10.6-11.2z"/>
</symbol>
<symbol  id="l" viewBox="-4.1 -15.9 8.2 31.9">
	<path d="M-4.1-15.9h8.2v31.9h-8.2V-15.9z"/>
</symbol>
<symbol  id="m" viewBox="-13.9 -15.9 27.8 31.9">
	<path d="M-13.4-15.9h26.8v5L-3.7,9.7h17.6v6.2h-27.8v-5L3.2-9.7h-16.6V-15.9z"/>
</symbol>
<symbol  id="n" viewBox="-13.6 -16.5 27.1 33.1">
	<path d="M13.6,14.2c-1.5,0.8-3.1,1.4-4.7,1.8c-1.6,0.4-3.3,0.6-5.1,0.6c-5.3,0-9.5-1.5-12.6-4.5c-3.1-3-4.7-7-4.7-12.1
		s1.6-9.1,4.7-12.1c3.1-3,7.3-4.5,12.6-4.5c1.8,0,3.5,0.2,5.1,0.6c1.6,0.4,3.2,1,4.7,1.8v6.6c-1.5-1-3-1.8-4.5-2.3
		c-1.5-0.5-3-0.7-4.7-0.7c-2.9,0-5.2,0.9-6.9,2.8C-4.2-5.9-5.1-3.3-5.1,0c0,3.3,0.8,5.9,2.5,7.8c1.7,1.9,4,2.8,6.9,2.8
		c1.6,0,3.2-0.2,4.7-0.7c1.5-0.5,3-1.3,4.5-2.3V14.2z"/>
</symbol>
<g>
	<path d="M78.8,530.2h53.6c17.6,0,35.4,1.8,52.7,5.3l82.5,16.7c14.2,2.9,28.6,4.3,42.9,4.3c5.5,0,11-0.2,16.5-0.6L512.4,542
		c7.6-0.6,14.3-5.2,17.4-12.1c3.2-6.9,2.3-15-2.2-21.1c-4.8-6.5-12-12.1-21-16.3c-8.4-3.8-17.4-6-25.4-6h-105
		c-23.8,0-45-3.7-63.1-11L277,460.7l2.6-1.1v0l47.2-19.9c5.2-2.2,9.4-5.7,12.1-10.1c4-6.3,5.2-14,3.2-21.3
		c-2-7.3-6.8-13.2-13.6-16.6l-2-1c-12.4-6.3-27-7.3-40.2-2.9L238,403.9c-1.7,0.6-3.5,1.1-5.3,1.5c-5.1,1-10.2,1.1-15.1,0.3
		c-20-3.3-58.6-5.7-91.7,15.5c-4.6,3-9.8,4.6-15.2,4.6l-31.9,0c-4.8,0-8.8,3.9-8.8,8.8v87.1C70,526.4,73.9,530.3,78.8,530.2
		L78.8,530.2z M276.1,451.5L276.1,451.5l2.9,6.6L276.1,451.5L276.1,451.5z"/>
	<path d="M197.5,361.9c10.1,3.8,20.5,5.6,30.7,5.6c35.4,0,68.8-21.6,82-56.6c8.3-21.9,7.5-45.6-2.1-66.9s-27-37.6-48.8-45.9
		c-2.1-0.8-4.6-0.8-6.7,0.2c-2.1,0.9-3.8,2.7-4.6,4.9l-24.7,65.5L157.8,244c-4.5-1.7-9.6,0.6-11.3,5.1c-8.3,21.9-7.5,45.6,2.1,66.9
		C158.3,337.3,175.6,353.6,197.5,361.9L197.5,361.9z M160.3,263.6l65,24.5c4.5,1.7,9.6-0.6,11.3-5.1l24.6-65
		c13.7,7.2,24.6,18.7,31.1,33.1c7.7,17,8.3,36.1,1.7,53.5c-13.6,36.1-54.2,54.3-90.2,40.8c-17.5-6.6-31.4-19.7-39.1-36.7
		C158.1,294.4,156.6,278.7,160.3,263.6L160.3,263.6z"/>
	<path d="M204.9,251.8c1.2,0,2.5-0.3,3.6-0.8c2.1-1,3.8-2.7,4.6-4.9l27.8-73.7c1.7-4.5-0.6-9.6-5.1-11.3
		c-21.9-8.3-45.6-7.5-66.9,2.1s-37.6,27-45.9,48.8c-0.8,2.2-0.7,4.6,0.2,6.7c0.9,2.1,2.7,3.8,4.9,4.6l73.7,27.8
		C202.8,251.6,203.9,251.8,204.9,251.8L204.9,251.8z"/>
	<path d="M470,89.9L470,89.9L470,89.9l-28.2-44.4v0L418.4,8.6C415.9,4.7,412,2,407.5,1c-4.6-1-9.3-0.2-13.3,2.3l-88.7,56.3
		c-8.1,5.3-10.4,16.1-5.2,24.1l51.6,81.3l23.4,36.9c2.5,3.9,6.4,6.6,10.9,7.7c1.3,0.3,2.6,0.4,3.9,0.4c3.3,0,6.5-0.9,9.4-2.7
		l88.7-56.3c8.1-5.3,10.4-16.1,5.2-24.1L470,89.9L470,89.9z M362,148.2l-18.8-29.6l88.6-56.4l18.8,29.6L362,148.2L362,148.2z
		 M403.6,18l18.8,29.5l-88.6,56.4L315,74.3L403.6,18L403.6,18z M390.1,192.5L371.3,163l88.6-56.4l18.8,29.6L390.1,192.5L390.1,192.5
		z"/>
	<path d="M339.2,88.5c1.6,0,3.2-0.4,4.7-1.4l14.8-9.4c4.1-2.6,5.3-8,2.7-12.1c-2.6-4.1-8-5.3-12.1-2.7l-14.8,9.4
		c-4.1,2.6-5.3,8-2.7,12.1C333.4,87,336.3,88.5,339.2,88.5L339.2,88.5z"/>
	<path d="M389.5,109.9c-2.6-4.1-8-5.3-12.1-2.7l-14.8,9.4c-4.1,2.6-5.3,8-2.7,12.1c1.7,2.6,4.5,4.1,7.4,4.1c1.6,0,3.2-0.4,4.7-1.4
		l14.8-9.4C390.9,119.4,392.1,114,389.5,109.9L389.5,109.9z"/>
	<path d="M417.6,154.3c-2.6-4.1-8-5.3-12.1-2.7l-14.7,9.4c-4.1,2.6-5.3,8-2.7,12.1c1.7,2.6,4.5,4.1,7.4,4.1c1.6,0,3.2-0.4,4.7-1.4
		l14.7-9.4C419,163.8,420.2,158.4,417.6,154.3L417.6,154.3z"/>
	<path d="M183.8,122.5c0.8,0,1.5-0.1,2.2-0.3c2.4-0.6,4.5-2.3,5.6-4.6l35-70c2.2-4.3,0.4-9.6-3.9-11.7c-4.3-2.2-9.6-0.4-11.7,3.9
		L180.4,101l-18-12c-4-2.7-9.5-1.6-12.1,2.4c-2.7,4-1.6,9.4,2.4,12.1l26.2,17.5C180.3,122,182,122.5,183.8,122.5L183.8,122.5z"/>
	<path d="M411.2,266.9c0,16.9-13.7,30.6-30.6,30.6S350,283.8,350,266.9s13.7-30.6,30.6-30.6S411.2,250,411.2,266.9"/>
	<path d="M140,363.1c0,16.9-13.7,30.6-30.6,30.6S78.8,380,78.8,363.1s13.7-30.6,30.6-30.6S140,346.2,140,363.1"/>
	<path d="M603.8,118.1c0,16.9-13.7,30.6-30.6,30.6s-30.6-13.7-30.6-30.6s13.7-30.6,30.6-30.6S603.8,101.2,603.8,118.1"/>
	<path d="M502.9,445.1c4.7,1.1,9.4-1.8,10.5-6.5c1.1-4.7-1.8-9.4-6.5-10.5c-0.6-0.1-12.2-2.7-27.2,1.2
		c-11.6-10.3-23.3-13.2-23.8-13.3c-4.6-1.1-9.3,1.8-10.5,6.5c-1.1,4.7,1.8,9.4,6.4,10.6c0.1,0,4.1,1.1,9.4,4.3
		c-3.8,2.4-7.4,5.2-10.9,8.3c-3.5,3.3-3.8,8.8-0.5,12.4c1.7,1.9,4.1,2.8,6.4,2.8c2.1,0,4.3-0.8,5.9-2.3c3.9-3.6,8-6.5,12.4-8.7
		c3,3.9,5.6,8.3,7.5,13.3c1.3,3.5,4.6,5.7,8.2,5.7c1,0,2-0.2,3-0.5c4.5-1.7,6.9-6.7,5.2-11.2c-1.6-4.4-3.6-8.5-6-12.4
		C498.7,444.2,502.7,445,502.9,445.1L502.9,445.1z"/>
	<path d="M415.9,360.3l42.1,11.9c0.8,0.2,1.6,0.3,2.4,0.3c1.5,0,3-0.4,4.3-1.1c2-1.1,3.5-3,4.1-5.3l11.9-42.1
		c1.3-4.6-1.4-9.5-6-10.8l-42.1-11.9c-4.7-1.3-9.5,1.4-10.8,6l-11.9,42.1c-0.6,2.2-0.4,4.6,0.8,6.7
		C411.8,358.2,413.6,359.7,415.9,360.3L415.9,360.3z"/>
	<path d="M500.4,296c-2,1.1-3.5,3-4.2,5.3l-19.1,67.4c-0.6,2.2-0.4,4.6,0.8,6.7c1.1,2,3,3.5,5.3,4.1l42.1,11.9
		c0.8,0.2,1.6,0.3,2.4,0.3c3.8,0,7.3-2.5,8.4-6.4l19.2-67.3c0.6-2.2,0.4-4.6-0.8-6.7c-1.1-2-3-3.5-5.3-4.2l-42.2-12
		C504.8,294.6,502.4,294.9,500.4,296L500.4,296z M536,321.6l-14.4,50.5l-25.3-7.1l14.3-50.5L536,321.6L536,321.6z"/>
	<path d="M595,410.8c1.5,0,2.9-0.4,4.3-1.1c2-1.1,3.5-3,4.2-5.3l26.2-92.7c0.6-2.2,0.4-4.6-0.8-6.6c-1.1-2-3-3.5-5.3-4.2l-42.1-11.9
		c-4.6-1.3-9.5,1.4-10.8,6l-26.2,92.6c-1.3,4.6,1.4,9.5,6,10.8l42.1,12C593.4,410.7,594.2,410.8,595,410.8L595,410.8z"/>
	
		<use xlink:href="#n"  width="27.1" height="33.1" x="-13.6" y="-16.5" transform="matrix(1 0 0 1 85.7415 675.3279)" style="overflow:visible;"/>
	
		<use xlink:href="#i"  width="17.8" height="24.5" x="-8.9" y="-12.3" transform="matrix(1 0 0 1 114.6718 679.0005)" style="overflow:visible;"/>
	
		<use xlink:href="#a"  width="25.7" height="25.1" x="-12.8" y="-12.6" transform="matrix(1 0 0 1 138.4018 679.3127)" style="overflow:visible;"/>
	
		<use xlink:href="#h"  width="24.2" height="25.1" x="-12.1" y="-12.6" transform="matrix(1 0 0 1 167.3329 679.3119)" style="overflow:visible;"/>
	
		<use xlink:href="#g"  width="19.3" height="30.7" x="-9.7" y="-15.4" transform="matrix(1 0 0 1 193.1208 675.8906)" style="overflow:visible;"/>
	<g>
		<defs>
			<rect id="SVGID_1_" x="203.8" y="691.2" width="700" height="700"/>
		</defs>
		<clipPath id="SVGID_00000138547902491815548730000001121098772828748977_">
			<use xlink:href="#SVGID_1_"  style="overflow:visible;"/>
		</clipPath>
		<g style="clip-path:url(#SVGID_00000138547902491815548730000001121098772828748977_);">
			
				<use xlink:href="#a"  width="25.7" height="25.1" x="-12.8" y="-12.6" transform="matrix(1 0 0 1 218.5112 679.3127)" style="overflow:visible;"/>
		</g>
	</g>
	
		<use xlink:href="#f"  width="25.7" height="33.9" x="-12.8" y="-16.9" transform="matrix(1 0 0 1 248.2694 674.9456)" style="overflow:visible;"/>
	
		<use xlink:href="#e"  width="25.7" height="33.9" x="-12.8" y="-16.9" transform="matrix(1 0 0 1 296.5272 674.9459)" style="overflow:visible;"/>
	
		<use xlink:href="#d"  width="27.2" height="33.4" x="-13.6" y="-16.7" transform="matrix(1 0 0 1 325.4609 684.0079)" style="overflow:visible;"/>
	
		<use xlink:href="#c"  width="29.4" height="31.9" x="-14.7" y="-15.9" transform="matrix(1 0 0 1 369.9924 675.3044)" style="overflow:visible;"/>
	
		<use xlink:href="#b"  width="26.3" height="25.1" x="-13.1" y="-12.6" transform="matrix(1 0 0 1 399.9448 679.3127)" style="overflow:visible;"/>
	
		<use xlink:href="#m"  width="27.8" height="31.9" x="-13.9" y="-15.9" transform="matrix(1 0 0 1 430.8401 675.3043)" style="overflow:visible;"/>
	
		<use xlink:href="#l"  width="8.2" height="31.9" x="-4.1" y="-15.9" transform="matrix(1 0 0 1 454.8281 675.3045)" style="overflow:visible;"/>
	
		<use xlink:href="#k"  width="21.1" height="25.1" x="-10.6" y="-12.6" transform="matrix(1 0 0 1 475.418 679.3124)" style="overflow:visible;"/>
	<g>
		<defs>
			<rect id="SVGID_00000052795950212637652860000006894723159483426484_" x="488.9" y="691.2" width="700" height="700"/>
		</defs>
		<clipPath id="SVGID_00000124857302198592508690000016281508350690174643_">
			<use xlink:href="#SVGID_00000052795950212637652860000006894723159483426484_"  style="overflow:visible;"/>
		</clipPath>
		<g style="clip-path:url(#SVGID_00000124857302198592508690000016281508350690174643_);">
			
				<use xlink:href="#b"  width="26.3" height="25.1" x="-13.1" y="-12.6" transform="matrix(1 0 0 1 503.937 679.3127)" style="overflow:visible;"/>
		</g>
	</g>
	
		<use xlink:href="#j"  width="24.1" height="24.5" x="-12" y="-12.3" transform="matrix(1 0 0 1 534.6754 679.0007)" style="overflow:visible;"/>
</g>
</svg>
