<?xml version="1.0" encoding="utf-8"?>
<!-- Generator: Adobe Illustrator 27.3.1, SVG Export Plug-In . SVG Version: 6.00 Build 0)  -->
<svg version="1.1" id="Layer_1" xmlns="http://www.w3.org/2000/svg" xmlns:xlink="http://www.w3.org/1999/xlink" x="0px" y="0px"
	 viewBox="0 0 700 586.9" style="enable-background:new 0 0 700 586.9;" xml:space="preserve">
<symbol  id="a_2" viewBox="-1.6 -1.6 3.2 3.1">
	<path d="M1.6,0v0.3h-2.2c0,0.2,0.1,0.4,0.2,0.5c0.1,0.1,0.3,0.2,0.6,0.2c0.2,0,0.4,0,0.6-0.1C1,0.8,1.2,0.7,1.5,0.6v0.7
		C1.2,1.4,1,1.5,0.8,1.5c-0.2,0-0.5,0.1-0.7,0.1c-0.5,0-1-0.1-1.3-0.4C-1.5,0.9-1.6,0.5-1.6,0c0-0.5,0.1-0.9,0.4-1.1
		c0.3-0.3,0.7-0.4,1.2-0.4c0.5,0,0.8,0.1,1.1,0.4S1.6-0.5,1.6,0L1.6,0z M0.6-0.3c0-0.2-0.1-0.3-0.2-0.4C0.4-0.9,0.2-0.9,0.1-0.9
		c-0.2,0-0.3,0.1-0.5,0.2c-0.1,0.1-0.2,0.2-0.2,0.4L0.6-0.3z"/>
</symbol>
<symbol  id="b_2" viewBox="-1.1 -1.5 2.2 3.1">
	<path d="M1.1-0.6C1-0.7,0.9-0.7,0.9-0.7c-0.1,0-0.2,0-0.2,0C0.4-0.8,0.2-0.7,0-0.5c-0.1,0.2-0.2,0.4-0.2,0.7v1.4h-1v-3h1V-1
		C0-1.2,0.1-1.3,0.3-1.4c0.2-0.1,0.4-0.1,0.6-0.1h0.1c0,0,0.1,0,0.2,0L1.1-0.6z"/>
</symbol>
<symbol  id="c_2" viewBox="-1.2 -1.9 2.4 3.8">
	<path d="M0.2-1.9v0.9h1v0.7h-1v1.3c0,0.1,0,0.2,0.1,0.3c0.1,0,0.2,0.1,0.3,0.1h0.5v0.7H0.3c-0.4,0-0.7-0.1-0.8-0.2
		s-0.2-0.4-0.2-0.8v-1.3h-0.5v-0.7h0.5v-0.9L0.2-1.9z"/>
</symbol>
<symbol  id="d_2" viewBox="-1.6 -1.6 3.3 3.1">
	<path d="M0-0.9c-0.2,0-0.4,0.1-0.5,0.2C-0.6-0.5-0.6-0.3-0.6,0c0,0.3,0.1,0.5,0.2,0.7C-0.4,0.8-0.2,0.9,0,0.9
		c0.2,0,0.4-0.1,0.5-0.2C0.6,0.5,0.7,0.3,0.7,0c0-0.3-0.1-0.5-0.2-0.6C0.4-0.8,0.2-0.9,0-0.9z M0-1.6c0.5,0,0.9,0.1,1.2,0.4
		C1.5-0.9,1.6-0.5,1.6,0c0,0.5-0.1,0.9-0.4,1.2C0.9,1.4,0.5,1.6,0,1.6c-0.5,0-0.9-0.1-1.2-0.4C-1.5,0.9-1.6,0.5-1.6,0
		c0-0.5,0.1-0.9,0.4-1.1C-0.9-1.4-0.5-1.6,0-1.6z"/>
</symbol>
<symbol  id="e_2" viewBox="-1.2 -2.1 2.3 4.2">
	<path d="M1.2-2.1v0.6H0.6c-0.1,0-0.2,0-0.3,0.1C0.3-1.3,0.3-1.2,0.3-1.1v0.2h0.8v0.7H0.3v2.3h-1v-2.3h-0.5v-0.7h0.5v-0.2
		c0-0.3,0.1-0.6,0.3-0.7C-0.2-2,0.1-2.1,0.4-2.1L1.2-2.1z"/>
</symbol>
<symbol  id="f_2" viewBox="-1.5 -2.1 3 4.2">
	<path d="M1.5,0.2v1.8h-1V0.7c0-0.3,0-0.4,0-0.5c0-0.1,0-0.2-0.1-0.2c0-0.1-0.1-0.1-0.2-0.1c-0.1,0-0.1-0.1-0.2-0.1
		c-0.2,0-0.4,0.1-0.5,0.2c-0.1,0.2-0.2,0.4-0.2,0.6v1.5h-1v-4.2h1v1.6c0.1-0.2,0.3-0.3,0.5-0.4C0.1-0.9,0.3-1,0.4-1
		C0.8-1,1-0.9,1.2-0.7C1.4-0.4,1.5-0.1,1.5,0.2L1.5,0.2z"/>
</symbol>
<symbol  id="g_2" viewBox="-1.5 -1.5 3 3.1">
	<path d="M-1.5,0.3v-1.8h1v0.3v0.6v0.5c0,0.2,0,0.4,0,0.5c0,0.1,0,0.2,0.1,0.2c0,0.1,0.1,0.1,0.2,0.2c0.1,0,0.1,0,0.2,0
		c0.2,0,0.4-0.1,0.5-0.2c0.1-0.2,0.2-0.4,0.2-0.6v-1.5h1v3h-1V1C0.4,1.2,0.3,1.3,0.1,1.4c-0.2,0.1-0.3,0.1-0.5,0.1
		c-0.3,0-0.6-0.1-0.8-0.3C-1.4,1-1.5,0.7-1.5,0.3L-1.5,0.3z"/>
</symbol>
<symbol  id="h_2" viewBox="-1.8 -2 3.7 4">
	<path d="M-1.8-2h3.7v0.8H0.5V2h-1v-3.2h-1.3L-1.8-2z"/>
</symbol>
<symbol  id="i_2" viewBox="-1.7 -2.1 3.4 4.2">
	<path d="M-1.7-2.1h1l0.8,2l0.7-2h1L0.4,1.2C0.3,1.5,0.2,1.7,0,1.9C-0.2,2-0.4,2.1-0.7,2.1h-0.5V1.4h0.3c0.2,0,0.3,0,0.4-0.1
		c0.1-0.1,0.1-0.1,0.2-0.3l0-0.1L-1.7-2.1z"/>
</symbol>
<symbol  id="j_2" viewBox="-1.6 -2.1 3.2 4.2">
	<path d="M0,1.4c0.2,0,0.4-0.1,0.5-0.2c0.1-0.2,0.2-0.4,0.2-0.7c0-0.3-0.1-0.5-0.2-0.6C0.3-0.3,0.2-0.3,0-0.3
		c-0.2,0-0.4,0.1-0.5,0.2C-0.6,0-0.6,0.3-0.6,0.5c0,0.3,0.1,0.5,0.2,0.7C-0.4,1.4-0.2,1.4,0,1.4z M-0.6-0.5c0.1-0.2,0.3-0.3,0.4-0.4
		C-0.1-1,0.1-1,0.3-1C0.7-1,1-0.9,1.2-0.6c0.2,0.3,0.4,0.7,0.4,1.1c0,0.5-0.1,0.9-0.4,1.1C1,2,0.7,2.1,0.3,2.1c-0.2,0-0.4,0-0.6-0.1
		c-0.2-0.1-0.3-0.2-0.4-0.4V2h-1v-4.2h1V-0.5z"/>
</symbol>
<symbol  id="k_2" viewBox="-1.6 -2.1 3.2 4.2">
	<path d="M0.6-0.5v-1.6h1V2h-1V1.6C0.5,1.8,0.4,1.9,0.2,2C0.1,2.1-0.1,2.1-0.3,2.1C-0.7,2.1-1,2-1.3,1.7C-1.5,1.4-1.6,1-1.6,0.5
		c0-0.5,0.1-0.8,0.3-1.1C-1-0.9-0.7-1-0.3-1C-0.1-1,0-1,0.2-0.9C0.4-0.8,0.5-0.7,0.6-0.5L0.6-0.5z M0,1.4c0.2,0,0.4-0.1,0.5-0.2
		c0.1-0.2,0.2-0.4,0.2-0.7c0-0.3-0.1-0.5-0.2-0.6C0.4-0.3,0.2-0.3,0-0.3c-0.2,0-0.4,0.1-0.5,0.2C-0.6,0-0.6,0.3-0.6,0.5
		c0,0.3,0.1,0.5,0.2,0.7C-0.3,1.4-0.2,1.4,0,1.4z"/>
</symbol>
<symbol  id="l_2" viewBox="-1.5 -1.6 3 3.1">
	<path d="M0,0.1c-0.2,0-0.4,0-0.5,0.1c-0.1,0.1-0.1,0.2-0.1,0.3c0,0.1,0,0.2,0.1,0.3c0.1,0.1,0.2,0.1,0.3,0.1c0.2,0,0.3-0.1,0.5-0.2
		s0.2-0.3,0.2-0.5V0.1H0z M1.5-0.2v1.7h-1V1.1C0.4,1.2,0.3,1.4,0.1,1.4C0,1.5-0.2,1.6-0.5,1.6c-0.3,0-0.6-0.1-0.8-0.3
		c-0.2-0.2-0.3-0.4-0.3-0.7c0-0.4,0.1-0.6,0.4-0.8C-0.9-0.3-0.5-0.4,0-0.4h0.6v-0.1c0-0.2-0.1-0.3-0.2-0.3C0.2-0.9,0.1-0.9-0.2-0.9
		c-0.2,0-0.4,0-0.6,0.1c-0.2,0-0.3,0.1-0.5,0.2v-0.7c0.2-0.1,0.4-0.1,0.6-0.1c0.2,0,0.4,0,0.6,0c0.5,0,0.9,0.1,1.2,0.3
		C1.4-1,1.5-0.7,1.5-0.2L1.5-0.2z"/>
</symbol>
<symbol  id="m_2" viewBox="-1.3 -1.6 2.6 3.1">
	<path d="M1.3-1.4v0.8C1.2-0.7,1.1-0.8,0.9-0.8c-0.1,0-0.3-0.1-0.4-0.1C0.2-0.9,0-0.8-0.1-0.6C-0.3-0.5-0.3-0.3-0.3,0
		c0,0.3,0.1,0.5,0.2,0.7C0,0.8,0.2,0.9,0.5,0.9c0.1,0,0.3,0,0.4-0.1c0.1,0,0.3-0.1,0.4-0.2v0.8C1.2,1.5,1,1.5,0.9,1.5
		c-0.2,0-0.3,0-0.5,0c-0.5,0-1-0.1-1.3-0.4C-1.2,0.9-1.3,0.5-1.3,0c0-0.5,0.1-0.9,0.5-1.1c0.3-0.3,0.7-0.4,1.3-0.4
		c0.2,0,0.3,0,0.5,0C1-1.5,1.2-1.5,1.3-1.4L1.3-1.4z"/>
</symbol>
<symbol  id="n" viewBox="-0.8 -2.7 1.6 5.3">
	<path d="M-0.2-1.5h1v2.9c0,0.4-0.1,0.7-0.3,0.9C0.3,2.6,0,2.7-0.3,2.7h-0.5V2h0.2c0.2,0,0.3,0,0.4-0.1c0.1-0.1,0.1-0.2,0.1-0.5
		L-0.2-1.5z M-0.2-2.7h1v0.8h-1V-2.7z"/>
</symbol>
<symbol  id="o" viewBox="-1.6 -2 3.3 4">
	<path d="M-1.6-2h1.7C0.6-2,1-1.9,1.2-1.6c0.3,0.2,0.4,0.5,0.4,1c0,0.4-0.1,0.7-0.4,1C1,0.5,0.6,0.6,0.1,0.6h-0.7V2h-1L-1.6-2z
		 M-0.6-1.2v1.1H0c0.2,0,0.3,0,0.5-0.1c0.1-0.1,0.2-0.2,0.2-0.4c0-0.2-0.1-0.3-0.2-0.4C0.3-1.2,0.1-1.2,0-1.2L-0.6-1.2z"/>
</symbol>
<symbol  id="p" viewBox="-1.5 -1.5 3 3.1">
	<path d="M1.5-0.3v1.8h-1V0.1c0-0.3,0-0.4,0-0.5c0-0.1,0-0.2-0.1-0.2c0-0.1-0.1-0.1-0.2-0.1c-0.1,0-0.1-0.1-0.2-0.1
		c-0.2,0-0.4,0.1-0.5,0.2c-0.1,0.2-0.2,0.4-0.2,0.6v1.5h-1v-3h1V-1c0.1-0.2,0.3-0.3,0.5-0.4c0.2-0.1,0.3-0.1,0.5-0.1
		c0.3,0,0.6,0.1,0.8,0.3C1.4-1,1.5-0.7,1.5-0.3L1.5-0.3z"/>
</symbol>
<symbol  id="q" viewBox="-1.8 -2 3.6 4">
	<path d="M-1.8-2h1.2l1.4,2.7V-2h1v4H0.6l-1.4-2.7V2h-1L-1.8-2z"/>
</symbol>
<symbol  id="r" viewBox="-2.4 -1.5 4.8 3.1">
	<path d="M0.4-1c0.1-0.2,0.3-0.3,0.4-0.4C1-1.5,1.1-1.5,1.4-1.5c0.3,0,0.6,0.1,0.8,0.3C2.3-1,2.4-0.7,2.4-0.3v1.8h-1V0
		c0,0,0,0,0-0.1v-0.1c0-0.2,0-0.4-0.1-0.5S1.2-0.8,1.1-0.8c-0.2,0-0.3,0.1-0.4,0.2C0.5-0.4,0.5-0.2,0.5,0.1v1.5h-1V0
		c0-0.3,0-0.5-0.1-0.6c-0.1-0.1-0.2-0.1-0.3-0.1c-0.2,0-0.3,0.1-0.4,0.2c-0.1,0.1-0.1,0.4-0.1,0.6v1.5h-1v-3h1V-1
		C-1.3-1.2-1.2-1.3-1-1.4c0.2-0.1,0.3-0.1,0.5-0.1c0.2,0,0.4,0.1,0.5,0.2C0.2-1.3,0.3-1.1,0.4-1L0.4-1z"/>
</symbol>
<symbol  id="s" viewBox="-0.5 -2.1 1 4.2">
	<path d="M-0.5-0.9h1v3h-1V-0.9z M-0.5-2.1h1v0.8h-1V-2.1z"/>
</symbol>
<symbol  id="t" viewBox="-2.1 -2 4.2 4">
	<path d="M0.8,1.3h-1.6L-1.1,2h-1l1.5-4h1.2l1.5,4h-1L0.8,1.3z M-0.6,0.5h1.1L0-1.1L-0.6,0.5z"/>
</symbol>
<symbol  id="u" viewBox="-1.6 -2.1 3.2 4.3">
	<path d="M0.6,0.4C0.5,0.6,0.4,0.7,0.2,0.8C0.1,0.9-0.1,0.9-0.3,0.9c-0.4,0-0.7-0.1-0.9-0.4c-0.2-0.3-0.4-0.7-0.4-1.1
		c0-0.4,0.1-0.8,0.4-1.1C-1-2-0.7-2.1-0.3-2.1c0.2,0,0.4,0,0.5,0.1c0.2,0.1,0.3,0.2,0.4,0.4V-2h1v2.7c0,0.5-0.2,0.8-0.5,1.1
		C0.8,2,0.4,2.1-0.2,2.1c-0.2,0-0.4,0-0.5,0C-0.9,2-1.1,2-1.2,1.9V1.2c0.2,0.1,0.3,0.2,0.5,0.2c0.2,0.1,0.3,0.1,0.5,0.1
		c0.3,0,0.5-0.1,0.7-0.2c0.1-0.1,0.2-0.3,0.2-0.6L0.6,0.4z M0-1.4c-0.2,0-0.4,0.1-0.5,0.2c-0.1,0.1-0.2,0.4-0.2,0.6
		c0,0.3,0.1,0.5,0.2,0.6C-0.3,0.2-0.2,0.3,0,0.3c0.2,0,0.4-0.1,0.5-0.2c0.1-0.1,0.2-0.4,0.2-0.6c0-0.3-0.1-0.5-0.2-0.6
		C0.4-1.4,0.2-1.4,0-1.4z"/>
</symbol>
<symbol  id="v" viewBox="-1.7 -2.1 3.4 4.1">
	<path d="M1.7,1.8C1.5,1.9,1.3,1.9,1.1,2C0.9,2,0.7,2.1,0.5,2.1c-0.7,0-1.2-0.2-1.6-0.5C-1.5,1.1-1.7,0.6-1.7,0
		c0-0.6,0.2-1.1,0.6-1.5c0.4-0.4,0.9-0.6,1.6-0.6c0.2,0,0.4,0,0.6,0.1c0.2,0.1,0.4,0.1,0.6,0.2v0.8C1.5-1.1,1.3-1.2,1.1-1.2
		C1-1.3,0.8-1.3,0.6-1.3C0.2-1.3-0.1-1.2-0.3-1c-0.2,0.2-0.3,0.6-0.3,1c0,0.4,0.1,0.7,0.3,1c0.2,0.2,0.5,0.3,0.9,0.3
		c0.2,0,0.4,0,0.6-0.1c0.2-0.1,0.4-0.2,0.6-0.3V1.8z"/>
</symbol>
<g>
	<path d="M208.8,315.9h67.4c-4-7.9-7-16.4-8.9-25.4h-75.8l-29.8,12.9c-0.8,0.4-1.6,0.7-2.6,0.7h-38.3c-4,12-19.4,15.8-28.5,6.7
		c-10.8-10.8-3.1-29.3,12.1-29.3c7.4,0,14,4.8,16.3,11.7H158l30.2-13.1c0.8-0.3,1.4-0.4,2.2-0.4h75.4c-0.5-6.1-0.5-12.2,0-18.4
		h-75.4c-0.8,0-1.4-0.1-2.2-0.4l-30.2-13h-37.2c-4,12-19.4,15.8-28.5,6.7c-10.8-10.8-3.1-29.4,12.1-29.4c7.4,0,14,4.8,16.3,11.7H159
		c1,0,1.9,0.2,2.6,0.7l29.8,12.9h75.8c1.8-9,4.8-17.5,8.9-25.4h-67.4c-2.1,0-4-1.2-4.9-3.2l-14.1-30.4h-68.9
		c-4,12-19.4,15.8-28.5,6.7c-10.8-10.8-3.1-29.3,12.1-29.3c7.4,0,14,4.8,16.3,11.7h20.9v-59.1c0-9.6,7.9-17.5,17.5-17.5h414
		c9.6,0,17.5,7.9,17.5,17.5v267.4c0,9.6-7.9,17.5-17.5,17.5H398.2V445h93.6c7.4,0,12.8,6.9,12.8,14.4v32.8c0,3-2.4,5.5-5.5,5.5
		h-63.9c-1.1,0-2.1-0.3-3-0.9l-20.9-10.7h-90.7l-21.3,10.9c-0.8,0.4-1.6,0.7-2.5,0.7H233c-3,0-5.5-2.4-5.5-5.5v-32.8
		c0-7.4,5.2-14.4,12.8-14.4H334v-38.8H159.2c-9.6,0-17.5-7.9-17.5-17.5v-28.3h-20.9c-4,12-19.4,15.8-28.5,6.7
		c-10.8-10.8-3.1-29.3,12.1-29.3c7.4,0,14,4.8,16.3,11.7h68.9l14.1-30.4C204.8,317.1,206.8,315.9,208.8,315.9L208.8,315.9z
		 M282.7,326.8h-70.3l-14,30.1c-0.8,2.1-2.8,3.5-5.1,3.5h-40.6v28.3c0,3.5,3,6.6,6.6,6.6h413.8c3.6,0,6.6-3,6.6-6.6V121.3
		c0-3.6-3-6.6-6.6-6.6H159.2c-3.6,0-6.6,3-6.6,6.6v59h40.6c2.3,0,4.3,1.4,5.1,3.5l14,30.2h70.3c35.8-52.7,110.2-59.2,154.7-14.8
		c39.4,39.4,39.4,103.1,0,142.5C392.9,386,318.4,379.6,282.7,326.8L282.7,326.8z M109,190.2c3.9-3.9,1.1-10.7-4.5-10.7
		s-8.4,6.8-4.5,10.7C102.5,192.6,106.6,192.6,109,190.2z M109,359.4c3.9-3.9,1.1-10.7-4.5-10.7s-8.4,6.8-4.5,10.7
		C102.5,361.8,106.6,361.8,109,359.4z M109,303c3.9-3.9,1.1-10.7-4.5-10.7S96.1,299,100,303C102.5,305.5,106.6,305.5,109,303z
		 M109,246.5c3.9-3.9,1.1-10.7-4.5-10.7s-8.4,6.8-4.5,10.7C102.5,249,106.6,249,109,246.5z M276.4,264.9h40.7
		c0.3-13.2,1.9-25.8,4.4-37.2c-9.8-2.6-19.1-6.2-27.8-10.5C283.7,230.7,277.5,247.1,276.4,264.9L276.4,264.9z M328,264.9h76
		c-0.3-12.5-1.8-24.2-4-34.7c-22.2,4.5-45.6,4.5-67.8,0C329.8,240.7,328.4,252.4,328,264.9L328,264.9z M415,264.9h40.7
		c-1.1-17.8-7.3-34.2-17.3-47.8c-8.6,4.3-17.9,7.9-27.8,10.5C413.1,239.1,414.7,251.5,415,264.9L415,264.9z M455.7,275.8H415
		c-0.3,13.2-1.9,25.8-4.5,37.2c9.8,2.7,19.1,6.2,27.8,10.5C448.4,310,454.6,293.7,455.7,275.8L455.7,275.8z M404.1,275.8h-76
		c0.3,12.4,1.8,24.2,4,34.7c22.2-4.5,45.6-4.5,67.8,0C402.3,299.9,403.7,288.2,404.1,275.8L404.1,275.8z M317.1,275.8h-40.7
		c1.1,17.8,7.3,34.2,17.3,47.8c8.6-4.3,17.9-7.9,27.8-10.5C319,301.6,317.4,289.1,317.1,275.8L317.1,275.8z M392,184.4
		c7.2,9.1,12.4,20.9,15.9,32.7c8.2-2.3,16.1-5.1,23.3-8.6C420.6,197.3,407.1,188.9,392,184.4L392,184.4z M407.9,323.6
		c-3.5,11.8-8.6,23.6-15.9,32.7c15.1-4.5,28.5-12.9,39.2-24.2C423.9,328.7,416.1,325.8,407.9,323.6L407.9,323.6z M340.1,356.3
		c-7.2-9.1-12.4-21-15.9-32.7c-8.2,2.2-16,5.1-23.3,8.6C311.5,343.3,325,351.7,340.1,356.3L340.1,356.3z M324.2,217.1
		c3.5-11.8,8.6-23.6,15.9-32.7c-15.1,4.6-28.5,13-39.2,24.2C308.2,212,316,214.8,324.2,217.1L324.2,217.1z M391.9,205.3
		c-15-32.9-36.6-32.9-51.7,0c-2,4.4-3.8,9.2-5.4,14.3c20.2,4,42.1,4,62.3,0C395.6,214.4,393.9,209.5,391.9,205.3L391.9,205.3z
		 M334.9,321.1c5,16.7,15.9,39,31.2,39c15.2,0,26.1-22.3,31.2-39C376.9,317.1,355.2,317.1,334.9,321.1z M525.7,137.6
		c-7.2,0-7.2-10.9,0-10.9h23.8c7.2,0,7.2,10.9,0,10.9H525.7z M471.4,137.6c-7.2,0-7.2-10.9,0-10.9h23.8c7.2,0,7.2,10.9,0,10.9H471.4
		z M417.2,137.6c-7.2,0-7.2-10.9,0-10.9H441c7.2,0,7.2,10.9,0,10.9H417.2z M362.9,137.6c-7.2,0-7.2-10.9,0-10.9h23.8
		c7.2,0,7.2,10.9,0,10.9H362.9z M179.1,137.6c-7.2,0-7.2-10.9,0-10.9h37.4c7.2,0,7.2,10.9,0,10.9H179.1z M398.2,456v2.1
		c0,3-2.4,5.5-5.5,5.5h-53.3c-3.1,0-5.5-2.4-5.5-5.5V456h-93.6c-0.9,0-1.8,1.9-1.8,3.4v27.5h57.1l20.9-10.7c0.9-0.5,1.9-0.9,3-0.9
		h93.2c0.9,0,1.6,0.2,2.5,0.5l21.3,10.9h57.1v-27.3c0-1.6-1-3.4-1.9-3.4L398.2,456z M344.9,406.2v46.4h42.3v-46.4H344.9z"/>
	
		<use xlink:href="#v"  width="3.4" height="4.1" x="-1.7" y="-2.1" transform="matrix(1 0 0 1 60.8404 595.187)" style="overflow:visible;"/>
	
		<use xlink:href="#b_2"  width="2.2" height="3.1" x="-1.1" y="-1.5" transform="matrix(1 0 0 1 64.4615 595.6478)" style="overflow:visible;"/>
	
		<use xlink:href="#a_2"  width="3.2" height="3.1" x="-1.6" y="-1.6" transform="matrix(1 0 0 1 67.4264 595.6869)" style="overflow:visible;"/>
	
		<use xlink:href="#l_2"  width="3" height="3.1" x="-1.5" y="-1.6" transform="matrix(1 0 0 1 71.0476 595.6868)" style="overflow:visible;"/>
	
		<use xlink:href="#c_2"  width="2.4" height="3.8" x="-1.2" y="-1.9" transform="matrix(1 0 0 1 74.2701 595.2571)" style="overflow:visible;"/>
	<g>
		<defs>
			<rect id="SVGID_1_" x="75.6" y="597.2" width="700" height="700"/>
		</defs>
		<clipPath id="SVGID_00000152236608163506169940000005609710253925433252_">
			<use xlink:href="#SVGID_1_"  style="overflow:visible;"/>
		</clipPath>
		<g style="clip-path:url(#SVGID_00000152236608163506169940000005609710253925433252_);">
			
				<use xlink:href="#a_2"  width="3.2" height="3.1" x="-1.6" y="-1.6" transform="matrix(1 0 0 1 77.4381 595.6869)" style="overflow:visible;"/>
		</g>
	</g>
	
		<use xlink:href="#k_2"  width="3.2" height="4.2" x="-1.6" y="-2.1" transform="matrix(1 0 0 1 81.1646 595.14)" style="overflow:visible;"/>
	
		<use xlink:href="#j_2"  width="3.2" height="4.2" x="-1.6" y="-2.1" transform="matrix(1 0 0 1 87.192 595.14)" style="overflow:visible;"/>
	
		<use xlink:href="#i_2"  width="3.4" height="4.2" x="-1.7" y="-2.1" transform="matrix(1 0 0 1 90.8131 596.2806)" style="overflow:visible;"/>
	
		<use xlink:href="#h_2"  width="3.7" height="4" x="-1.8" y="-2" transform="matrix(1 0 0 1 96.3834 595.1869)" style="overflow:visible;"/>
	<g>
		<defs>
			<rect id="SVGID_00000028303151546711181840000008968530285095403403_" x="98.2" y="597.2" width="700" height="700"/>
		</defs>
		<clipPath id="SVGID_00000027591226844934904400000015428053927415574430_">
			<use xlink:href="#SVGID_00000028303151546711181840000008968530285095403403_"  style="overflow:visible;"/>
		</clipPath>
		<g style="clip-path:url(#SVGID_00000027591226844934904400000015428053927415574430_);">
			
				<use xlink:href="#a_2"  width="3.2" height="3.1" x="-1.6" y="-1.6" transform="matrix(1 0 0 1 100.0826 595.6869)" style="overflow:visible;"/>
		</g>
	</g>
	
		<use xlink:href="#u"  width="3.2" height="4.3" x="-1.6" y="-2.1" transform="matrix(1 0 0 1 103.8053 596.2415)" style="overflow:visible;"/>
	
		<use xlink:href="#g_2"  width="3" height="3.1" x="-1.5" y="-1.5" transform="matrix(1 0 0 1 107.7975 595.7259)" style="overflow:visible;"/>
	
		<use xlink:href="#f_2"  width="3" height="4.2" x="-1.5" y="-2.1" transform="matrix(1 0 0 1 111.7233 595.1011)" style="overflow:visible;"/>
	
		<use xlink:href="#t"  width="4.2" height="4" x="-2.1" y="-2" transform="matrix(1 0 0 1 117.6765 595.1869)" style="overflow:visible;"/>
	<g>
		<defs>
			<rect id="SVGID_00000099658824910097112300000015062047343104851643_" x="119.8" y="597.2" width="700" height="700"/>
		</defs>
		<clipPath id="SVGID_00000049213603496846380840000016134722123695545008_">
			<use xlink:href="#SVGID_00000099658824910097112300000015062047343104851643_"  style="overflow:visible;"/>
		</clipPath>
		<g style="clip-path:url(#SVGID_00000049213603496846380840000016134722123695545008_);">
			
				<use xlink:href="#b_2"  width="2.2" height="3.1" x="-1.1" y="-1.5" transform="matrix(1 0 0 1 121.36 595.6478)" style="overflow:visible;"/>
		</g>
	</g>
	
		<use xlink:href="#s"  width="1" height="4.2" x="-0.5" y="-2.1" transform="matrix(1 0 0 1 123.4264 595.101)" style="overflow:visible;"/>
	
		<use xlink:href="#e_2"  width="2.3" height="4.2" x="-1.2" y="-2.1" transform="matrix(1 0 0 1 125.6295 595.101)" style="overflow:visible;"/>
	<g>
		<defs>
			<rect id="SVGID_00000073687312146474050940000015032439291866826118_" x="58.9" y="602.6" width="700" height="700"/>
		</defs>
		<clipPath id="SVGID_00000102539387766516573170000004778867152268532116_">
			<use xlink:href="#SVGID_00000073687312146474050940000015032439291866826118_"  style="overflow:visible;"/>
		</clipPath>
		<g style="clip-path:url(#SVGID_00000102539387766516573170000004778867152268532116_);">
			
				<use xlink:href="#e_2"  width="2.3" height="4.2" x="-1.2" y="-2.1" transform="matrix(1 0 0 1 60.1452 600.5698)" style="overflow:visible;"/>
		</g>
	</g>
	<g>
		<defs>
			<rect id="SVGID_00000174583250541502036900000017092472276773051061_" x="61.3" y="602.6" width="700" height="700"/>
		</defs>
		<clipPath id="SVGID_00000089575684542180731320000016609288608090678924_">
			<use xlink:href="#SVGID_00000174583250541502036900000017092472276773051061_"  style="overflow:visible;"/>
		</clipPath>
		<g style="clip-path:url(#SVGID_00000089575684542180731320000016609288608090678924_);">
			
				<use xlink:href="#b_2"  width="2.2" height="3.1" x="-1.1" y="-1.5" transform="matrix(1 0 0 1 62.8287 601.1166)" style="overflow:visible;"/>
		</g>
	</g>
	
		<use xlink:href="#d_2"  width="3.3" height="3.1" x="-1.6" y="-1.6" transform="matrix(1 0 0 1 65.8326 601.1556)" style="overflow:visible;"/>
	
		<use xlink:href="#r"  width="4.8" height="3.1" x="-2.4" y="-1.5" transform="matrix(1 0 0 1 70.5709 601.1166)" style="overflow:visible;"/>
	<g>
		<defs>
			<rect id="SVGID_00000112606610966874311790000001204429038538522777_" x="75.3" y="602.6" width="700" height="700"/>
		</defs>
		<clipPath id="SVGID_00000099658833010589110860000009112492039667817865_">
			<use xlink:href="#SVGID_00000112606610966874311790000001204429038538522777_"  style="overflow:visible;"/>
		</clipPath>
		<g style="clip-path:url(#SVGID_00000099658833010589110860000009112492039667817865_);">
			
				<use xlink:href="#c_2"  width="2.4" height="3.8" x="-1.2" y="-1.9" transform="matrix(1 0 0 1 76.5983 600.7259)" style="overflow:visible;"/>
		</g>
	</g>
	<g>
		<defs>
			<rect id="SVGID_00000150806474922707443670000005075946099897716123_" x="77.9" y="602.6" width="700" height="700"/>
		</defs>
		<clipPath id="SVGID_00000034783557909348637930000011651542369974310310_">
			<use xlink:href="#SVGID_00000150806474922707443670000005075946099897716123_"  style="overflow:visible;"/>
		</clipPath>
		<g style="clip-path:url(#SVGID_00000034783557909348637930000011651542369974310310_);">
			
				<use xlink:href="#f_2"  width="3" height="4.2" x="-1.5" y="-2.1" transform="matrix(1 0 0 1 79.8913 600.5698)" style="overflow:visible;"/>
		</g>
	</g>
	<g>
		<defs>
			<rect id="SVGID_00000005268137442666621670000005921363779567265413_" x="81.8" y="602.6" width="700" height="700"/>
		</defs>
		<clipPath id="SVGID_00000101817981093754701470000009198978699401572537_">
			<use xlink:href="#SVGID_00000005268137442666621670000005921363779567265413_"  style="overflow:visible;"/>
		</clipPath>
		<g style="clip-path:url(#SVGID_00000101817981093754701470000009198978699401572537_);">
			
				<use xlink:href="#a_2"  width="3.2" height="3.1" x="-1.6" y="-1.6" transform="matrix(1 0 0 1 83.6569 601.1556)" style="overflow:visible;"/>
		</g>
	</g>
	
		<use xlink:href="#q"  width="3.6" height="4" x="-1.8" y="-2" transform="matrix(1 0 0 1 89.7232 600.6556)" style="overflow:visible;"/>
	<g>
		<defs>
			<rect id="SVGID_00000077284185520383538400000007332582196928444545_" x="92" y="602.6" width="700" height="700"/>
		</defs>
		<clipPath id="SVGID_00000076565972254345000270000018184399421017039242_">
			<use xlink:href="#SVGID_00000077284185520383538400000007332582196928444545_"  style="overflow:visible;"/>
		</clipPath>
		<g style="clip-path:url(#SVGID_00000076565972254345000270000018184399421017039242_);">
			
				<use xlink:href="#d_2"  width="3.3" height="3.1" x="-1.6" y="-1.6" transform="matrix(1 0 0 1 93.8873 601.1556)" style="overflow:visible;"/>
		</g>
	</g>
	<g>
		<defs>
			<rect id="SVGID_00000125601415610995748650000016777851355820483491_" x="95.8" y="602.6" width="700" height="700"/>
		</defs>
		<clipPath id="SVGID_00000151538123515166724520000008131379480291228092_">
			<use xlink:href="#SVGID_00000125601415610995748650000016777851355820483491_"  style="overflow:visible;"/>
		</clipPath>
		<g style="clip-path:url(#SVGID_00000151538123515166724520000008131379480291228092_);">
			
				<use xlink:href="#g_2"  width="3" height="3.1" x="-1.5" y="-1.5" transform="matrix(1 0 0 1 97.6998 601.1946)" style="overflow:visible;"/>
		</g>
	</g>
	
		<use xlink:href="#p"  width="3" height="3.1" x="-1.5" y="-1.5" transform="matrix(1 0 0 1 101.6256 601.1166)" style="overflow:visible;"/>
	
		<use xlink:href="#o"  width="3.3" height="4" x="-1.6" y="-2" transform="matrix(1 0 0 1 107.6022 600.6556)" style="overflow:visible;"/>
	<g>
		<defs>
			<rect id="SVGID_00000156567887264638631400000012084961686993342140_" x="109.5" y="602.6" width="700" height="700"/>
		</defs>
		<clipPath id="SVGID_00000073708685712305512720000010761654239972577180_">
			<use xlink:href="#SVGID_00000156567887264638631400000012084961686993342140_"  style="overflow:visible;"/>
		</clipPath>
		<g style="clip-path:url(#SVGID_00000073708685712305512720000010761654239972577180_);">
			
				<use xlink:href="#b_2"  width="2.2" height="3.1" x="-1.1" y="-1.5" transform="matrix(1 0 0 1 111.0397 601.1166)" style="overflow:visible;"/>
		</g>
	</g>
	<g>
		<defs>
			<rect id="SVGID_00000170958568243471199290000013206809772577431214_" x="112.2" y="602.6" width="700" height="700"/>
		</defs>
		<clipPath id="SVGID_00000142866097186812106290000010386888866055544722_">
			<use xlink:href="#SVGID_00000170958568243471199290000013206809772577431214_"  style="overflow:visible;"/>
		</clipPath>
		<g style="clip-path:url(#SVGID_00000142866097186812106290000010386888866055544722_);">
			
				<use xlink:href="#d_2"  width="3.3" height="3.1" x="-1.6" y="-1.6" transform="matrix(1 0 0 1 114.0397 601.1556)" style="overflow:visible;"/>
		</g>
	</g>
	
		<use xlink:href="#n"  width="1.6" height="5.3" x="-0.8" y="-2.7" transform="matrix(1 0 0 1 116.5396 601.1635)" style="overflow:visible;"/>
	<g>
		<defs>
			<rect id="SVGID_00000137831179793928641730000003741987005517633956_" x="117.8" y="602.6" width="700" height="700"/>
		</defs>
		<clipPath id="SVGID_00000133511621052311891630000014581534635621107383_">
			<use xlink:href="#SVGID_00000137831179793928641730000003741987005517633956_"  style="overflow:visible;"/>
		</clipPath>
		<g style="clip-path:url(#SVGID_00000133511621052311891630000014581534635621107383_);">
			
				<use xlink:href="#a_2"  width="3.2" height="3.1" x="-1.6" y="-1.6" transform="matrix(1 0 0 1 119.6334 601.1556)" style="overflow:visible;"/>
		</g>
	</g>
	
		<use xlink:href="#m_2"  width="2.6" height="3.1" x="-1.3" y="-1.6" transform="matrix(1 0 0 1 123.0592 601.1557)" style="overflow:visible;"/>
	<g>
		<defs>
			<rect id="SVGID_00000043430245198026046260000002848369633101915827_" x="124.7" y="602.6" width="700" height="700"/>
		</defs>
		<clipPath id="SVGID_00000168839735839638356720000017798197480890713009_">
			<use xlink:href="#SVGID_00000043430245198026046260000002848369633101915827_"  style="overflow:visible;"/>
		</clipPath>
		<g style="clip-path:url(#SVGID_00000168839735839638356720000017798197480890713009_);">
			
				<use xlink:href="#c_2"  width="2.4" height="3.8" x="-1.2" y="-1.9" transform="matrix(1 0 0 1 126.0279 600.7259)" style="overflow:visible;"/>
		</g>
	</g>
</g>
</svg>
