<?xml version="1.0" encoding="utf-8"?>
<!-- Generator: Adobe Illustrator 26.2.1, SVG Export Plug-In . SVG Version: 6.00 Build 0)  -->
<svg version="1.1" id="Layer_1" xmlns="http://www.w3.org/2000/svg" xmlns:xlink="http://www.w3.org/1999/xlink" x="0px" y="0px"
	 viewBox="0 0 700 586.9" style="enable-background:new 0 0 700 586.9;" xml:space="preserve">
<symbol  id="a" viewBox="-12.8 -16.9 25.7 33.9">
	<path d="M5.1-4.1v-12.8h7.7v33.2H5.1v-3.5c-1.1,1.4-2.2,2.4-3.5,3.1c-1.3,0.7-2.7,1-4.4,1c-2.9,0-5.4-1.2-7.3-3.5
		c-1.9-2.3-2.8-5.4-2.8-9s0.9-6.7,2.8-9C-8.1-7-5.7-8.2-2.7-8.2c1.7,0,3.1,0.3,4.4,1C2.9-6.5,4.1-5.5,5.1-4.1L5.1-4.1z M0.1,11.4
		c1.6,0,2.9-0.6,3.8-1.8c0.9-1.2,1.3-2.9,1.3-5.2c0-2.3-0.4-4-1.3-5.2C3-2,1.7-2.6,0.1-2.6c-1.6,0-2.9,0.6-3.7,1.8
		c-0.9,1.2-1.3,2.9-1.3,5.2c0,2.3,0.4,4,1.3,5.2C-2.8,10.8-1.5,11.4,0.1,11.4z"/>
</symbol>
<symbol  id="b" viewBox="-12.1 -12.6 24.2 25.1">
	<path d="M0.4,1.2c-1.6,0-2.8,0.3-3.6,0.8C-4,2.5-4.4,3.3-4.4,4.4c0,1,0.3,1.7,1,2.3c0.6,0.5,1.5,0.8,2.7,0.8c1.4,0,2.6-0.5,3.6-1.5
		c1-1,1.5-2.3,1.5-3.9V1.2L0.4,1.2z M12.1-1.7v13.7H4.4V8.4c-1,1.4-2.2,2.5-3.5,3.2c-1.3,0.7-2.8,1-4.7,1c-2.5,0-4.5-0.7-6-2.2
		c-1.5-1.4-2.3-3.3-2.3-5.6c0-2.8,1-4.9,2.9-6.2c1.9-1.3,5-2,9.1-2h4.5V-4c0-1.2-0.5-2.1-1.4-2.7C2-7.2,0.5-7.5-1.5-7.5
		c-1.6,0-3.2,0.2-4.6,0.5C-7.5-6.7-8.8-6.2-10-5.5v-5.8c1.6-0.4,3.3-0.7,4.9-0.9c1.7-0.2,3.3-0.3,5-0.3c4.3,0,7.4,0.9,9.3,2.6
		C11.1-8.3,12.1-5.5,12.1-1.7L12.1-1.7z"/>
</symbol>
<symbol  id="c" viewBox="-12.8 -12.6 25.7 25.1">
	<path d="M12.8-0.1v2.2H-5c0.2,1.8,0.8,3.1,1.9,4C-2,7-0.4,7.5,1.6,7.5c1.6,0,3.3-0.2,4.9-0.7c1.7-0.5,3.4-1.2,5.2-2.2v5.9
		c-1.8,0.7-3.6,1.2-5.4,1.5c-1.8,0.4-3.6,0.5-5.4,0.5c-4.3,0-7.7-1.1-10.1-3.3C-11.6,7.1-12.8,4-12.8,0c0-3.9,1.2-7,3.5-9.2
		c2.4-2.2,5.6-3.4,9.7-3.4c3.8,0,6.8,1.1,9,3.4C11.7-6.9,12.8-3.9,12.8-0.1L12.8-0.1z M5-2.6c0-1.5-0.4-2.6-1.3-3.5
		C2.9-7,1.8-7.5,0.4-7.5c-1.5,0-2.7,0.4-3.6,1.2c-0.9,0.8-1.5,2-1.7,3.6H5z"/>
</symbol>
<symbol  id="d" viewBox="-13.1 -12.6 26.3 25.1">
	<path d="M0-7.1c-1.7,0-3,0.6-3.9,1.8C-4.7-4-5.2-2.3-5.2,0c0,2.3,0.4,4,1.3,5.3C-3,6.5-1.7,7.1,0,7.1c1.7,0,2.9-0.6,3.8-1.8
		C4.7,4,5.2,2.3,5.2,0c0-2.3-0.4-4-1.3-5.3C3-6.5,1.7-7.1,0-7.1z M0-12.6c4.1,0,7.3,1.1,9.6,3.3s3.5,5.3,3.5,9.2
		c0,3.9-1.2,7-3.5,9.2c-2.3,2.2-5.5,3.3-9.6,3.3c-4.1,0-7.4-1.1-9.7-3.3C-12,7-13.1,3.9-13.1,0c0-3.9,1.2-7,3.5-9.2
		C-7.3-11.5-4.1-12.6,0-12.6z"/>
</symbol>
<symbol  id="e" viewBox="-14.4 -15.9 28.8 31.9">
	<path d="M-2.7-1.8c1.7,0,3-0.3,3.7-1c0.8-0.6,1.1-1.7,1.1-3.2C2.1-7.4,1.7-8.4,1-9c-0.8-0.6-2-1-3.7-1h-3.5v8.2L-2.7-1.8z
		 M-6.2,3.9v12.1h-8.2v-31.9h12.6c4.2,0,7.3,0.7,9.2,2.1c2,1.4,2.9,3.6,2.9,6.7C10.3-5,9.8-3.3,8.8-2c-1,1.4-2.5,2.4-4.6,3
		c1.1,0.2,2.1,0.8,3,1.7C8.1,3.7,9,5.1,9.9,6.9l4.5,9.1H5.6L1.8,8C1,6.4,0.2,5.3-0.6,4.8c-0.8-0.6-1.9-0.9-3.2-0.9L-6.2,3.9z"/>
</symbol>
<symbol  id="f" viewBox="-13.6 -16.7 27.2 33.4">
	<path d="M-13.6-16.7h7.7L0.5-0.4l5.5-16.2h7.7L3.5,9.5c-1,2.7-2.2,4.5-3.5,5.6c-1.3,1.1-3.1,1.6-5.3,1.6h-4.4v-5h2.4
		c1.3,0,2.2-0.2,2.8-0.6c0.6-0.4,1.1-1.1,1.4-2.2l0.2-0.7L-13.6-16.7z"/>
</symbol>
<symbol  id="g" viewBox="-12.8 -16.9 25.7 33.9">
	<path d="M-0.1,11.4c1.6,0,2.9-0.6,3.8-1.8c0.9-1.2,1.3-2.9,1.3-5.2c0-2.3-0.4-4-1.3-5.2C2.8-2,1.5-2.6-0.1-2.6
		C-1.7-2.6-3-2-3.9-0.8c-0.9,1.2-1.3,2.9-1.3,5.2c0,2.3,0.4,4,1.3,5.2C-3,10.8-1.7,11.4-0.1,11.4L-0.1,11.4z M-5.2-4.1
		C-4.1-5.5-3-6.5-1.7-7.2c1.3-0.7,2.8-1,4.4-1C5.7-8.2,8.1-7,10-4.7c1.9,2.3,2.8,5.4,2.8,9s-0.9,6.7-2.8,9c-1.9,2.3-4.3,3.5-7.3,3.5
		c-1.7,0-3.1-0.3-4.4-1s-2.4-1.7-3.5-3.1v3.5h-7.7v-33.2h7.7V-4.1z"/>
</symbol>
<symbol  id="h" viewBox="-9.7 -15.4 19.3 30.7">
	<path d="M1.8-15.4v6.8h7.9v5.5H1.8V7c0,1.1,0.2,1.9,0.7,2.3c0.4,0.4,1.3,0.6,2.6,0.6H9v5.5H2.4c-3,0-5.2-0.6-6.4-1.9
		c-1.3-1.3-1.9-3.4-1.9-6.4V-3.1h-3.8v-5.5h3.8v-6.8L1.8-15.4z"/>
</symbol>
<symbol  id="i" viewBox="-8.9 -12.3 17.8 24.5">
	<path d="M8.9-5.2c-0.7-0.3-1.4-0.5-2-0.7C6.2-6,5.6-6.1,4.9-6.1c-2,0-3.5,0.6-4.5,1.9c-1.1,1.3-1.6,3.1-1.6,5.4v11h-7.7v-23.9h7.7
		v3.9c1-1.6,2.1-2.7,3.4-3.4c1.3-0.7,2.8-1.1,4.6-1.1c0.2,0,0.5,0,0.8,0c0.3,0,0.7,0.1,1.3,0.1L8.9-5.2z"/>
</symbol>
<symbol  id="j" viewBox="-12 -12.3 24.1 24.5">
	<path d="M12-2.3v14.6H4.3V1.1c0-2.1,0-3.5-0.1-4.3C4.1-4,3.9-4.5,3.7-4.9C3.4-5.4,3-5.8,2.5-6.1C2-6.3,1.4-6.5,0.7-6.5
		c-1.6,0-2.9,0.6-3.8,1.8c-0.9,1.2-1.4,2.9-1.4,5.1v11.8H-12v-23.9h7.7v3.5c1.1-1.4,2.4-2.4,3.7-3.1c1.3-0.7,2.7-1,4.3-1
		c2.8,0,4.9,0.9,6.3,2.5C11.3-8,12-5.6,12-2.3L12-2.3z"/>
</symbol>
<symbol  id="k" viewBox="-3.8 -16.6 7.7 33.2">
	<path d="M-3.8-16.6h7.7v33.2h-7.7L-3.8-16.6z"/>
</symbol>
<symbol  id="l" viewBox="-19.3 -12.3 38.5 24.5">
	<path d="M3-7.7c1-1.5,2.1-2.6,3.5-3.4c1.3-0.8,2.8-1.2,4.4-1.2c2.8,0,4.8,0.9,6.3,2.5c1.4,1.7,2.2,4.2,2.2,7.4v14.6h-7.7V-0.2
		c0-0.2,0-0.4,0-0.6c0-0.2,0-0.5,0-0.9c0-1.7-0.2-2.9-0.8-3.7c-0.5-0.8-1.3-1.1-2.4-1.1C7-6.5,5.9-5.9,5.1-4.7
		C4.3-3.5,3.9-1.8,3.8,0.5v11.8h-7.7V-0.2c0-2.7-0.2-4.4-0.7-5.1C-5-6.1-5.8-6.5-7-6.5c-1.5,0-2.6,0.6-3.4,1.8
		c-0.8,1.2-1.2,2.9-1.2,5.2v11.8h-7.7v-23.9h7.7v3.5c0.9-1.4,2-2.4,3.2-3c1.2-0.7,2.6-1,4-1c1.7,0,3.1,0.4,4.4,1.2
		C1.3-10.3,2.3-9.1,3-7.7L3-7.7z"/>
</symbol>
<symbol  id="m" viewBox="-13.6 -16.5 27.1 33.1">
	<path d="M13.6,14.2c-1.5,0.8-3.1,1.4-4.7,1.8c-1.6,0.4-3.3,0.6-5.1,0.6c-5.3,0-9.5-1.5-12.6-4.5c-3.1-3-4.7-7-4.7-12.1
		s1.6-9.1,4.7-12.1c3.1-3,7.3-4.5,12.6-4.5c1.8,0,3.5,0.2,5.1,0.6c1.6,0.4,3.2,1,4.7,1.8v6.6c-1.5-1-3-1.8-4.5-2.3
		c-1.5-0.5-3-0.7-4.7-0.7c-2.9,0-5.2,0.9-6.9,2.8C-4.2-5.9-5.1-3.3-5.1,0c0,3.3,0.8,5.9,2.5,7.8c1.7,1.9,4,2.8,6.9,2.8
		c1.6,0,3.2-0.2,4.7-0.7c1.5-0.5,3-1.3,4.5-2.3V14.2z"/>
</symbol>
<g>
	<path d="M598.5,412.1L527.2,352c2.3-4.3,3.8-9.1,4.2-14.1c0.8-9.7-2.2-19.1-8.4-26.5c-4.6-5.4-10.5-9.3-17.2-11.3
		c9.9-13.2,9.8-32-1.3-45.2c-4.8-5.7-11.1-9.7-18.3-11.6c7.9-13,7.1-30.1-3.2-42.4c-5.7-6.8-13.6-11.1-22.3-12.4
		c4-11.7,2-25.1-6.5-35.3c-6.2-7.4-15-11.9-24.7-12.7c-9.7-0.8-19.1,2.2-26.5,8.4l-1.3,1.1l-40.8-19c-21.4-11.1-40.1-2.4-49.1,11.2
		c-3,4.5-4.9,9.4-5.8,14.3l-8.9-7.5c-15.3-12.9-38.3-10.9-51.2,4.3c-8.5,10.1-10.6,23.6-6.5,35.3c-8.8,1.3-16.6,5.7-22.3,12.4
		c-6.2,7.4-9.2,16.8-8.4,26.5c0.5,5.7,2.3,11.1,5.2,15.9c-6.9,1.9-13.3,5.8-18.3,11.6c-11.1,13.2-11.2,32-1.3,45.2
		c-6.5,2-12.5,5.8-17.2,11.3c-9.9,11.7-11,27.8-4.2,40.6l-71.3,60.1c-3.7,3.1-4.2,8.6-1.1,12.3c1.7,2,4.2,3.1,6.7,3.1
		c2,0,4-0.7,5.6-2.1l71.5-60.3l28.7,24.2c6.6,5.6,14.8,8.5,23.3,8.5c1,0,2.1-0.1,3.1-0.1c9.7-0.8,18.4-5.3,24.6-12.7
		c6.2-7.4,9.2-16.8,8.4-26.5c-0.4-5.1-2-9.9-4.3-14.3c7.2-1.8,14-5.6,19.2-11.7c7.1-8.4,9.5-19.1,7.9-29.2h0
		c10.2,0,20.3-4.2,27.1-12.4c6.4-6.5,9.8-15.3,9.3-24.8c0-0.3-0.1-0.6-0.1-0.9c1.4,0.2,2.9,0.4,4.3,0.4c1,0,2.1,0,3.1-0.1
		c9.7-0.8,18.4-5.3,24.1-12.2c6.5-6.4,9.8-15.2,9.4-24.7c-0.4-8.6-3.9-16.8-9.5-23.2l51.2-43.2c3.8-3.2,8.7-4.8,13.7-4.3
		c5,0.4,9.6,2.8,12.8,6.6c6.7,7.9,5.7,19.8-2.3,26.5l-6.6,5.6l0,0c-3.7,3.1-4.1,8.6-1,12.3c3.1,3.7,8.6,4.1,12.3,1l0,0
		c3.8-3.2,8.7-4.7,13.6-4.3c5,0.4,9.6,2.7,12.8,6.6c6.7,7.9,5.7,19.8-2.3,26.5l-14,11.9c0,0,0,0,0,0c-3.7,3.1-4.1,8.6-1,12.3
		c3.1,3.7,8.6,4.2,12.3,1h0c3.8-3.2,8.8-4.7,13.7-4.3c5,0.4,9.6,2.8,12.8,6.6c6.7,7.9,5.7,19.8-2.2,26.5l-17,14.4l0,0
		c-3.7,3.1-4.2,8.6-1.1,12.3s8.6,4.2,12.3,1.1l0,0c3.8-3.2,8.6-4.7,13.7-4.3c5,0.4,9.6,2.8,12.8,6.6c3.2,3.8,4.8,8.7,4.3,13.7
		c-0.4,5-2.8,9.6-6.6,12.8l-79.5,67.1c-32.5,27.4-59.2,24.5-99.4,16.5c-2.6-0.6-5.3,0.2-7.4,1.9L201.3,535.8
		c-3.7,3.1-4.2,8.6-1,12.3c1.7,2,4.2,3.1,6.7,3.1c2,0,4-0.7,5.6-2.1l116.5-98.4c16.6,3.2,31.8,5.4,46.5,4.9l111.8,93.5
		c1.7,1.4,3.6,2,5.6,2c2.5,0,5-1.1,6.7-3.1c3.1-3.7,2.6-9.2-1.1-12.3l-99.9-83.6c13.3-3.8,26.5-10.8,40.4-22.5l76.5-64.6l71.5,60.4
		c1.6,1.4,3.6,2.1,5.6,2.1c2.5,0,5-1.1,6.7-3.1C602.6,420.8,602.2,415.2,598.5,412.1L598.5,412.1z M327.2,174.3
		c-6.6-5.6-5.4-15.8-0.9-22.5c2.2-3.3,10.7-13.5,26.8-5.2l33.8,15.8L350,193.6L327.2,174.3L327.2,174.3
		C327.2,174.4,327.2,174.4,327.2,174.3L327.2,174.3z M250.7,373.7c-3.2,3.8-7.7,6.2-12.8,6.6c-5.1,0.5-9.9-1.1-13.7-4.3l-31.7-26.7
		c-7.9-6.7-8.9-18.6-2.2-26.5c6.6-7.9,18.4-8.9,26.3-2.4l31.9,26.9c3.8,3.2,6.1,7.8,6.6,12.8S254,369.9,250.7,373.7L250.7,373.7z
		 M274,321.2c-6.7,7.9-18.6,8.9-26.5,2.3l-19.3-16.3c0,0,0-0.1-0.1-0.1l0,0l-17-14.4c-7.9-6.7-8.9-18.6-2.3-26.5
		c3.2-3.8,7.8-6.2,12.8-6.6c5-0.4,9.9,1.1,13.7,4.3l0,0c0,0,0.1,0,0.1,0l36.3,30.7C279.7,301.4,280.7,313.3,274,321.2L274,321.2z
		 M309.6,279.1c-6.7,7.9-18.6,8.9-26.5,2.2l-36.5-30.8c0,0,0,0,0,0l-13.9-11.8c-3.8-3.2-6.1-7.8-6.6-12.8c-0.4-5,1.1-9.9,4.3-13.7
		c3.2-3.8,7.8-6.1,12.8-6.6c4.9-0.5,9.8,1.1,13.6,4.3l0.1,0.1l50.5,42.6c4.2,3.5,6.8,8.9,7,14.3C314.5,271.5,313,275.6,309.6,279.1
		L309.6,279.1z M350.4,241.5c-3.2,3.8-7.7,6.1-12.8,6.6c-5,0.5-9.9-1.1-13.7-4.3c-0.4-0.4-0.8-0.4-1.2-0.2c-1.3-1.5-2.7-3.1-4.2-4.4
		l-50.5-42.6c0,0-0.1-0.1-0.1-0.1l-6.5-5.5c-7.9-6.7-8.9-18.6-2.3-26.5c6.7-7.9,18.6-8.9,26.5-2.3l12,10.1c0,0,0,0,0,0l19,16l5.9,5
		h0l25.6,21.6c4.2,3.5,6.8,8.9,7,14.3C355.4,233.9,353.9,238,350.4,241.5L350.4,241.5z"/>
	<path d="M385,72.3c4.8,0,8.8-3.9,8.8-8.8v-46c0-4.8-3.9-8.8-8.8-8.8s-8.8,3.9-8.8,8.8v46C376.3,68.4,380.2,72.3,385,72.3z"/>
	<path d="M501,97.4c2.7,0,5.3-1.2,7.1-3.6l27.2-37.1c2.9-3.9,2-9.4-1.9-12.2c-3.9-2.9-9.4-2-12.2,1.9l-27.2,37.1
		c-2.9,3.9-2,9.4,1.9,12.2C497.4,96.9,499.2,97.4,501,97.4L501,97.4z"/>
	<path d="M262,93.9c1.7,2.3,4.4,3.6,7.1,3.6c1.8,0,3.6-0.6,5.2-1.7c3.9-2.9,4.7-8.3,1.9-12.2l-27.2-37.1c-2.9-3.9-8.3-4.7-12.2-1.9
		c-3.9,2.9-4.7,8.3-1.9,12.2L262,93.9z"/>
	
		<use xlink:href="#m"  width="27.1" height="33.1" x="-13.6" y="-16.5" transform="matrix(1 0 0 1 85.7415 675.3279)" style="overflow:visible;"/>
	
		<use xlink:href="#i"  width="17.8" height="24.5" x="-8.9" y="-12.3" transform="matrix(1 0 0 1 114.6718 679.0005)" style="overflow:visible;"/>
	
		<use xlink:href="#c"  width="25.7" height="25.1" x="-12.8" y="-12.6" transform="matrix(1 0 0 1 138.4018 679.3127)" style="overflow:visible;"/>
	
		<use xlink:href="#b"  width="24.2" height="25.1" x="-12.1" y="-12.6" transform="matrix(1 0 0 1 167.3329 679.3119)" style="overflow:visible;"/>
	
		<use xlink:href="#h"  width="19.3" height="30.7" x="-9.7" y="-15.4" transform="matrix(1 0 0 1 193.1208 675.8906)" style="overflow:visible;"/>
	<g>
		<defs>
			<rect id="SVGID_1_" x="203.8" y="691.2" width="700" height="700"/>
		</defs>
		<clipPath id="SVGID_00000044885497252521771330000010302639449061919884_">
			<use xlink:href="#SVGID_1_"  style="overflow:visible;"/>
		</clipPath>
		<g style="clip-path:url(#SVGID_00000044885497252521771330000010302639449061919884_);">
			
				<use xlink:href="#c"  width="25.7" height="25.1" x="-12.8" y="-12.6" transform="matrix(1 0 0 1 218.5112 679.3127)" style="overflow:visible;"/>
		</g>
	</g>
	
		<use xlink:href="#a"  width="25.7" height="33.9" x="-12.8" y="-16.9" transform="matrix(1 0 0 1 248.2694 674.9456)" style="overflow:visible;"/>
	
		<use xlink:href="#g"  width="25.7" height="33.9" x="-12.8" y="-16.9" transform="matrix(1 0 0 1 296.5272 674.9459)" style="overflow:visible;"/>
	
		<use xlink:href="#f"  width="27.2" height="33.4" x="-13.6" y="-16.7" transform="matrix(1 0 0 1 325.4609 684.0079)" style="overflow:visible;"/>
	
		<use xlink:href="#e"  width="28.8" height="31.9" x="-14.4" y="-15.9" transform="matrix(1 0 0 1 373.4917 675.304)" style="overflow:visible;"/>
	
		<use xlink:href="#d"  width="26.3" height="25.1" x="-13.1" y="-12.6" transform="matrix(1 0 0 1 403.7925 679.3127)" style="overflow:visible;"/>
	
		<use xlink:href="#l"  width="38.5" height="24.5" x="-19.3" y="-12.3" transform="matrix(1 0 0 1 441.6993 678.9995)" style="overflow:visible;"/>
	<g>
		<defs>
			<rect id="SVGID_00000021812619964536939970000008521430800798667677_" x="464.4" y="691.2" width="700" height="700"/>
		</defs>
		<clipPath id="SVGID_00000105422228011691137900000017985240985488167824_">
			<use xlink:href="#SVGID_00000021812619964536939970000008521430800798667677_"  style="overflow:visible;"/>
		</clipPath>
		<g style="clip-path:url(#SVGID_00000105422228011691137900000017985240985488167824_);">
			
				<use xlink:href="#b"  width="24.2" height="25.1" x="-12.1" y="-12.6" transform="matrix(1 0 0 1 478.3914 679.3119)" style="overflow:visible;"/>
		</g>
	</g>
	
		<use xlink:href="#k"  width="7.7" height="33.2" x="-3.8" y="-16.6" transform="matrix(1 0 0 1 501.4336 674.633)" style="overflow:visible;"/>
	<g>
		<defs>
			<rect id="SVGID_00000057132741499289231370000010903751625901448585_" x="508.9" y="691.2" width="700" height="700"/>
		</defs>
		<clipPath id="SVGID_00000142151007707453707590000006989379368993132690_">
			<use xlink:href="#SVGID_00000057132741499289231370000010903751625901448585_"  style="overflow:visible;"/>
		</clipPath>
		<g style="clip-path:url(#SVGID_00000142151007707453707590000006989379368993132690_);">
			
				<use xlink:href="#a"  width="25.7" height="33.9" x="-12.8" y="-16.9" transform="matrix(1 0 0 1 523.7343 674.9456)" style="overflow:visible;"/>
		</g>
	</g>
	<g>
		<defs>
			<rect id="SVGID_00000051372901251603246030000002993285374380944309_" x="540.2" y="691.2" width="700" height="700"/>
		</defs>
		<clipPath id="SVGID_00000169545005261871887650000004245077218023137711_">
			<use xlink:href="#SVGID_00000051372901251603246030000002993285374380944309_"  style="overflow:visible;"/>
		</clipPath>
		<g style="clip-path:url(#SVGID_00000169545005261871887650000004245077218023137711_);">
			
				<use xlink:href="#d"  width="26.3" height="25.1" x="-13.1" y="-12.6" transform="matrix(1 0 0 1 555.2729 679.3127)" style="overflow:visible;"/>
		</g>
	</g>
	
		<use xlink:href="#j"  width="24.1" height="24.5" x="-12" y="-12.3" transform="matrix(1 0 0 1 586.0074 679.0007)" style="overflow:visible;"/>
</g>
</svg>
