<?xml version="1.0" encoding="UTF-8"?><svg id="Artwork" xmlns="http://www.w3.org/2000/svg" viewBox="0 0 456.12 130.29"><defs><style>.cls-1,.cls-2,.cls-3,.cls-4,.cls-5,.cls-6,.cls-7,.cls-8{stroke-width:0px;}.cls-2{fill:#f49f1d;}.cls-3{fill:#5ac3b1;}.cls-4{fill:#2cb77c;}.cls-5{fill:#205a86;}.cls-6{fill:#b21e8d;}.cls-7{fill:#8ea869;}.cls-8{fill:#ed087c;}</style></defs><path class="cls-1" d="m179.1,52h-18.03l-3.72,9.59h-3.15l14.28-36.25h3.13l14.41,36.25h-3.18l-3.74-9.59Zm-1.05-2.74l-7.98-20.43h-.05l-7.9,20.43h15.93Z"/><path class="cls-1" d="m209.04,36.8v24.79h-2.77v-4.58h-.1c-1.04,1.53-2.35,2.72-3.92,3.56-1.57.85-3.22,1.27-4.95,1.27-2.96,0-5.25-.87-6.87-2.6-1.62-1.74-2.44-4.27-2.44-7.59v-14.85h2.77v14.03c0,1.54.15,2.87.46,3.96.31,1.1.77,1.97,1.39,2.62.62.65,1.34,1.12,2.17,1.42.83.3,1.8.45,2.91.45s2.21-.24,3.26-.73c1.04-.49,1.96-1.17,2.74-2.03s1.41-1.94,1.89-3.24c.47-1.3.7-2.7.7-4.21v-12.26h2.77Z"/><path class="cls-1" d="m212.28,58.33l1.56-2.12c1.08,1.01,2.25,1.78,3.51,2.3s2.84.78,4.72.78,3.3-.41,4.36-1.22c1.06-.81,1.59-1.85,1.59-3.11,0-.32-.03-.61-.1-.87-.07-.27-.19-.52-.37-.75s-.35-.44-.53-.62c-.17-.18-.43-.37-.78-.56s-.65-.35-.88-.47c-.24-.12-.61-.28-1.1-.46s-.89-.32-1.18-.42c-.29-.1-.74-.25-1.36-.45-.32-.12-.57-.2-.74-.25-.94-.32-1.74-.61-2.38-.87-.65-.27-1.32-.61-2.03-1.03-.7-.42-1.26-.87-1.68-1.33-.42-.47-.76-1.04-1.03-1.72s-.4-1.43-.4-2.24c0-1.83.75-3.34,2.26-4.53,1.51-1.2,3.41-1.79,5.72-1.79,3.21,0,6.03,1,8.46,3.01l-1.54,2.12c-2.05-1.74-4.45-2.62-7.21-2.62-.87,0-1.68.15-2.41.44-.73.29-1.33.73-1.8,1.32-.46.59-.69,1.27-.69,2.06,0,.37.05.71.15,1.02.1.31.23.59.37.82.14.23.37.46.67.7.3.23.56.42.79.56.23.14.57.31,1.03.5.45.19.82.34,1.09.44.27.1.68.24,1.23.42.12.05.21.08.28.1,2.74.95,4.47,1.59,5.21,1.94,1.76.86,2.9,1.95,3.41,3.26.26.71.39,1.52.39,2.42s-.19,1.77-.56,2.58c-.38.81-.92,1.52-1.63,2.14-.71.62-1.63,1.12-2.76,1.48-1.13.37-2.4.55-3.82.55-3.81,0-7.09-1.17-9.82-3.51Z"/><path class="cls-1" d="m236.87,60.01c-.95-1.22-1.42-3.03-1.42-5.42v-15.3h-3.38v-2.49h3.38v-8.67l2.77-.32v8.99h9.31v2.49h-9.31v14.63c0,1.84.26,3.19.78,4.05.52.85,1.5,1.28,2.94,1.28,1.54,0,3.15-.47,4.82-1.42l.72,2.42c-1.8,1.06-3.74,1.59-5.85,1.59-2.22,0-3.81-.61-4.76-1.83Z"/><path class="cls-1" d="m264.05,36.58v2.99c-.79-.07-1.33-.1-1.62-.1-2.58,0-4.65.93-6.21,2.78-1.56,1.85-2.33,4.25-2.33,7.19v12.16h-2.77v-24.79h2.77v4.71h.13c.94-1.58,2.16-2.8,3.65-3.66,1.5-.86,3.17-1.3,5.01-1.3.62,0,1.07,0,1.36.02Z"/><path class="cls-1" d="m288.73,36.8v24.79h-2.64v-4.76h-.08c-1.03,1.58-2.37,2.81-4.03,3.69-1.66.88-3.56,1.32-5.69,1.32-1.71,0-3.33-.3-4.85-.9-1.52-.6-2.85-1.43-3.97-2.49-1.13-1.06-2.02-2.38-2.68-3.94-.66-1.56-.99-3.26-.99-5.11,0-2.39.52-4.56,1.56-6.52,1.04-1.95,2.51-3.5,4.41-4.63,1.9-1.14,4.04-1.71,6.41-1.71,2,0,3.85.45,5.54,1.35,1.69.9,3.07,2.15,4.13,3.76h.1v-4.86h2.77Zm-8.59,21.78c1.16-.48,2.18-1.15,3.05-1.99s1.57-1.89,2.09-3.13c.52-1.24.78-2.58.78-4.02,0-1.89-.41-3.63-1.22-5.19-.81-1.57-1.95-2.81-3.41-3.74-1.46-.92-3.11-1.38-4.94-1.38-1.35,0-2.62.25-3.82.74-1.2.49-2.24,1.17-3.14,2.06s-1.61,1.97-2.13,3.28-.78,2.72-.78,4.25c0,1.84.41,3.52,1.23,5.02s1.98,2.69,3.49,3.55c1.5.86,3.21,1.29,5.13,1.29,1.28,0,2.51-.24,3.67-.72Z"/><path class="cls-1" d="m294.64,24.02h2.77v37.57h-2.77V24.02Z"/><path class="cls-1" d="m304.21,31.25c-.35-.2-.63-.47-.83-.8-.2-.33-.31-.71-.31-1.12,0-.63.22-1.17.67-1.61.44-.44,1-.66,1.67-.66s1.2.22,1.65.66c.45.44.68.98.68,1.61s-.23,1.14-.68,1.57c-.45.43-1,.65-1.65.65-.44,0-.84-.1-1.19-.3Zm-.24,5.56h2.77v24.79h-2.77v-24.79Z"/><path class="cls-1" d="m336.16,36.8v24.79h-2.64v-4.76h-.08c-1.03,1.58-2.37,2.81-4.03,3.69-1.66.88-3.56,1.32-5.69,1.32-1.71,0-3.33-.3-4.85-.9-1.52-.6-2.85-1.43-3.97-2.49-1.13-1.06-2.02-2.38-2.68-3.94-.66-1.56-.99-3.26-.99-5.11,0-2.39.52-4.56,1.56-6.52,1.04-1.95,2.51-3.5,4.41-4.63,1.9-1.14,4.04-1.71,6.41-1.71,2,0,3.85.45,5.54,1.35,1.69.9,3.07,2.15,4.13,3.76h.1v-4.86h2.77Zm-8.59,21.78c1.16-.48,2.18-1.15,3.05-1.99s1.57-1.89,2.09-3.13c.52-1.24.78-2.58.78-4.02,0-1.89-.41-3.63-1.22-5.19-.81-1.57-1.95-2.81-3.41-3.74-1.46-.92-3.11-1.38-4.94-1.38-1.35,0-2.62.25-3.82.74-1.2.49-2.24,1.17-3.14,2.06s-1.61,1.97-2.13,3.28-.78,2.72-.78,4.25c0,1.84.41,3.52,1.23,5.02s1.98,2.69,3.49,3.55c1.5.86,3.21,1.29,5.13,1.29,1.28,0,2.51-.24,3.67-.72Z"/><path class="cls-1" d="m360.84,39.06c1.52,1.67,2.28,4.28,2.28,7.84v14.7h-2.77v-14.35c0-1.26-.11-2.37-.33-3.33s-.53-1.74-.91-2.34c-.38-.61-.85-1.1-1.41-1.47-.56-.37-1.14-.64-1.76-.79-.61-.15-1.3-.22-2.05-.22-2.82,0-5.09.93-6.8,2.79s-2.56,4.34-2.56,7.42v12.28h-2.77v-24.79h2.77v4.83h.1c1.08-1.61,2.48-2.86,4.19-3.75,1.72-.89,3.62-1.33,5.71-1.33,2.68,0,4.79.83,6.31,2.5Z"/><path class="cls-1" d="m182.28,88.05c1.3,1.59,1.95,3.57,1.95,5.94,0,1.46-.25,2.8-.76,4.01-.5,1.21-1.25,2.27-2.23,3.16-.98.9-2.25,1.59-3.8,2.09-1.55.5-3.32.75-5.32.75h-15.44v-36.25h13.46c3.97,0,6.99.76,9.07,2.27s3.12,3.7,3.12,6.58c0,1.13-.18,2.2-.54,3.2-.36,1.01-.97,1.95-1.82,2.84s-1.93,1.57-3.23,2.06v.1c2.39.58,4.24,1.67,5.54,3.25Zm-18.34-5.44h5.28c1.03,0,1.95-.14,2.77-.44.82-.29,1.5-.76,2.04-1.42.54-.66.81-1.47.81-2.43,0-.86-.21-1.6-.62-2.22-.41-.61-1.08-1.1-2-1.46-.92-.36-2.09-.54-3.49-.54h-4.8v8.5Zm9.42,14.59c.98-.34,1.76-.86,2.32-1.54.56-.69.85-1.54.85-2.55,0-1.46-.56-2.61-1.68-3.45-1.12-.84-2.75-1.26-4.89-1.26h-6.03v9.32h5.95c1.33,0,2.49-.17,3.47-.51Z"/><path class="cls-1" d="m189.2,75.03c-.66-.37-1.18-.86-1.55-1.48-.38-.62-.56-1.31-.56-2.06,0-1.11.41-2.07,1.24-2.87.83-.8,1.83-1.2,3.01-1.2s2.16.4,3,1.2c.84.8,1.26,1.75,1.26,2.87s-.42,2.09-1.26,2.89c-.84.8-1.84,1.2-3,1.2-.77,0-1.48-.18-2.14-.55Zm-1.3,4.06h6.87v24.92h-6.87v-24.92Z"/><path class="cls-1" d="m207.13,103.81c-1.42-.42-2.68-1-3.78-1.77-1.1-.76-2.06-1.67-2.86-2.73-.8-1.05-1.41-2.24-1.83-3.55-.42-1.31-.63-2.71-.63-4.19,0-1.84.33-3.56.99-5.16.66-1.59,1.58-2.96,2.76-4.1s2.62-2.03,4.33-2.68c1.71-.65,3.56-.97,5.57-.97s3.79.32,5.49.95c1.69.63,3.14,1.51,4.33,2.63,1.2,1.12,2.13,2.48,2.81,4.09.68,1.6,1.01,3.35,1.01,5.24,0,2.51-.58,4.74-1.74,6.7-1.16,1.96-2.78,3.48-4.85,4.55-2.07,1.07-4.42,1.61-7.05,1.61-1.61,0-3.12-.21-4.54-.62Zm9.28-7.3c1.28-1.3,1.92-2.94,1.92-4.93s-.63-3.68-1.9-4.97c-1.27-1.29-2.86-1.93-4.77-1.93s-3.59.65-4.83,1.96c-1.24,1.3-1.86,2.95-1.86,4.95s.63,3.58,1.89,4.9,2.86,1.98,4.81,1.98,3.46-.65,4.74-1.94Z"/><path class="cls-1" d="m240.42,103.63c-1.88-.5-3.62-1.26-5.21-2.29-1.59-1.03-2.97-2.26-4.14-3.7-1.17-1.44-2.09-3.15-2.76-5.15-.67-1.99-1-4.16-1-6.5,0-2.08.27-4.05.79-5.92.53-1.87,1.33-3.58,2.4-5.12,1.07-1.54,2.35-2.89,3.85-4.02,1.5-1.14,3.27-2.02,5.31-2.65,2.04-.63,4.26-.95,6.65-.95,1.76,0,3.5.23,5.21.7,1.71.46,3.42,1.23,5.12,2.29,1.7,1.06,3.21,2.38,4.53,3.96l-5.41,4.48c-1.16-1.36-2.56-2.47-4.21-3.33-1.64-.86-3.38-1.28-5.23-1.28-.92,0-1.81.09-2.67.27s-1.66.45-2.41.81c-.75.36-1.45.79-2.09,1.3-.64.51-1.21,1.09-1.72,1.76s-.94,1.39-1.29,2.18c-.36.79-.63,1.65-.82,2.58s-.28,1.91-.28,2.94c0,2.23.47,4.22,1.42,5.98.95,1.76,2.28,3.13,4,4.12,1.72.99,3.67,1.48,5.86,1.48,1.86,0,3.62-.42,5.26-1.25,1.64-.83,3.03-1.94,4.18-3.34l5.41,4.51c-1.71,2.08-3.83,3.74-6.36,5-2.53,1.25-5.36,1.88-8.49,1.88-2.05,0-4.02-.25-5.9-.75Z"/><path class="cls-1" d="m271.13,103.81c-1.42-.42-2.68-1-3.78-1.77-1.1-.76-2.06-1.67-2.86-2.73-.8-1.05-1.41-2.24-1.83-3.55-.42-1.31-.63-2.71-.63-4.19,0-1.84.33-3.56.99-5.16.66-1.59,1.58-2.96,2.76-4.1s2.62-2.03,4.33-2.68c1.71-.65,3.56-.97,5.57-.97s3.79.32,5.49.95c1.69.63,3.14,1.51,4.33,2.63,1.2,1.12,2.13,2.48,2.81,4.09.68,1.6,1.01,3.35,1.01,5.24,0,2.51-.58,4.74-1.74,6.7-1.16,1.96-2.78,3.48-4.85,4.55-2.07,1.07-4.42,1.61-7.05,1.61-1.61,0-3.12-.21-4.54-.62Zm9.28-7.3c1.28-1.3,1.92-2.94,1.92-4.93s-.63-3.68-1.9-4.97c-1.27-1.29-2.86-1.93-4.77-1.93s-3.6.65-4.83,1.96c-1.24,1.3-1.86,2.95-1.86,4.95s.63,3.58,1.88,4.9c1.26,1.32,2.86,1.98,4.81,1.98s3.46-.65,4.74-1.94Z"/><path class="cls-1" d="m330.11,81.33c1.58,1.78,2.37,4.51,2.37,8.2v14.5h-6.87v-12.88c0-4.32-1.5-6.48-4.49-6.48-.98,0-1.85.26-2.64.77-.79.52-1.41,1.3-1.89,2.36-.47,1.05-.7,2.3-.7,3.75v12.48h-6.87v-12.88c0-4.32-1.51-6.48-4.54-6.48-1.04,0-1.97.26-2.77.77-.8.52-1.44,1.3-1.92,2.36-.48,1.05-.72,2.3-.72,3.75v12.46h-6.87v-24.92h6.87v3.29h.08c1.01-1.2,2.18-2.11,3.51-2.75s2.72-.96,4.15-.96c3.57,0,6.11,1.34,7.62,4.01h.08c1.04-1.3,2.33-2.29,3.86-2.98s3.22-1.03,5.06-1.03c2.87,0,5.1.89,6.68,2.67Z"/><path class="cls-1" d="m374.32,81.33c1.58,1.78,2.37,4.51,2.37,8.2v14.5h-6.87v-12.88c0-4.32-1.5-6.48-4.49-6.48-.98,0-1.85.26-2.64.77-.79.52-1.41,1.3-1.89,2.36-.47,1.05-.7,2.3-.7,3.75v12.48h-6.87v-12.88c0-4.32-1.51-6.48-4.54-6.48-1.04,0-1.97.26-2.77.77-.8.52-1.44,1.3-1.92,2.36-.48,1.05-.72,2.3-.72,3.75v12.46h-6.87v-24.92h6.87v3.29h.08c1.01-1.2,2.18-2.11,3.51-2.75s2.72-.96,4.15-.96c3.57,0,6.11,1.34,7.62,4.01h.08c1.04-1.3,2.33-2.29,3.86-2.98s3.22-1.03,5.06-1.03c2.87,0,5.1.89,6.68,2.67Z"/><path class="cls-1" d="m388.34,103.81c-1.42-.42-2.68-1-3.78-1.77-1.1-.76-2.06-1.67-2.86-2.73-.8-1.05-1.41-2.24-1.83-3.55s-.63-2.71-.63-4.19c0-1.84.33-3.56.99-5.16.66-1.59,1.58-2.96,2.76-4.1,1.18-1.14,2.62-2.03,4.33-2.68,1.71-.65,3.56-.97,5.57-.97s3.79.32,5.49.95c1.69.63,3.14,1.51,4.33,2.63,1.2,1.12,2.13,2.48,2.81,4.09s1.01,3.35,1.01,5.24c0,2.51-.58,4.74-1.74,6.7-1.16,1.96-2.78,3.48-4.85,4.55-2.07,1.07-4.42,1.61-7.05,1.61-1.61,0-3.12-.21-4.54-.62Zm9.28-7.3c1.28-1.3,1.92-2.94,1.92-4.93s-.63-3.68-1.9-4.97c-1.27-1.29-2.86-1.93-4.77-1.93s-3.6.65-4.83,1.96-1.86,2.95-1.86,4.95.63,3.58,1.88,4.9c1.26,1.32,2.86,1.98,4.81,1.98s3.46-.65,4.74-1.94Z"/><path class="cls-1" d="m428.4,79.25c1.1.39,2.08.99,2.92,1.81.85.81,1.49,1.91,1.94,3.29.44,1.38.67,3.01.67,4.88v14.8h-6.87v-13.13c0-2.29-.4-3.9-1.21-4.83-.8-.93-2.04-1.4-3.72-1.4-1.78,0-3.19.59-4.24,1.77-1.05,1.18-1.58,2.86-1.58,5.03v12.53h-6.87v-24.92h6.87v3.21h.08c1.04-1.18,2.28-2.08,3.71-2.7,1.43-.62,2.94-.93,4.53-.93,1.42,0,2.68.19,3.78.58Z"/><path class="cls-1" d="m435.78,100.77l3.33-4.61c2.14,1.94,4.51,2.92,7.1,2.92.97,0,1.74-.19,2.31-.57.56-.38.85-.88.85-1.49,0-.38-.17-.72-.51-1.01-.34-.29-.82-.56-1.42-.81-.61-.25-1.52-.56-2.73-.95-.77-.25-1.46-.5-2.06-.75-.61-.25-1.23-.54-1.86-.88s-1.18-.72-1.63-1.13-.86-.88-1.23-1.4c-.37-.52-.65-1.11-.83-1.77s-.28-1.39-.28-2.17c0-1.48.41-2.79,1.22-3.92.81-1.14,1.91-2.01,3.31-2.63,1.39-.61,2.96-.92,4.71-.92s3.45.25,4.95.75c1.5.5,2.98,1.3,4.44,2.39l-3.33,4.88c-.96-.88-1.97-1.54-3.04-1.98s-2.1-.66-3.09-.66c-.65,0-1.23.16-1.74.49-.51.32-.77.79-.77,1.38,0,.5.3.95.91,1.35.61.4,1.59.85,2.94,1.35,2.84,1.01,4.74,1.82,5.69,2.42,1.66,1,2.65,2.33,2.97,3.99.1.5.15,1.05.15,1.67,0,2.31-.85,4.18-2.55,5.61-1.7,1.43-4.17,2.14-7.4,2.14-4.07,0-7.53-1.22-10.39-3.66Z"/><polyline class="cls-8" points="14.51 65.14 0 90.29 23.09 130.29 69.28 130.29 83.79 105.14 66.65 105.14 52.14 80 23.09 80 14.51 65.14"/><polyline class="cls-2" points="69.28 0 40.14 0 23.09 0 15.92 12.41 0 40 14.51 65.14 15.92 62.7 23.09 50.29 40.14 50.29 52.14 50.29 59.48 37.56 66.65 25.14 83.7 25.14 83.8 25.14 76.45 12.41 69.28 0"/><polyline class="cls-7" points="52.14 50.29 40.14 50.29 23.09 50.29 15.92 62.7 14.51 65.14 23.09 80 52.14 80 43.56 65.14 52.14 50.29"/><polyline class="cls-3" points="112.84 25.14 83.8 25.14 92.37 40 85.25 52.32 77.86 65.14 92.37 90.29 85.25 102.61 83.79 105.14 112.84 105.14 128.82 77.47 135.93 65.14 120.01 37.56 112.84 25.14"/><polyline class="cls-6" points="77.86 65.14 69.28 80 52.14 80 66.65 105.14 83.79 105.14 85.25 102.61 92.37 90.29 77.86 65.14"/><polyline class="cls-4" points="83.8 25.14 83.7 25.14 66.65 25.14 59.48 37.56 52.14 50.29 69.28 50.29 76.45 62.7 77.86 65.14 85.25 52.32 92.37 40 83.8 25.14"/><polyline class="cls-5" points="69.28 50.29 52.14 50.29 43.56 65.14 52.14 80 69.28 80 77.86 65.14 76.45 62.7 69.28 50.29"/></svg>