<?xml version="1.0" encoding="UTF-8"?><svg id="a" xmlns="http://www.w3.org/2000/svg" viewBox="0 0 440.49 130.62"><defs><style>.b{fill:#f39e1f;}.c{fill:#ed0d7c;}.d{fill:#30b77d;}.e{fill:#8da668;}.f{fill:#b21e8e;}.g{fill:#215986;}.h{fill:#090a0f;}.i{fill:#5bc3b1;}</style></defs><polygon class="i" points="124.92 64.61 102.21 103.95 56.78 103.95 34.07 64.61 56.78 25.27 102.21 25.27 124.92 64.61"/><polygon class="b" points="92.65 39.99 69.56 79.99 23.38 79.99 .29 39.99 23.38 0 69.56 0 92.65 39.99"/><polygon class="c" points="92.65 91.02 69.69 130.62 22.71 130.62 0 91.27 22.71 51.93 68.14 51.93 92.65 91.02"/><polygon class="d" points="40.12 79.99 69.93 79.99 92.91 40.2 84.15 25.27 54 25.27 32.28 66.4 40.12 79.99"/><polygon class="f" points="85.15 103.95 92.65 91.02 69.93 48.35 42.94 48.35 34.11 63.65 54.22 103.95 85.15 103.95"/><polygon class="e" points="69.93 79.99 78.7 64.81 69.93 48.35 24.51 48.35 14.92 65.44 24.51 79.99 69.93 79.99"/><polygon class="g" points="41.81 48.35 34.07 63.71 42.26 79.99 69.93 79.99 78.7 64.81 69.93 48.35 41.81 48.35"/><g><path class="h" d="M168.04,52.24h-17.73l-3.66,9.43h-3.1l14.05-35.66h3.08l14.18,35.66h-3.13l-3.68-9.43Zm-1.03-2.7l-7.84-20.09h-.05l-7.77,20.09h15.66Z"/><path class="h" d="M197.48,37.29v24.38h-2.72v-4.51h-.1c-1.03,1.5-2.31,2.67-3.86,3.5-1.55,.83-3.17,1.25-4.87,1.25-2.91,0-5.16-.85-6.76-2.56-1.6-1.71-2.4-4.2-2.4-7.46v-14.61h2.72v13.8c0,1.52,.15,2.82,.45,3.9,.3,1.08,.76,1.94,1.36,2.57,.6,.64,1.32,1.1,2.13,1.4,.82,.29,1.77,.44,2.86,.44s2.18-.24,3.2-.72c1.03-.48,1.93-1.15,2.7-2s1.39-1.91,1.85-3.19,.69-2.66,.69-4.14v-12.06h2.72Z"/><path class="h" d="M200.67,58.46l1.54-2.08c1.06,1,2.21,1.75,3.46,2.27s2.79,.77,4.64,.77,3.25-.4,4.29-1.2c1.04-.8,1.56-1.82,1.56-3.06,0-.31-.03-.6-.1-.86-.07-.26-.19-.51-.37-.74s-.35-.43-.52-.61c-.17-.18-.42-.36-.77-.55s-.63-.34-.87-.47c-.24-.12-.6-.27-1.08-.45s-.87-.32-1.16-.42c-.29-.1-.73-.25-1.34-.44-.32-.11-.56-.2-.73-.25-.92-.31-1.71-.6-2.35-.86-.64-.26-1.3-.6-1.99-1.02-.69-.42-1.24-.85-1.65-1.31-.41-.46-.75-1.02-1.01-1.69s-.39-1.41-.39-2.21c0-1.8,.74-3.28,2.22-4.46,1.48-1.18,3.35-1.76,5.62-1.76,3.16,0,5.94,.99,8.32,2.96l-1.51,2.08c-2.02-1.71-4.38-2.57-7.09-2.57-.86,0-1.65,.14-2.37,.43-.72,.29-1.31,.72-1.77,1.3-.45,.58-.68,1.25-.68,2.02,0,.36,.05,.69,.15,1,.1,.31,.22,.58,.37,.81,.14,.23,.36,.46,.66,.69,.29,.23,.55,.41,.78,.55,.23,.14,.56,.3,1.01,.49,.45,.19,.8,.33,1.07,.43,.27,.1,.67,.24,1.21,.42,.12,.05,.21,.08,.28,.1,2.69,.93,4.4,1.57,5.12,1.91,1.73,.85,2.85,1.92,3.35,3.21,.25,.7,.38,1.5,.38,2.38s-.19,1.74-.56,2.54c-.37,.79-.9,1.49-1.6,2.11-.7,.61-1.6,1.1-2.71,1.46-1.11,.36-2.36,.54-3.76,.54-3.75,0-6.97-1.15-9.66-3.46Z"/><path class="h" d="M224.86,60.11c-.93-1.2-1.4-2.98-1.4-5.33v-15.05h-3.33v-2.45h3.33v-8.53l2.72-.32v8.85h9.16v2.45h-9.16v14.38c0,1.81,.26,3.14,.77,3.98,.51,.84,1.48,1.26,2.89,1.26,1.51,0,3.09-.47,4.74-1.4l.71,2.38c-1.77,1.05-3.68,1.57-5.75,1.57-2.19,0-3.75-.6-4.68-1.8Z"/><path class="h" d="M251.59,37.07v2.94c-.77-.07-1.3-.1-1.59-.1-2.54,0-4.57,.91-6.1,2.73-1.53,1.82-2.29,4.18-2.29,7.07v11.96h-2.72v-24.38h2.72v4.63h.13c.92-1.55,2.12-2.75,3.59-3.6,1.47-.85,3.11-1.27,4.93-1.27,.61,0,1.05,0,1.34,.02Z"/><path class="h" d="M275.87,37.29v24.38h-2.6v-4.68h-.08c-1.01,1.55-2.33,2.76-3.96,3.63-1.63,.87-3.5,1.3-5.6,1.3-1.68,0-3.27-.29-4.77-.88-1.5-.59-2.8-1.41-3.91-2.45-1.11-1.04-1.99-2.34-2.64-3.87-.65-1.54-.97-3.21-.97-5.02,0-2.35,.51-4.49,1.54-6.41,1.03-1.92,2.47-3.44,4.34-4.56s3.97-1.68,6.31-1.68c1.97,0,3.78,.44,5.45,1.32,1.67,.88,3.02,2.12,4.06,3.7h.1v-4.78h2.72Zm-8.45,21.42c1.14-.47,2.14-1.13,3-1.96s1.54-1.86,2.06-3.08,.77-2.54,.77-3.96c0-1.86-.4-3.57-1.2-5.11s-1.92-2.77-3.35-3.68c-1.44-.91-3.06-1.36-4.86-1.36-1.33,0-2.58,.24-3.76,.72-1.18,.48-2.21,1.16-3.09,2.02s-1.58,1.94-2.09,3.22-.77,2.67-.77,4.18c0,1.81,.4,3.46,1.21,4.94s1.95,2.64,3.43,3.49c1.48,.85,3.16,1.27,5.04,1.27,1.26,0,2.46-.24,3.61-.71Z"/><path class="h" d="M281.68,24.72h2.72V61.67h-2.72V24.72Z"/><path class="h" d="M291.09,31.82c-.34-.2-.62-.46-.82-.78-.2-.33-.3-.69-.3-1.1,0-.62,.22-1.15,.66-1.58,.44-.43,.98-.65,1.64-.65s1.18,.22,1.63,.65c.45,.43,.67,.96,.67,1.58s-.22,1.12-.67,1.54c-.45,.42-.99,.64-1.63,.64-.44,0-.83-.1-1.17-.29Zm-.24,5.46h2.72v24.38h-2.72v-24.38Z"/><path class="h" d="M322.51,37.29v24.38h-2.6v-4.68h-.08c-1.01,1.55-2.33,2.76-3.96,3.63-1.63,.87-3.5,1.3-5.6,1.3-1.68,0-3.27-.29-4.77-.88-1.5-.59-2.8-1.41-3.91-2.45-1.11-1.04-1.99-2.34-2.64-3.87-.65-1.54-.97-3.21-.97-5.02,0-2.35,.51-4.49,1.54-6.41,1.03-1.92,2.47-3.44,4.34-4.56s3.97-1.68,6.31-1.68c1.97,0,3.78,.44,5.45,1.32,1.67,.88,3.02,2.12,4.06,3.7h.1v-4.78h2.72Zm-8.45,21.42c1.14-.47,2.14-1.13,3-1.96s1.54-1.86,2.06-3.08,.77-2.54,.77-3.96c0-1.86-.4-3.57-1.2-5.11s-1.92-2.77-3.35-3.68c-1.44-.91-3.06-1.36-4.86-1.36-1.33,0-2.58,.24-3.76,.72-1.18,.48-2.21,1.16-3.09,2.02s-1.58,1.94-2.09,3.22-.77,2.67-.77,4.18c0,1.81,.4,3.46,1.21,4.94s1.95,2.64,3.43,3.49c1.48,.85,3.16,1.27,5.04,1.27,1.26,0,2.46-.24,3.61-.71Z"/><path class="h" d="M346.79,39.5c1.5,1.64,2.24,4.21,2.24,7.71v14.46h-2.72v-14.12c0-1.24-.11-2.33-.33-3.27s-.52-1.71-.9-2.3c-.38-.6-.84-1.08-1.39-1.45-.55-.37-1.12-.62-1.73-.77-.6-.15-1.28-.22-2.02-.22-2.77,0-5,.92-6.68,2.75s-2.52,4.26-2.52,7.3v12.08h-2.72v-24.38h2.72v4.75h.1c1.06-1.58,2.43-2.81,4.12-3.69,1.69-.87,3.56-1.31,5.61-1.31,2.64,0,4.71,.82,6.21,2.46Z"/><path class="h" d="M171.17,87.69c1.28,1.56,1.92,3.51,1.92,5.84,0,1.44-.25,2.75-.74,3.95-.5,1.19-1.23,2.23-2.19,3.11-.97,.88-2.21,1.57-3.73,2.06-1.52,.49-3.27,.74-5.23,.74h-15.18v-35.66h13.24c3.9,0,6.87,.74,8.92,2.23s3.06,3.64,3.06,6.47c0,1.11-.18,2.16-.53,3.15-.35,.99-.95,1.92-1.79,2.79s-1.9,1.55-3.18,2.02v.1c2.35,.57,4.17,1.64,5.45,3.2Zm-18.03-5.35h5.2c1.01,0,1.92-.14,2.72-.43,.81-.29,1.48-.75,2-1.4,.53-.65,.79-1.44,.79-2.39,0-.85-.2-1.58-.61-2.18-.4-.6-1.06-1.08-1.97-1.43-.91-.35-2.05-.53-3.43-.53h-4.72v8.36Zm9.27,14.35c.97-.33,1.73-.84,2.28-1.52,.56-.68,.83-1.52,.83-2.51,0-1.44-.55-2.57-1.65-3.39-1.1-.82-2.7-1.24-4.8-1.24h-5.93v9.17h5.85c1.31,0,2.45-.17,3.42-.5Z"/><path class="h" d="M177.97,74.89c-.65-.36-1.16-.85-1.53-1.46-.37-.61-.56-1.29-.56-2.02,0-1.09,.41-2.03,1.22-2.82,.82-.78,1.8-1.18,2.96-1.18s2.13,.39,2.95,1.18c.82,.78,1.24,1.72,1.24,2.82s-.41,2.06-1.24,2.84c-.82,.78-1.81,1.18-2.95,1.18-.76,0-1.46-.18-2.11-.54Zm-1.27,3.99h6.76v24.51h-6.76v-24.51Z"/><path class="h" d="M195.6,103.19c-1.4-.41-2.64-.99-3.72-1.74-1.08-.75-2.02-1.65-2.81-2.68-.79-1.04-1.39-2.2-1.8-3.49-.41-1.29-.62-2.66-.62-4.12,0-1.81,.32-3.5,.97-5.07s1.55-2.91,2.71-4.03,2.58-2,4.26-2.63c1.68-.64,3.51-.96,5.47-.96s3.73,.31,5.4,.93c1.67,.62,3.09,1.48,4.26,2.59,1.18,1.1,2.1,2.44,2.76,4.02s1,3.3,1,5.16c0,2.47-.57,4.66-1.71,6.59s-2.73,3.42-4.77,4.47c-2.03,1.05-4.35,1.58-6.94,1.58-1.58,0-3.07-.21-4.46-.61Zm9.13-7.18c1.26-1.27,1.89-2.89,1.89-4.85s-.62-3.62-1.87-4.89c-1.25-1.27-2.81-1.9-4.69-1.9s-3.54,.64-4.75,1.92-1.83,2.9-1.83,4.86,.62,3.52,1.85,4.82,2.81,1.95,4.73,1.95,3.4-.64,4.67-1.91Z"/><path class="h" d="M228.35,103.02c-1.85-.49-3.56-1.24-5.12-2.25-1.56-1.01-2.92-2.23-4.07-3.64-1.15-1.41-2.06-3.1-2.71-5.06-.66-1.96-.98-4.09-.98-6.4,0-2.04,.26-3.98,.78-5.82,.52-1.84,1.31-3.52,2.36-5.04,1.05-1.52,2.31-2.84,3.78-3.96,1.47-1.12,3.21-1.99,5.22-2.61,2.01-.62,4.19-.93,6.54-.93,1.73,0,3.44,.23,5.12,.69,1.68,.46,3.36,1.21,5.03,2.25,1.67,1.05,3.16,2.34,4.45,3.9l-5.32,4.41c-1.14-1.34-2.52-2.43-4.14-3.27s-3.33-1.26-5.15-1.26c-.91,0-1.78,.09-2.62,.27s-1.63,.45-2.37,.8c-.74,.35-1.42,.78-2.06,1.27-.63,.5-1.19,1.07-1.69,1.73s-.92,1.37-1.27,2.14c-.35,.78-.62,1.62-.81,2.54s-.28,1.88-.28,2.89c0,2.19,.47,4.15,1.4,5.88,.93,1.73,2.25,3.08,3.94,4.06,1.69,.97,3.61,1.46,5.76,1.46,1.83,0,3.56-.41,5.17-1.23,1.61-.82,2.98-1.91,4.11-3.28l5.32,4.44c-1.68,2.04-3.77,3.68-6.26,4.91-2.49,1.23-5.27,1.85-8.35,1.85-2.02,0-3.95-.25-5.8-.73Z"/><path class="h" d="M258.55,103.19c-1.4-.41-2.64-.99-3.72-1.74-1.08-.75-2.02-1.65-2.81-2.68-.79-1.04-1.39-2.2-1.8-3.49s-.62-2.66-.62-4.12c0-1.81,.32-3.5,.97-5.07,.65-1.57,1.55-2.91,2.71-4.03s2.58-2,4.26-2.63c1.68-.64,3.51-.96,5.47-.96s3.73,.31,5.4,.93c1.67,.62,3.09,1.48,4.26,2.59,1.18,1.1,2.1,2.44,2.76,4.02s1,3.3,1,5.16c0,2.47-.57,4.66-1.71,6.59s-2.73,3.42-4.77,4.47c-2.03,1.05-4.35,1.58-6.94,1.58-1.58,0-3.07-.21-4.46-.61Zm9.13-7.18c1.26-1.27,1.89-2.89,1.89-4.85s-.62-3.62-1.87-4.89c-1.25-1.27-2.81-1.9-4.69-1.9s-3.54,.64-4.75,1.92-1.83,2.9-1.83,4.86,.62,3.52,1.85,4.82c1.24,1.3,2.81,1.95,4.73,1.95s3.4-.64,4.67-1.91Z"/><path class="h" d="M316.56,81.09c1.55,1.75,2.33,4.44,2.33,8.06v14.26h-6.76v-12.67c0-4.25-1.47-6.37-4.41-6.37-.96,0-1.82,.25-2.6,.76-.77,.51-1.39,1.28-1.85,2.32-.46,1.04-.69,2.27-.69,3.69v12.28h-6.76v-12.67c0-4.25-1.49-6.37-4.46-6.37-1.03,0-1.93,.25-2.72,.76-.79,.51-1.42,1.28-1.89,2.32-.47,1.04-.71,2.27-.71,3.69v12.25h-6.76v-24.51h6.76v3.24h.08c.99-1.18,2.14-2.08,3.46-2.71s2.67-.94,4.09-.94c3.51,0,6.01,1.31,7.49,3.95h.08c1.03-1.27,2.29-2.25,3.8-2.93s3.17-1.02,4.98-1.02c2.83,0,5.02,.87,6.57,2.62Z"/><path class="h" d="M360.05,81.09c1.55,1.75,2.33,4.44,2.33,8.06v14.26h-6.76v-12.67c0-4.25-1.47-6.37-4.41-6.37-.96,0-1.82,.25-2.6,.76-.77,.51-1.39,1.28-1.85,2.32-.46,1.04-.69,2.27-.69,3.69v12.28h-6.76v-12.67c0-4.25-1.49-6.37-4.46-6.37-1.03,0-1.93,.25-2.72,.76-.79,.51-1.42,1.28-1.89,2.32-.47,1.04-.71,2.27-.71,3.69v12.25h-6.76v-24.51h6.76v3.24h.08c.99-1.18,2.14-2.08,3.46-2.71s2.67-.94,4.09-.94c3.51,0,6.01,1.31,7.49,3.95h.08c1.03-1.27,2.29-2.25,3.8-2.93s3.17-1.02,4.98-1.02c2.83,0,5.02,.87,6.57,2.62Z"/><path class="h" d="M373.84,103.19c-1.4-.41-2.64-.99-3.72-1.74-1.08-.75-2.02-1.65-2.81-2.68-.79-1.04-1.39-2.2-1.8-3.49s-.62-2.66-.62-4.12c0-1.81,.32-3.5,.97-5.07,.65-1.57,1.55-2.91,2.71-4.03,1.16-1.12,2.58-2,4.26-2.63,1.68-.64,3.51-.96,5.47-.96s3.73,.31,5.4,.93c1.67,.62,3.09,1.48,4.26,2.59,1.18,1.1,2.1,2.44,2.76,4.02s1,3.3,1,5.16c0,2.47-.57,4.66-1.71,6.59s-2.73,3.42-4.77,4.47c-2.03,1.05-4.35,1.58-6.94,1.58-1.58,0-3.07-.21-4.46-.61Zm9.13-7.18c1.26-1.27,1.89-2.89,1.89-4.85s-.62-3.62-1.87-4.89c-1.25-1.27-2.81-1.9-4.69-1.9s-3.54,.64-4.75,1.92-1.83,2.9-1.83,4.86,.62,3.52,1.85,4.82c1.24,1.3,2.81,1.95,4.73,1.95s3.4-.64,4.67-1.91Z"/><path class="h" d="M413.23,79.04c1.08,.38,2.04,.98,2.88,1.78,.83,.8,1.47,1.88,1.9,3.23,.44,1.36,.66,2.96,.66,4.8v14.56h-6.76v-12.91c0-2.25-.4-3.84-1.19-4.75-.79-.91-2.01-1.37-3.66-1.37-1.75,0-3.14,.58-4.17,1.74s-1.55,2.81-1.55,4.95v12.33h-6.76v-24.51h6.76v3.16h.08c1.03-1.16,2.24-2.05,3.64-2.66,1.4-.61,2.89-.92,4.45-.92,1.4,0,2.64,.19,3.72,.58Z"/><path class="h" d="M420.49,100.2l3.28-4.53c2.1,1.91,4.43,2.87,6.99,2.87,.96,0,1.71-.19,2.27-.56,.56-.38,.83-.87,.83-1.47,0-.38-.17-.71-.5-.99-.34-.29-.8-.55-1.4-.8-.6-.25-1.49-.56-2.69-.93-.76-.25-1.43-.49-2.03-.74-.6-.24-1.21-.53-1.83-.87s-1.16-.71-1.6-1.12-.85-.87-1.21-1.37c-.36-.51-.63-1.09-.82-1.74s-.28-1.36-.28-2.13c0-1.45,.4-2.74,1.2-3.86,.8-1.12,1.88-1.98,3.25-2.59,1.37-.6,2.91-.91,4.63-.91s3.39,.25,4.87,.73c1.48,.49,2.93,1.27,4.36,2.35l-3.28,4.8c-.94-.87-1.94-1.52-2.99-1.95s-2.06-.65-3.04-.65c-.64,0-1.21,.16-1.71,.48-.5,.32-.76,.77-.76,1.36,0,.49,.3,.93,.9,1.32,.6,.39,1.56,.83,2.89,1.32,2.79,1,4.66,1.79,5.6,2.38,1.63,.98,2.61,2.29,2.93,3.92,.1,.49,.15,1.04,.15,1.64,0,2.27-.84,4.11-2.51,5.51-1.67,1.4-4.1,2.11-7.28,2.11-4,0-7.41-1.2-10.21-3.6Z"/></g></svg>