<?xml version="1.0" encoding="utf-8"?>
<!-- Generator: Adobe Illustrator 26.2.1, SVG Export Plug-In . SVG Version: 6.00 Build 0)  -->
<svg version="1.1" id="Layer_1" xmlns="http://www.w3.org/2000/svg" xmlns:xlink="http://www.w3.org/1999/xlink" x="0px" y="0px"
	 viewBox="0 0 700 499.9" style="enable-background:new 0 0 700 499.9;" xml:space="preserve">
<symbol  id="a" viewBox="-7.7 -8 15.5 16.1">
	<path d="M0.3,0.8c-1,0-1.8,0.2-2.3,0.5c-0.5,0.3-0.8,0.9-0.8,1.5c0,0.6,0.2,1.1,0.6,1.5c0.4,0.3,1,0.5,1.7,0.5c0.9,0,1.7-0.3,2.3-1
		c0.6-0.7,1-1.5,1-2.5V0.8L0.3,0.8z M7.7-1.1v8.7H2.8V5.4C2.2,6.3,1.4,7,0.6,7.4C-0.2,7.8-1.2,8-2.4,8C-4,8-5.3,7.6-6.3,6.7
		c-1-0.9-1.5-2.1-1.5-3.6c0-1.8,0.6-3.1,1.8-3.9c1.2-0.8,3.2-1.3,5.8-1.3h2.9v-0.4c0-0.8-0.3-1.3-0.9-1.7C1.3-4.6,0.3-4.8-1-4.8
		c-1.1,0-2,0.1-2.9,0.3c-0.9,0.2-1.7,0.5-2.5,0.9v-3.7c1-0.2,2.1-0.4,3.1-0.6C-2.2-8-1.1-8-0.1-8c2.8,0,4.8,0.5,6,1.6
		C7.1-5.3,7.7-3.5,7.7-1.1L7.7-1.1z"/>
</symbol>
<symbol  id="b" viewBox="-8.2 -8 16.4 16.1">
	<path d="M8.2-0.1v1.4H-3.2c0.1,1.1,0.5,2,1.2,2.6c0.7,0.6,1.7,0.9,3,0.9c1,0,2.1-0.1,3.2-0.5C5.2,4,6.3,3.6,7.5,2.9v3.8
		C6.3,7.1,5.2,7.5,4,7.7C2.9,7.9,1.7,8,0.5,8c-2.8,0-4.9-0.7-6.5-2.1C-7.5,4.5-8.2,2.6-8.2,0c0-2.5,0.8-4.5,2.3-5.9
		C-4.4-7.3-2.4-8,0.3-8C2.7-8,4.6-7.3,6-5.9C7.5-4.4,8.2-2.5,8.2-0.1L8.2-0.1z M3.2-1.7c0-0.9-0.3-1.7-0.8-2.2
		C1.8-4.5,1.1-4.8,0.3-4.8c-0.9,0-1.7,0.3-2.3,0.8s-1,1.3-1.1,2.3H3.2z"/>
</symbol>
<symbol  id="c" viewBox="-6.2 -9.8 12.4 19.7">
	<path d="M1.1-9.8v4.3h5V-2h-5v6.5c0,0.7,0.1,1.2,0.4,1.4s0.8,0.4,1.7,0.4h2.5v3.5H1.6c-1.9,0-3.3-0.4-4.1-1.2
		c-0.8-0.8-1.2-2.2-1.2-4.1V-2h-2.4v-3.5h2.4v-4.3H1.1z"/>
</symbol>
<symbol  id="d" viewBox="-5.7 -7.8 11.4 15.7">
	<path d="M5.7-3.3C5.2-3.5,4.8-3.6,4.4-3.7C4-3.8,3.6-3.9,3.1-3.9c-1.3,0-2.2,0.4-2.9,1.2c-0.7,0.8-1,2-1,3.5v7.1h-4.9V-7.5h4.9V-5
		c0.6-1,1.3-1.7,2.2-2.2c0.8-0.5,1.8-0.7,2.9-0.7c0.2,0,0.3,0,0.5,0c0.2,0,0.5,0,0.8,0.1L5.7-3.3z"/>
</symbol>
<symbol  id="e" viewBox="-8.4 -8 16.8 16.1">
	<path d="M0-4.5c-1.1,0-1.9,0.4-2.5,1.2C-3-2.6-3.3-1.5-3.3,0S-3,2.6-2.5,3.4C-1.9,4.2-1.1,4.5,0,4.5c1.1,0,1.9-0.4,2.4-1.2
		C3,2.6,3.3,1.5,3.3,0S3-2.6,2.5-3.4C1.9-4.1,1.1-4.5,0-4.5z M0-8c2.6,0,4.7,0.7,6.2,2.1C7.7-4.5,8.4-2.5,8.4,0
		c0,2.5-0.7,4.5-2.2,5.9C4.7,7.3,2.7,8,0,8c-2.6,0-4.7-0.7-6.2-2.1C-7.7,4.5-8.4,2.5-8.4,0c0-2.5,0.7-4.5,2.2-5.9
		C-4.7-7.3-2.6-8,0-8z"/>
</symbol>
<symbol  id="f" viewBox="-8.7 -10.7 17.4 21.4">
	<path d="M-8.7-10.7h4.9L0.3-0.3l3.5-10.4h4.9L2.3,6.1C1.6,7.8,0.9,9,0,9.6c-0.9,0.7-2,1-3.4,1h-2.8V7.5h1.5c0.8,0,1.4-0.1,1.8-0.4
		C-2.5,6.8-2.2,6.3-2,5.6l0.1-0.4L-8.7-10.7z"/>
</symbol>
<symbol  id="g" viewBox="-7.7 -10.6 15.4 21.3">
	<path d="M7.7,1.3v9.3H2.8V3.5c0-1.3,0-2.3-0.1-2.8S2.5-0.1,2.4-0.3C2.2-0.7,1.9-0.9,1.6-1.1C1.3-1.3,0.9-1.3,0.5-1.3
		c-1,0-1.8,0.4-2.4,1.2c-0.6,0.8-0.9,1.9-0.9,3.3v7.5h-4.9v-21.3h4.9v8.2c0.7-0.9,1.5-1.5,2.3-2C0.4-4.8,1.3-5,2.3-5
		c1.8,0,3.1,0.5,4,1.6C7.2-2.3,7.7-0.8,7.7,1.3L7.7,1.3z"/>
</symbol>
<symbol  id="h" viewBox="-7.7 -7.8 15.4 15.7">
	<path d="M7.7-1.5v9.3H2.8V0.7c0-1.3,0-2.2-0.1-2.7S2.5-2.9,2.4-3.1C2.2-3.5,1.9-3.7,1.6-3.9C1.3-4.1,0.9-4.1,0.5-4.1
		c-1,0-1.8,0.4-2.4,1.2c-0.6,0.8-0.9,1.9-0.9,3.3v7.5h-4.9V-7.5h4.9v2.2c0.7-0.9,1.5-1.5,2.3-2c0.8-0.4,1.8-0.6,2.8-0.6
		c1.8,0,3.1,0.5,4,1.6C7.2-5.1,7.7-3.5,7.7-1.5L7.7-1.5z"/>
</symbol>
<symbol  id="i" viewBox="-6.9 -8 13.9 16.1">
	<path d="M5.9-7.2v3.7c-1-0.4-2.1-0.8-3-1C1.9-4.7,1-4.8,0.1-4.8c-0.9,0-1.6,0.1-2.1,0.3c-0.4,0.2-0.7,0.6-0.7,1.1
		c0,0.4,0.2,0.7,0.5,0.9c0.3,0.2,1,0.4,1.8,0.5l0.9,0.1C3.1-1.5,4.8-1,5.6-0.3c0.9,0.7,1.3,1.9,1.3,3.4c0,1.6-0.6,2.9-1.8,3.7
		C3.9,7.6,2.1,8-0.2,8c-1,0-2.1-0.1-3.2-0.2c-1.1-0.2-2.2-0.4-3.3-0.7V3.4c1,0.5,2,0.8,3,1.1c1,0.2,2.1,0.3,3.1,0.3
		c1,0,1.7-0.1,2.2-0.4C2,4.1,2.3,3.7,2.3,3.2c0-0.4-0.2-0.8-0.5-1c-0.3-0.2-1-0.4-2-0.5l-0.9-0.1c-2.2-0.3-3.7-0.8-4.6-1.5
		c-0.9-0.7-1.3-1.9-1.3-3.4c0-1.6,0.6-2.8,1.7-3.6C-4.2-7.6-2.5-8-0.2-8C0.7-8,1.7-8,2.7-7.8C3.7-7.7,4.7-7.5,5.9-7.2L5.9-7.2z"/>
</symbol>
<symbol  id="j" viewBox="-10.5 -10.6 21 21.2">
	<path d="M0-6.8c-1.6,0-2.9,0.6-3.7,1.8C-4.6-3.8-5-2.1-5,0c0,2.1,0.4,3.8,1.3,5C-2.9,6.2-1.6,6.8,0,6.8c1.6,0,2.9-0.6,3.8-1.8
		c0.9-1.2,1.3-2.9,1.3-5c0-2.1-0.4-3.8-1.3-5C2.9-6.2,1.6-6.8,0-6.8z M0-10.6c3.3,0,5.8,0.9,7.7,2.8c1.9,1.9,2.8,4.5,2.8,7.8
		c0,3.3-0.9,5.9-2.8,7.8C5.8,9.6,3.3,10.6,0,10.6c-3.3,0-5.8-0.9-7.7-2.8c-1.9-1.9-2.8-4.5-2.8-7.8c0-3.3,0.9-5.9,2.8-7.8
		C-5.8-9.6-3.3-10.6,0-10.6z"/>
</symbol>
<symbol  id="k" viewBox="-8.2 -10.8 16.4 21.7">
	<path d="M-0.1,7.3c1.1,0,1.9-0.4,2.4-1.1c0.6-0.8,0.8-1.9,0.8-3.3c0-1.5-0.3-2.6-0.8-3.3C1.8-1.3,1-1.7-0.1-1.7
		c-1.1,0-1.9,0.4-2.4,1.2C-3,0.2-3.3,1.4-3.3,2.8c0,1.4,0.3,2.6,0.8,3.3C-1.9,6.9-1.1,7.3-0.1,7.3L-0.1,7.3z M-3.3-2.6
		c0.7-0.9,1.4-1.5,2.2-2C-0.3-5,0.7-5.2,1.7-5.2c1.9,0,3.4,0.8,4.7,2.2c1.2,1.5,1.8,3.4,1.8,5.8c0,2.4-0.6,4.3-1.8,5.8
		c-1.2,1.5-2.8,2.2-4.7,2.2c-1.1,0-2-0.2-2.8-0.6c-0.8-0.4-1.6-1.1-2.2-2v2.2h-4.9v-21.3h4.9V-2.6z"/>
</symbol>
<symbol  id="l" viewBox="-8.2 -10.8 16.4 21.7">
	<path d="M3.3-2.6v-8.2h4.9v21.3H3.3V8.2c-0.7,0.9-1.4,1.6-2.2,2c-0.8,0.4-1.8,0.6-2.8,0.6c-1.9,0-3.4-0.8-4.6-2.2
		c-1.2-1.5-1.8-3.4-1.8-5.8c0-2.4,0.6-4.3,1.8-5.8c1.2-1.5,2.8-2.2,4.6-2.2c1.1,0,2,0.2,2.8,0.6C1.9-4.2,2.6-3.5,3.3-2.6L3.3-2.6z
		 M0.1,7.3c1,0,1.8-0.4,2.4-1.1C3,5.4,3.3,4.3,3.3,2.8c0-1.5-0.3-2.6-0.8-3.3C1.9-1.3,1.1-1.7,0.1-1.7c-1,0-1.8,0.4-2.4,1.2
		c-0.6,0.8-0.8,1.9-0.8,3.3c0,1.5,0.3,2.6,0.8,3.3C-1.8,6.9-1,7.3,0.1,7.3z"/>
</symbol>
<symbol  id="m" viewBox="-6.8 -8 13.5 16.1">
	<path d="M6.8-7.2v4c-0.7-0.5-1.3-0.8-2-1C4.1-4.4,3.4-4.5,2.7-4.5c-1.4,0-2.4,0.4-3.2,1.2C-1.3-2.5-1.7-1.4-1.7,0
		c0,1.4,0.4,2.5,1.1,3.3c0.8,0.8,1.8,1.2,3.2,1.2c0.8,0,1.5-0.1,2.2-0.3c0.7-0.2,1.3-0.6,1.9-1v4C6,7.5,5.2,7.7,4.4,7.8
		C3.6,8,2.9,8,2.1,8c-2.8,0-4.9-0.7-6.5-2.1C-6,4.5-6.8,2.5-6.8,0c0-2.5,0.8-4.5,2.3-5.9C-2.9-7.3-0.7-8,2.1-8C2.9-8,3.6-8,4.4-7.8
		C5.2-7.7,6-7.5,6.8-7.2L6.8-7.2z"/>
</symbol>
<symbol  id="n" viewBox="-4.1 -13.7 8.2 27.3">
	<path d="M-0.8-7.7h4.9v15c0,2.1-0.5,3.6-1.5,4.7c-1,1.1-2.4,1.6-4.3,1.6h-2.4v-3.2h0.9c0.9,0,1.6-0.2,1.9-0.6
		C-1,9.4-0.8,8.6-0.8,7.3L-0.8-7.7z M-0.8-13.7h4.9v4h-4.9L-0.8-13.7z"/>
</symbol>
<symbol  id="o" viewBox="-8.4 -10.2 16.8 20.4">
	<path d="M-8.4-10.2h8.7c2.6,0,4.6,0.6,6,1.7c1.4,1.1,2.1,2.8,2.1,4.9c0,2.1-0.7,3.8-2.1,4.9c-1.4,1.2-3.4,1.7-6,1.7h-3.5v7.1h-5.2
		V-10.2z M-3.1-6.4v5.7h2.9c1,0,1.8-0.2,2.4-0.8C2.7-1.9,3-2.6,3-3.5c0-0.9-0.3-1.6-0.8-2.1C1.6-6.1,0.8-6.4-0.2-6.4L-3.1-6.4z"/>
</symbol>
<symbol  id="p" viewBox="-7.7 -7.9 15.4 15.7">
	<path d="M-7.7,1.5v-9.3h4.9v1.5c0,0.8,0,1.9,0,3.1c0,1.3,0,2.1,0,2.5c0,1.2,0,2.1,0.1,2.7c0.1,0.5,0.2,0.9,0.3,1.2
		c0.2,0.3,0.5,0.6,0.8,0.8c0.3,0.2,0.7,0.2,1.1,0.2c1,0,1.8-0.4,2.4-1.2c0.6-0.8,0.9-1.9,0.9-3.3v-7.6h4.9V7.5H2.8V5.2
		c-0.7,0.9-1.5,1.6-2.3,2c-0.8,0.4-1.7,0.6-2.7,0.6c-1.8,0-3.1-0.5-4-1.6C-7.2,5.1-7.7,3.6-7.7,1.5L-7.7,1.5z"/>
</symbol>
<symbol  id="q" viewBox="-9.1 -10.2 18.3 20.4">
	<path d="M-9.1-10.2h5.9l7.4,14v-14h5v20.4H3.3l-7.4-14v14h-5V-10.2z"/>
</symbol>
<symbol  id="r" viewBox="-12.3 -7.8 24.6 15.7">
	<path d="M1.9-4.9c0.6-0.9,1.3-1.7,2.2-2.2C5-7.6,5.9-7.8,6.9-7.8c1.8,0,3.1,0.5,4,1.6c0.9,1.1,1.4,2.7,1.4,4.7v9.3H7.4v-8v-0.4
		c0-0.1,0-0.3,0-0.6c0-1.1-0.2-1.9-0.5-2.3C6.6-3.9,6.1-4.1,5.4-4.1C4.5-4.1,3.8-3.8,3.2-3C2.7-2.2,2.5-1.1,2.5,0.3v7.5h-4.9v-8
		c0-1.7-0.1-2.8-0.4-3.3c-0.3-0.5-0.8-0.7-1.6-0.7c-0.9,0-1.7,0.4-2.2,1.2c-0.5,0.8-0.8,1.9-0.8,3.3v7.5h-4.9V-7.5h4.9v2.2
		c0.6-0.9,1.3-1.5,2.1-2c0.8-0.4,1.6-0.7,2.6-0.7c1.1,0,2,0.3,2.8,0.8C0.9-6.6,1.5-5.8,1.9-4.9L1.9-4.9z"/>
</symbol>
<symbol  id="s" viewBox="-5.9 -10.6 11.9 21.3">
	<path d="M5.9-10.6v3.2H3.2C2.6-7.4,2.1-7.3,1.8-7C1.5-6.8,1.4-6.4,1.4-5.7v1.1h4.2v3.5H1.4v11.8h-4.9V-1.2h-2.4v-3.5h2.4v-1.1
		c0-1.7,0.5-2.9,1.4-3.7c0.9-0.8,2.4-1.2,4.3-1.2L5.9-10.6z"/>
</symbol>
<symbol  id="t" viewBox="-8.7 -7.7 17.4 15.3">
	<path d="M-8.7-7.7h4.9L0,2.9L3.8-7.7h4.9l-6,15.3h-5.4L-8.7-7.7z"/>
</symbol>
<symbol  id="u" viewBox="-7.2 -10.2 14.5 20.4">
	<path d="M-7.2-10.2H-2V6.2h9.2v4H-7.2V-10.2z"/>
</symbol>
<symbol  id="v" viewBox="-8.4 -10.6 16.8 21.3">
	<path d="M-8.4-10.6h4.9V1l5.6-5.6h5.7l-7.5,7l8.1,8.3H2.5l-6-6.4v6.4h-4.9L-8.4-10.6z"/>
</symbol>
<symbol  id="w" viewBox="-8.7 -10.6 17.4 21.2">
	<path d="M8.7,9.1c-1,0.5-2,0.9-3,1.1c-1,0.3-2.1,0.4-3.3,0.4c-3.4,0-6.1-0.9-8.1-2.8c-2-1.9-3-4.5-3-7.7c0-3.3,1-5.8,3-7.7
		c2-1.9,4.7-2.9,8.1-2.9c1.1,0,2.2,0.1,3.3,0.4c1.1,0.2,2.1,0.6,3,1.1v4.2C7.7-5.5,6.7-6,5.8-6.3c-0.9-0.3-1.9-0.5-3-0.5
		C0.9-6.8-0.6-6.2-1.6-5c-1.1,1.2-1.6,2.9-1.6,5c0,2.1,0.5,3.8,1.6,5c1.1,1.2,2.5,1.8,4.4,1.8c1.1,0,2.1-0.1,3-0.5
		C6.7,6,7.7,5.5,8.7,4.9V9.1z"/>
</symbol>
<g>
	<path d="M196.4,323.5c34.6,0,62.7-28.1,62.7-62.7S231,198,196.4,198c-34.6,0-62.7,28.1-62.7,62.7S161.8,323.5,196.4,323.5
		L196.4,323.5z M196.4,224.4c20,0,36.3,16.3,36.3,36.3s-16.3,36.3-36.3,36.3S160,280.8,160,260.7S176.3,224.4,196.4,224.4
		L196.4,224.4z"/>
	<path d="M124.4,415.8c0-27,21.9-48.9,48.9-48.9h46.2c1.4,0,2.8,0.1,4.1,0.2c3.8,0.3,7.6-1,10.4-3.5c2.7-2.5,4.2-5.9,4.2-9.6
		c0-6.7-5.2-12.5-11.7-13.1c-2.3-0.2-4.6-0.3-7-0.3h-46.2c-41.5,0-75.3,33.8-75.3,75.3v5.4h26.4L124.4,415.8z"/>
	<path d="M242.9,421.2h26.4v-32.5c0-30.5,24.8-55.2,55.3-55.2h51c30.5,0,55.3,24.8,55.3,55.2v32.5h26.4v-32.5
		c0-27.6-13.8-53.1-37-68.3c-13.3-8.7-28.8-13.4-44.6-13.4h-51c-25.2,0-48.7,11.5-64.3,31.5c-11.4,14.5-17.3,31.9-17.3,50.2
		L242.9,421.2L242.9,421.2z"/>
	<path d="M526.7,340.5h-46.2c-1.3,0-2.6,0-3.9,0.1c-7.1,0.4-12.7,6.2-12.7,13.2c0,3.6,1.5,7.1,4.1,9.6c2.6,2.5,6.1,3.7,9.7,3.5
		c0.9-0.1,1.8-0.1,2.7-0.1h46.2c27,0,48.9,21.9,48.9,48.9v5.4l26.4,0v-5.4C602,374.2,568.2,340.5,526.7,340.5L526.7,340.5z"/>
	<path d="M503.6,323.5c34.6,0,62.7-28.1,62.7-62.7S538.2,198,503.6,198c-34.6,0-62.7,28.1-62.7,62.7S469,323.5,503.6,323.5
		L503.6,323.5z M503.6,224.4c20,0,36.3,16.3,36.3,36.3s-16.3,36.3-36.3,36.3s-36.3-16.3-36.3-36.3
		C467.3,240.7,483.6,224.4,503.6,224.4L503.6,224.4z"/>
	<path d="M350,296.6c43.5,0,78.9-35.4,78.9-78.9s-35.4-78.9-78.9-78.9s-78.9,35.4-78.9,78.9C271.1,261.2,306.5,296.6,350,296.6z
		 M350,165.2c29,0,52.5,23.6,52.5,52.5c0,29-23.6,52.5-52.5,52.5c-29,0-52.5-23.6-52.5-52.5C297.5,188.8,321,165.2,350,165.2z"/>
	
		<use xlink:href="#w"  width="17.4" height="21.2" x="-8.7" y="-10.6" transform="matrix(1 0 0 1 80.0786 633.8046)" style="overflow:visible;"/>
	
		<use xlink:href="#d"  width="11.4" height="15.7" x="-5.7" y="-7.8" transform="matrix(1 0 0 1 98.5973 636.1561)" style="overflow:visible;"/>
	
		<use xlink:href="#b"  width="16.4" height="16.1" x="-8.2" y="-8" transform="matrix(1 0 0 1 113.7816 636.3516)" style="overflow:visible;"/>
	
		<use xlink:href="#a"  width="15.5" height="16.1" x="-7.7" y="-8" transform="matrix(1 0 0 1 132.293 636.3515)" style="overflow:visible;"/>
	
		<use xlink:href="#c"  width="12.4" height="19.7" x="-6.2" y="-9.8" transform="matrix(1 0 0 1 148.8047 634.1722)" style="overflow:visible;"/>
	<g>
		<defs>
			<rect id="SVGID_1_" x="155.6" y="644" width="700" height="700"/>
		</defs>
		<clipPath id="SVGID_00000085229329717746873850000003019928879336002956_">
			<use xlink:href="#SVGID_1_"  style="overflow:visible;"/>
		</clipPath>
		<g style="clip-path:url(#SVGID_00000085229329717746873850000003019928879336002956_);">
			
				<use xlink:href="#b"  width="16.4" height="16.1" x="-8.2" y="-8" transform="matrix(1 0 0 1 165.0511 636.3516)" style="overflow:visible;"/>
		</g>
	</g>
	
		<use xlink:href="#l"  width="16.4" height="21.7" x="-8.2" y="-10.8" transform="matrix(1 0 0 1 184.0941 633.5547)" style="overflow:visible;"/>
	
		<use xlink:href="#k"  width="16.4" height="21.7" x="-8.2" y="-10.8" transform="matrix(1 0 0 1 214.9805 633.5548)" style="overflow:visible;"/>
	
		<use xlink:href="#f"  width="17.4" height="21.4" x="-8.7" y="-10.7" transform="matrix(1 0 0 1 233.5 639.3679)" style="overflow:visible;"/>
	
		<use xlink:href="#j"  width="21" height="21.2" x="-10.5" y="-10.6" transform="matrix(1 0 0 1 264.3441 633.8044)" style="overflow:visible;"/>
	
		<use xlink:href="#v"  width="16.8" height="21.3" x="-8.4" y="-10.6" transform="matrix(1 0 0 1 287.0117 633.3597)" style="overflow:visible;"/>
	
		<use xlink:href="#i"  width="13.9" height="16.1" x="-6.9" y="-8" transform="matrix(1 0 0 1 303.2731 636.3517)" style="overflow:visible;"/>
	<g>
		<defs>
			<rect id="SVGID_00000053510663925936433520000011679156345493905586_" x="311.5" y="644" width="700" height="700"/>
		</defs>
		<clipPath id="SVGID_00000003095126756760650510000005400800611543008692_">
			<use xlink:href="#SVGID_00000053510663925936433520000011679156345493905586_"  style="overflow:visible;"/>
		</clipPath>
		<g style="clip-path:url(#SVGID_00000003095126756760650510000005400800611543008692_);">
			
				<use xlink:href="#a"  width="15.5" height="16.1" x="-7.7" y="-8" transform="matrix(1 0 0 1 320.4844 636.3515)" style="overflow:visible;"/>
		</g>
	</g>
	
		<use xlink:href="#h"  width="15.4" height="15.7" x="-7.7" y="-7.8" transform="matrix(1 0 0 1 340.4922 636.1564)" style="overflow:visible;"/>
	<g>
		<defs>
			<rect id="SVGID_00000132796136297188508830000013454311855068397200_" x="350.4" y="644" width="700" height="700"/>
		</defs>
		<clipPath id="SVGID_00000178892696072303842790000008112056216768072383_">
			<use xlink:href="#SVGID_00000132796136297188508830000013454311855068397200_"  style="overflow:visible;"/>
		</clipPath>
		<g style="clip-path:url(#SVGID_00000178892696072303842790000008112056216768072383_);">
			
				<use xlink:href="#a"  width="15.5" height="16.1" x="-7.7" y="-8" transform="matrix(1 0 0 1 359.3125 636.3515)" style="overflow:visible;"/>
		</g>
	</g>
	
		<use xlink:href="#u"  width="14.5" height="20.4" x="-7.2" y="-10.2" transform="matrix(1 0 0 1 388.8398 633.7972)" style="overflow:visible;"/>
	<g>
		<defs>
			<rect id="SVGID_00000073702769672487260380000000527612836128305060_" x="396.9" y="644" width="700" height="700"/>
		</defs>
		<clipPath id="SVGID_00000083808699153826391190000012034158743848392375_">
			<use xlink:href="#SVGID_00000073702769672487260380000000527612836128305060_"  style="overflow:visible;"/>
		</clipPath>
		<g style="clip-path:url(#SVGID_00000083808699153826391190000012034158743848392375_);">
			
				<use xlink:href="#a"  width="15.5" height="16.1" x="-7.7" y="-8" transform="matrix(1 0 0 1 405.7969 636.3515)" style="overflow:visible;"/>
		</g>
	</g>
	<g>
		<defs>
			<rect id="SVGID_00000153697119579943045690000011938339756079092898_" x="415.8" y="644" width="700" height="700"/>
		</defs>
		<clipPath id="SVGID_00000159454291234121214220000015497027482149416091_">
			<use xlink:href="#SVGID_00000153697119579943045690000011938339756079092898_"  style="overflow:visible;"/>
		</clipPath>
		<g style="clip-path:url(#SVGID_00000159454291234121214220000015497027482149416091_);">
			
				<use xlink:href="#c"  width="12.4" height="19.7" x="-6.2" y="-9.8" transform="matrix(1 0 0 1 422.3125 634.1722)" style="overflow:visible;"/>
		</g>
	</g>
	<g>
		<defs>
			<rect id="SVGID_00000055687828069814528070000016391778967855931280_" x="429.1" y="644" width="700" height="700"/>
		</defs>
		<clipPath id="SVGID_00000068667652180791642750000011074113108525467281_">
			<use xlink:href="#SVGID_00000055687828069814528070000016391778967855931280_"  style="overflow:visible;"/>
		</clipPath>
		<g style="clip-path:url(#SVGID_00000068667652180791642750000011074113108525467281_);">
			
				<use xlink:href="#f"  width="17.4" height="21.4" x="-8.7" y="-10.7" transform="matrix(1 0 0 1 438.1797 639.3679)" style="overflow:visible;"/>
		</g>
	</g>
	<g>
		<defs>
			<rect id="SVGID_00000012431368161462226650000011404801826516718520_" x="447.4" y="644" width="700" height="700"/>
		</defs>
		<clipPath id="SVGID_00000080918835081477560340000016617625250072689834_">
			<use xlink:href="#SVGID_00000012431368161462226650000011404801826516718520_"  style="overflow:visible;"/>
		</clipPath>
		<g style="clip-path:url(#SVGID_00000080918835081477560340000016617625250072689834_);">
			
				<use xlink:href="#i"  width="13.9" height="16.1" x="-6.9" y="-8" transform="matrix(1 0 0 1 455.7809 636.3517)" style="overflow:visible;"/>
		</g>
	</g>
	
		<use xlink:href="#g"  width="15.4" height="21.3" x="-7.7" y="-10.6" transform="matrix(1 0 0 1 474.1055 633.3594)" style="overflow:visible;"/>
	<g>
		<defs>
			<rect id="SVGID_00000035499112986439132630000017781708745756682908_" x="484" y="644" width="700" height="700"/>
		</defs>
		<clipPath id="SVGID_00000064351669025984767280000002255806707461620413_">
			<use xlink:href="#SVGID_00000035499112986439132630000017781708745756682908_"  style="overflow:visible;"/>
		</clipPath>
		<g style="clip-path:url(#SVGID_00000064351669025984767280000002255806707461620413_);">
			
				<use xlink:href="#b"  width="16.4" height="16.1" x="-8.2" y="-8" transform="matrix(1 0 0 1 493.4066 636.3516)" style="overflow:visible;"/>
		</g>
	</g>
	
		<use xlink:href="#t"  width="17.4" height="15.3" x="-8.7" y="-7.7" transform="matrix(1 0 0 1 512.1093 636.344)" style="overflow:visible;"/>
	<g>
		<defs>
			<rect id="SVGID_00000178206926535174991450000009620139530608839299_" x="521.2" y="644" width="700" height="700"/>
		</defs>
		<clipPath id="SVGID_00000090281901730338223700000005257428946561218700_">
			<use xlink:href="#SVGID_00000178206926535174991450000009620139530608839299_"  style="overflow:visible;"/>
		</clipPath>
		<g style="clip-path:url(#SVGID_00000090281901730338223700000005257428946561218700_);">
			
				<use xlink:href="#a"  width="15.5" height="16.1" x="-7.7" y="-8" transform="matrix(1 0 0 1 530.1719 636.3515)" style="overflow:visible;"/>
		</g>
	</g>
	
		<use xlink:href="#s"  width="11.9" height="21.3" x="-5.9" y="-10.6" transform="matrix(1 0 0 1 76.4767 661.3594)" style="overflow:visible;"/>
	<g>
		<defs>
			<rect id="SVGID_00000160166790529328595840000003787713362205218699_" x="82.2" y="672" width="700" height="700"/>
		</defs>
		<clipPath id="SVGID_00000018916750206192513560000016539308502277651134_">
			<use xlink:href="#SVGID_00000160166790529328595840000003787713362205218699_"  style="overflow:visible;"/>
		</clipPath>
		<g style="clip-path:url(#SVGID_00000018916750206192513560000016539308502277651134_);">
			
				<use xlink:href="#d"  width="11.4" height="15.7" x="-5.7" y="-7.8" transform="matrix(1 0 0 1 90.2301 664.1561)" style="overflow:visible;"/>
		</g>
	</g>
	
		<use xlink:href="#e"  width="16.8" height="16.1" x="-8.4" y="-8" transform="matrix(1 0 0 1 105.6094 664.351)" style="overflow:visible;"/>
	
		<use xlink:href="#r"  width="24.6" height="15.7" x="-12.3" y="-7.8" transform="matrix(1 0 0 1 129.875 664.1558)" style="overflow:visible;"/>
	<g>
		<defs>
			<rect id="SVGID_00000098931576959684538040000004096008808948389536_" x="154.2" y="672" width="700" height="700"/>
		</defs>
		<clipPath id="SVGID_00000089563507131652156260000007442238446445523632_">
			<use xlink:href="#SVGID_00000098931576959684538040000004096008808948389536_"  style="overflow:visible;"/>
		</clipPath>
		<g style="clip-path:url(#SVGID_00000089563507131652156260000007442238446445523632_);">
			
				<use xlink:href="#c"  width="12.4" height="19.7" x="-6.2" y="-9.8" transform="matrix(1 0 0 1 160.7148 662.1722)" style="overflow:visible;"/>
		</g>
	</g>
	<g>
		<defs>
			<rect id="SVGID_00000140722128641136622680000002050865563439595908_" x="167.5" y="672" width="700" height="700"/>
		</defs>
		<clipPath id="SVGID_00000087399028584341897670000005380996767760745092_">
			<use xlink:href="#SVGID_00000140722128641136622680000002050865563439595908_"  style="overflow:visible;"/>
		</clipPath>
		<g style="clip-path:url(#SVGID_00000087399028584341897670000005380996767760745092_);">
			
				<use xlink:href="#g"  width="15.4" height="21.3" x="-7.7" y="-10.6" transform="matrix(1 0 0 1 177.5899 661.3594)" style="overflow:visible;"/>
		</g>
	</g>
	<g>
		<defs>
			<rect id="SVGID_00000096037748605660227970000017693766870627174070_" x="187.5" y="672" width="700" height="700"/>
		</defs>
		<clipPath id="SVGID_00000082348847084619833690000004482890058051358143_">
			<use xlink:href="#SVGID_00000096037748605660227970000017693766870627174070_"  style="overflow:visible;"/>
		</clipPath>
		<g style="clip-path:url(#SVGID_00000082348847084619833690000004482890058051358143_);">
			
				<use xlink:href="#b"  width="16.4" height="16.1" x="-8.2" y="-8" transform="matrix(1 0 0 1 196.8909 664.3516)" style="overflow:visible;"/>
		</g>
	</g>
	
		<use xlink:href="#q"  width="18.3" height="20.4" x="-9.1" y="-10.2" transform="matrix(1 0 0 1 227.9258 661.797)" style="overflow:visible;"/>
	<g>
		<defs>
			<rect id="SVGID_00000135668482206124104860000009123224395858616464_" x="239.6" y="672" width="700" height="700"/>
		</defs>
		<clipPath id="SVGID_00000092449435496814045760000017185149921397150637_">
			<use xlink:href="#SVGID_00000135668482206124104860000009123224395858616464_"  style="overflow:visible;"/>
		</clipPath>
		<g style="clip-path:url(#SVGID_00000092449435496814045760000017185149921397150637_);">
			
				<use xlink:href="#e"  width="16.8" height="16.1" x="-8.4" y="-8" transform="matrix(1 0 0 1 249.2578 664.351)" style="overflow:visible;"/>
		</g>
	</g>
	
		<use xlink:href="#p"  width="15.4" height="15.7" x="-7.7" y="-7.9" transform="matrix(1 0 0 1 268.7617 664.5387)" style="overflow:visible;"/>
	<g>
		<defs>
			<rect id="SVGID_00000141448305963982481060000009056926395021815211_" x="278.8" y="672" width="700" height="700"/>
		</defs>
		<clipPath id="SVGID_00000057113923391353382190000015029107240821827000_">
			<use xlink:href="#SVGID_00000141448305963982481060000009056926395021815211_"  style="overflow:visible;"/>
		</clipPath>
		<g style="clip-path:url(#SVGID_00000057113923391353382190000015029107240821827000_);">
			
				<use xlink:href="#h"  width="15.4" height="15.7" x="-7.7" y="-7.8" transform="matrix(1 0 0 1 288.8672 664.1564)" style="overflow:visible;"/>
		</g>
	</g>
	
		<use xlink:href="#o"  width="16.8" height="20.4" x="-8.4" y="-10.2" transform="matrix(1 0 0 1 319.4688 661.7972)" style="overflow:visible;"/>
	<g>
		<defs>
			<rect id="SVGID_00000080172487024131645010000017097175087690081184_" x="329" y="672" width="700" height="700"/>
		</defs>
		<clipPath id="SVGID_00000042710321569420988390000007340369473443514542_">
			<use xlink:href="#SVGID_00000080172487024131645010000017097175087690081184_"  style="overflow:visible;"/>
		</clipPath>
		<g style="clip-path:url(#SVGID_00000042710321569420988390000007340369473443514542_);">
			
				<use xlink:href="#d"  width="11.4" height="15.7" x="-5.7" y="-7.8" transform="matrix(1 0 0 1 337.0622 664.1561)" style="overflow:visible;"/>
		</g>
	</g>
	<g>
		<defs>
			<rect id="SVGID_00000153678916376441277760000004821826217564017589_" x="342.8" y="672" width="700" height="700"/>
		</defs>
		<clipPath id="SVGID_00000156552161481329185440000003750435860371042718_">
			<use xlink:href="#SVGID_00000153678916376441277760000004821826217564017589_"  style="overflow:visible;"/>
		</clipPath>
		<g style="clip-path:url(#SVGID_00000156552161481329185440000003750435860371042718_);">
			
				<use xlink:href="#e"  width="16.8" height="16.1" x="-8.4" y="-8" transform="matrix(1 0 0 1 352.4375 664.351)" style="overflow:visible;"/>
		</g>
	</g>
	
		<use xlink:href="#n"  width="8.2" height="27.3" x="-4.1" y="-13.7" transform="matrix(1 0 0 1 365.2148 664.3832)" style="overflow:visible;"/>
	<g>
		<defs>
			<rect id="SVGID_00000165194514922873607320000015596805900434072483_" x="371.7" y="672" width="700" height="700"/>
		</defs>
		<clipPath id="SVGID_00000096755733360729132040000007914969653727299982_">
			<use xlink:href="#SVGID_00000165194514922873607320000015596805900434072483_"  style="overflow:visible;"/>
		</clipPath>
		<g style="clip-path:url(#SVGID_00000096755733360729132040000007914969653727299982_);">
			
				<use xlink:href="#b"  width="16.4" height="16.1" x="-8.2" y="-8" transform="matrix(1 0 0 1 381.0785 664.3516)" style="overflow:visible;"/>
		</g>
	</g>
	
		<use xlink:href="#m"  width="13.5" height="16.1" x="-6.8" y="-8" transform="matrix(1 0 0 1 398.6096 664.3519)" style="overflow:visible;"/>
	<g>
		<defs>
			<rect id="SVGID_00000103986674857149646720000010893362158538267555_" x="407.2" y="672" width="700" height="700"/>
		</defs>
		<clipPath id="SVGID_00000165922671862016097760000011399281994574674338_">
			<use xlink:href="#SVGID_00000103986674857149646720000010893362158538267555_"  style="overflow:visible;"/>
		</clipPath>
		<g style="clip-path:url(#SVGID_00000165922671862016097760000011399281994574674338_);">
			
				<use xlink:href="#c"  width="12.4" height="19.7" x="-6.2" y="-9.8" transform="matrix(1 0 0 1 413.8047 662.1722)" style="overflow:visible;"/>
		</g>
	</g>
</g>
</svg>
